G04 #@! TF.GenerationSoftware,KiCad,Pcbnew,(5.1.5)-3*
G04 #@! TF.CreationDate,2020-05-22T16:17:05-04:00*
G04 #@! TF.ProjectId,os_multitap,6f735f6d-756c-4746-9974-61702e6b6963,rev?*
G04 #@! TF.SameCoordinates,Original*
G04 #@! TF.FileFunction,Soldermask,Top*
G04 #@! TF.FilePolarity,Negative*
%FSLAX46Y46*%
G04 Gerber Fmt 4.6, Leading zero omitted, Abs format (unit mm)*
G04 Created by KiCad (PCBNEW (5.1.5)-3) date 2020-05-22 16:17:05*
%MOMM*%
%LPD*%
G04 APERTURE LIST*
%ADD10C,0.010000*%
%ADD11C,0.100000*%
G04 APERTURE END LIST*
D10*
G36*
X47765781Y-89405526D02*
G01*
X47818434Y-89434793D01*
X47859432Y-89458469D01*
X47891237Y-89478221D01*
X47916312Y-89495719D01*
X47937120Y-89512630D01*
X47956123Y-89530624D01*
X47966887Y-89541787D01*
X47982248Y-89560174D01*
X47998604Y-89582913D01*
X48013554Y-89606174D01*
X48024701Y-89626130D01*
X48029643Y-89638952D01*
X48029260Y-89641322D01*
X48021215Y-89640370D01*
X48001209Y-89636152D01*
X47972638Y-89629416D01*
X47951627Y-89624182D01*
X47858252Y-89603474D01*
X47753734Y-89585641D01*
X47642661Y-89571399D01*
X47566333Y-89564178D01*
X47506176Y-89560695D01*
X47433871Y-89558745D01*
X47353064Y-89558258D01*
X47267400Y-89559160D01*
X47180524Y-89561381D01*
X47096082Y-89564848D01*
X47017720Y-89569490D01*
X46949082Y-89575236D01*
X46936312Y-89576569D01*
X46685744Y-89609933D01*
X46426662Y-89656462D01*
X46159335Y-89716095D01*
X45884030Y-89788771D01*
X45601014Y-89874429D01*
X45549691Y-89891084D01*
X45482196Y-89913512D01*
X45412564Y-89937205D01*
X45342403Y-89961567D01*
X45273323Y-89986004D01*
X45206935Y-90009921D01*
X45144846Y-90032721D01*
X45088668Y-90053810D01*
X45040009Y-90072593D01*
X45000479Y-90088474D01*
X44971688Y-90100859D01*
X44955245Y-90109152D01*
X44951937Y-90112127D01*
X44954755Y-90114310D01*
X44963698Y-90118303D01*
X44979501Y-90124348D01*
X45002896Y-90132685D01*
X45034619Y-90143557D01*
X45075404Y-90157205D01*
X45125984Y-90173870D01*
X45187094Y-90193794D01*
X45259467Y-90217218D01*
X45343838Y-90244383D01*
X45440940Y-90275532D01*
X45551509Y-90310905D01*
X45676277Y-90350743D01*
X45713937Y-90362757D01*
X45869342Y-90412465D01*
X46010842Y-90458047D01*
X46139735Y-90499948D01*
X46257318Y-90538618D01*
X46364887Y-90574503D01*
X46463741Y-90608050D01*
X46555177Y-90639707D01*
X46640490Y-90669922D01*
X46720980Y-90699142D01*
X46797942Y-90727814D01*
X46872674Y-90756386D01*
X46946474Y-90785305D01*
X46993978Y-90804267D01*
X47216854Y-90897607D01*
X47424730Y-90992599D01*
X47618440Y-91089766D01*
X47798819Y-91189632D01*
X47966701Y-91292719D01*
X48122921Y-91399551D01*
X48268314Y-91510651D01*
X48403715Y-91626543D01*
X48529957Y-91747749D01*
X48577023Y-91796716D01*
X48606834Y-91828822D01*
X48635262Y-91860116D01*
X48659149Y-91887082D01*
X48675338Y-91906203D01*
X48675720Y-91906679D01*
X48702406Y-91940014D01*
X48765906Y-91935951D01*
X48798058Y-91932287D01*
X48840267Y-91925198D01*
X48887339Y-91915661D01*
X48934078Y-91904656D01*
X48939694Y-91903211D01*
X48999647Y-91888753D01*
X49057071Y-91877014D01*
X49109306Y-91868387D01*
X49153692Y-91863268D01*
X49187569Y-91862050D01*
X49204682Y-91863983D01*
X49223953Y-91868820D01*
X49218833Y-91790363D01*
X49210619Y-91683435D01*
X49199994Y-91580586D01*
X49186417Y-91478284D01*
X49169344Y-91372994D01*
X49148235Y-91261184D01*
X49122548Y-91139318D01*
X49111279Y-91088775D01*
X49087692Y-90983941D01*
X49067482Y-90893172D01*
X49050355Y-90815089D01*
X49036016Y-90748311D01*
X49024172Y-90691459D01*
X49014529Y-90643153D01*
X49006792Y-90602014D01*
X49003287Y-90582199D01*
X48996627Y-90543789D01*
X48993836Y-90517839D01*
X48997024Y-90501031D01*
X49008304Y-90490046D01*
X49029787Y-90481566D01*
X49063586Y-90472275D01*
X49075235Y-90469159D01*
X49150263Y-90455390D01*
X49220230Y-90455656D01*
X49284200Y-90469791D01*
X49341234Y-90497628D01*
X49373458Y-90522371D01*
X49407009Y-90556775D01*
X49437432Y-90597339D01*
X49464979Y-90645008D01*
X49489900Y-90700729D01*
X49512446Y-90765448D01*
X49532868Y-90840111D01*
X49551418Y-90925664D01*
X49568345Y-91023054D01*
X49583901Y-91133225D01*
X49598337Y-91257124D01*
X49611904Y-91395698D01*
X49615307Y-91434093D01*
X49620859Y-91497048D01*
X49626350Y-91557611D01*
X49631535Y-91613203D01*
X49636168Y-91661246D01*
X49640004Y-91699162D01*
X49642799Y-91724374D01*
X49643226Y-91727781D01*
X49646903Y-91757875D01*
X49649586Y-91783246D01*
X49650692Y-91798332D01*
X49651571Y-91803801D01*
X49655490Y-91807626D01*
X49664681Y-91809982D01*
X49681374Y-91811042D01*
X49707804Y-91810980D01*
X49746202Y-91809969D01*
X49783890Y-91808705D01*
X49911231Y-91800278D01*
X50036233Y-91784409D01*
X50043843Y-91783173D01*
X50129479Y-91770972D01*
X50214533Y-91763055D01*
X50306836Y-91758706D01*
X50313718Y-91758518D01*
X50456593Y-91754780D01*
X50455995Y-91685718D01*
X50455228Y-91660228D01*
X50453092Y-91634423D01*
X50449159Y-91606543D01*
X50443001Y-91574825D01*
X50434192Y-91537509D01*
X50422303Y-91492835D01*
X50406907Y-91439042D01*
X50387577Y-91374368D01*
X50363885Y-91297053D01*
X50353477Y-91263437D01*
X50318890Y-91149415D01*
X50290148Y-91049034D01*
X50266995Y-90961281D01*
X50249172Y-90885141D01*
X50236422Y-90819602D01*
X50230415Y-90779787D01*
X50224675Y-90702287D01*
X50229032Y-90636633D01*
X50243435Y-90582946D01*
X50267837Y-90541346D01*
X50302187Y-90511953D01*
X50346436Y-90494888D01*
X50347496Y-90494657D01*
X50395552Y-90490721D01*
X50441216Y-90500377D01*
X50484975Y-90524029D01*
X50527314Y-90562080D01*
X50568718Y-90614937D01*
X50609674Y-90683002D01*
X50635836Y-90734650D01*
X50666550Y-90804357D01*
X50696201Y-90882979D01*
X50725151Y-90971751D01*
X50753762Y-91071910D01*
X50782396Y-91184693D01*
X50811416Y-91311335D01*
X50829337Y-91395321D01*
X50840742Y-91450001D01*
X50851899Y-91503319D01*
X50862110Y-91551965D01*
X50870681Y-91592626D01*
X50876916Y-91621991D01*
X50878159Y-91627787D01*
X50890808Y-91686542D01*
X51031962Y-91681243D01*
X51112458Y-91677433D01*
X51192046Y-91671945D01*
X51272566Y-91664512D01*
X51355860Y-91654861D01*
X51443767Y-91642725D01*
X51538129Y-91627832D01*
X51640785Y-91609913D01*
X51753578Y-91588699D01*
X51878346Y-91563918D01*
X51992500Y-91540411D01*
X52125014Y-91513216D01*
X52243451Y-91489855D01*
X52347584Y-91470368D01*
X52437183Y-91454794D01*
X52512019Y-91443176D01*
X52571863Y-91435552D01*
X52598526Y-91433060D01*
X52665012Y-91427950D01*
X52670089Y-91455010D01*
X52670283Y-91488086D01*
X52660917Y-91532229D01*
X52642312Y-91586082D01*
X52634627Y-91604750D01*
X52624484Y-91628392D01*
X52617081Y-91645326D01*
X52614385Y-91651157D01*
X52605954Y-91653360D01*
X52583058Y-91657296D01*
X52546995Y-91662800D01*
X52499062Y-91669705D01*
X52440554Y-91677845D01*
X52372769Y-91687054D01*
X52297003Y-91697166D01*
X52214553Y-91708013D01*
X52126716Y-91719429D01*
X52034788Y-91731249D01*
X51940066Y-91743305D01*
X51843846Y-91755432D01*
X51747426Y-91767463D01*
X51652102Y-91779232D01*
X51559171Y-91790571D01*
X51469929Y-91801316D01*
X51385674Y-91811300D01*
X51307701Y-91820355D01*
X51237307Y-91828317D01*
X51210750Y-91831247D01*
X51148130Y-91838154D01*
X51090744Y-91844597D01*
X51040445Y-91850359D01*
X50999091Y-91855222D01*
X50968536Y-91858969D01*
X50950635Y-91861383D01*
X50946635Y-91862156D01*
X50948309Y-91870025D01*
X50954327Y-91890567D01*
X50963949Y-91921416D01*
X50976438Y-91960206D01*
X50991054Y-92004571D01*
X50991679Y-92006448D01*
X51011259Y-92066689D01*
X51030060Y-92127807D01*
X51048571Y-92191691D01*
X51067285Y-92260229D01*
X51086691Y-92335308D01*
X51107281Y-92418817D01*
X51129544Y-92512644D01*
X51153973Y-92618678D01*
X51175050Y-92711982D01*
X51195698Y-92803792D01*
X51213464Y-92882156D01*
X51228851Y-92949137D01*
X51242364Y-93006800D01*
X51254507Y-93057208D01*
X51265786Y-93102424D01*
X51276703Y-93144511D01*
X51287765Y-93185534D01*
X51299476Y-93227555D01*
X51310906Y-93267656D01*
X51330699Y-93334288D01*
X51348707Y-93389184D01*
X51366450Y-93436136D01*
X51385442Y-93478935D01*
X51407200Y-93521375D01*
X51425181Y-93553406D01*
X51459182Y-93613616D01*
X51485405Y-93663218D01*
X51505029Y-93704710D01*
X51519236Y-93740589D01*
X51529205Y-93773352D01*
X51529308Y-93773750D01*
X51536700Y-93816826D01*
X51537841Y-93860256D01*
X51533303Y-93900751D01*
X51523663Y-93935025D01*
X51509492Y-93959791D01*
X51494915Y-93970691D01*
X51463034Y-93976817D01*
X51422732Y-93975740D01*
X51379601Y-93967714D01*
X51370320Y-93965051D01*
X51333959Y-93947260D01*
X51296408Y-93917248D01*
X51260798Y-93878070D01*
X51230258Y-93832783D01*
X51224996Y-93823188D01*
X51212177Y-93796949D01*
X51195803Y-93760643D01*
X51177967Y-93719038D01*
X51160763Y-93676905D01*
X51160540Y-93676344D01*
X51143386Y-93633617D01*
X51122170Y-93581599D01*
X51099073Y-93525596D01*
X51076278Y-93470914D01*
X51065595Y-93445534D01*
X51025368Y-93347662D01*
X50981380Y-93235500D01*
X50933544Y-93108819D01*
X50881777Y-92967394D01*
X50825994Y-92810997D01*
X50793466Y-92718217D01*
X50749775Y-92592977D01*
X50710939Y-92481832D01*
X50676633Y-92383867D01*
X50646538Y-92298170D01*
X50620330Y-92223827D01*
X50597687Y-92159925D01*
X50578287Y-92105550D01*
X50561808Y-92059789D01*
X50547927Y-92021730D01*
X50544907Y-92013531D01*
X50509737Y-91918281D01*
X50471259Y-91919618D01*
X50452284Y-91920934D01*
X50419728Y-91923921D01*
X50375771Y-91928334D01*
X50322589Y-91933924D01*
X50262362Y-91940445D01*
X50197267Y-91947650D01*
X50129484Y-91955293D01*
X50061189Y-91963127D01*
X49994562Y-91970904D01*
X49931781Y-91978378D01*
X49875023Y-91985302D01*
X49826468Y-91991429D01*
X49788293Y-91996513D01*
X49771984Y-91998854D01*
X49682687Y-92012223D01*
X49682687Y-92057342D01*
X49684066Y-92080121D01*
X49687886Y-92114904D01*
X49693672Y-92158092D01*
X49700951Y-92206086D01*
X49707356Y-92244528D01*
X49719153Y-92317899D01*
X49727133Y-92381684D01*
X49731885Y-92441545D01*
X49733952Y-92500218D01*
X49735120Y-92547827D01*
X49736927Y-92581923D01*
X49739638Y-92604867D01*
X49743515Y-92619015D01*
X49747982Y-92625946D01*
X49758843Y-92634737D01*
X49780070Y-92650295D01*
X49808817Y-92670587D01*
X49842239Y-92693580D01*
X49850042Y-92698870D01*
X49897967Y-92732983D01*
X49933599Y-92762992D01*
X49959038Y-92791497D01*
X49976382Y-92821094D01*
X49987730Y-92854383D01*
X49992093Y-92874750D01*
X49996772Y-92932621D01*
X49988130Y-92981885D01*
X49966171Y-93022523D01*
X49956502Y-93033529D01*
X49925272Y-93061242D01*
X49892235Y-93080655D01*
X49853897Y-93092929D01*
X49806767Y-93099223D01*
X49754125Y-93100734D01*
X49706818Y-93099622D01*
X49663485Y-93096066D01*
X49620331Y-93089343D01*
X49573563Y-93078735D01*
X49519389Y-93063519D01*
X49459540Y-93044766D01*
X49374303Y-93017210D01*
X49362325Y-92963839D01*
X49345141Y-92881270D01*
X49327872Y-92787085D01*
X49311212Y-92685523D01*
X49295856Y-92580824D01*
X49282497Y-92477227D01*
X49282102Y-92473906D01*
X49278188Y-92439360D01*
X49273622Y-92396570D01*
X49268679Y-92348375D01*
X49263630Y-92297613D01*
X49258748Y-92247123D01*
X49254305Y-92199744D01*
X49250576Y-92158316D01*
X49247831Y-92125676D01*
X49246344Y-92104664D01*
X49246157Y-92099644D01*
X49240469Y-92096077D01*
X49222601Y-92097018D01*
X49191286Y-92102576D01*
X49177384Y-92105530D01*
X49153560Y-92111064D01*
X49120320Y-92119234D01*
X49080338Y-92129336D01*
X49036290Y-92140665D01*
X48990850Y-92152518D01*
X48946696Y-92164192D01*
X48906500Y-92174982D01*
X48872940Y-92184184D01*
X48848689Y-92191096D01*
X48836424Y-92195012D01*
X48835510Y-92195468D01*
X48837497Y-92202992D01*
X48844400Y-92221523D01*
X48854865Y-92247485D01*
X48858259Y-92255621D01*
X48889965Y-92351114D01*
X48908042Y-92453208D01*
X48912485Y-92560350D01*
X48903287Y-92670991D01*
X48880444Y-92783581D01*
X48860407Y-92850767D01*
X48809640Y-92978675D01*
X48744874Y-93102186D01*
X48667552Y-93219404D01*
X48579119Y-93328434D01*
X48481020Y-93427381D01*
X48374699Y-93514350D01*
X48331629Y-93544405D01*
X48192256Y-93627618D01*
X48044127Y-93697645D01*
X47887355Y-93754467D01*
X47722052Y-93798063D01*
X47548329Y-93828415D01*
X47366300Y-93845503D01*
X47176077Y-93849309D01*
X46977771Y-93839812D01*
X46771496Y-93816993D01*
X46757718Y-93815035D01*
X46585689Y-93786165D01*
X46428323Y-93751234D01*
X46285608Y-93710239D01*
X46157535Y-93663176D01*
X46088574Y-93632437D01*
X46011257Y-93593437D01*
X45946124Y-93555978D01*
X45889908Y-93517947D01*
X45839345Y-93477229D01*
X45815973Y-93455968D01*
X45770157Y-93408586D01*
X45736826Y-93363788D01*
X45713765Y-93318174D01*
X45701689Y-93280659D01*
X45697356Y-93261921D01*
X46128114Y-93261921D01*
X46135085Y-93298101D01*
X46150875Y-93330992D01*
X46177269Y-93364585D01*
X46206829Y-93394277D01*
X46258675Y-93435554D01*
X46324419Y-93475469D01*
X46402096Y-93513359D01*
X46489745Y-93548560D01*
X46585401Y-93580411D01*
X46687103Y-93608249D01*
X46792888Y-93631410D01*
X46900792Y-93649232D01*
X46992956Y-93659710D01*
X47052485Y-93664426D01*
X47101848Y-93666767D01*
X47146578Y-93666743D01*
X47192203Y-93664365D01*
X47239080Y-93660172D01*
X47372172Y-93640317D01*
X47503600Y-93608392D01*
X47632099Y-93565285D01*
X47756406Y-93511884D01*
X47875255Y-93449077D01*
X47987382Y-93377752D01*
X48091522Y-93298796D01*
X48186412Y-93213097D01*
X48270785Y-93121543D01*
X48343378Y-93025021D01*
X48402927Y-92924420D01*
X48448166Y-92820628D01*
X48452460Y-92808332D01*
X48472660Y-92741745D01*
X48485416Y-92680148D01*
X48491892Y-92616372D01*
X48493329Y-92556359D01*
X48485321Y-92450091D01*
X48461668Y-92346459D01*
X48436454Y-92277000D01*
X48421719Y-92242134D01*
X48411284Y-92219732D01*
X48403207Y-92207663D01*
X48395548Y-92203795D01*
X48386368Y-92205994D01*
X48376271Y-92210865D01*
X48358124Y-92217884D01*
X48329525Y-92226714D01*
X48295543Y-92235834D01*
X48281718Y-92239191D01*
X48132290Y-92274357D01*
X47997226Y-92306303D01*
X47875417Y-92335348D01*
X47765750Y-92361811D01*
X47667115Y-92386011D01*
X47578402Y-92408267D01*
X47498498Y-92428896D01*
X47426294Y-92448219D01*
X47360679Y-92466554D01*
X47300541Y-92484219D01*
X47244770Y-92501534D01*
X47192255Y-92518816D01*
X47141885Y-92536386D01*
X47092549Y-92554562D01*
X47043135Y-92573663D01*
X46992535Y-92594006D01*
X46939635Y-92615912D01*
X46883326Y-92639699D01*
X46877675Y-92642104D01*
X46743852Y-92700976D01*
X46625023Y-92757306D01*
X46520572Y-92811447D01*
X46429883Y-92863754D01*
X46352341Y-92914580D01*
X46287332Y-92964278D01*
X46237812Y-93009560D01*
X46192262Y-93060286D01*
X46159973Y-93107901D01*
X46139476Y-93155205D01*
X46129299Y-93205001D01*
X46128177Y-93218463D01*
X46128114Y-93261921D01*
X45697356Y-93261921D01*
X45695349Y-93253244D01*
X45692898Y-93231394D01*
X45694311Y-93208610D01*
X45699567Y-93178395D01*
X45701299Y-93169798D01*
X45719651Y-93106298D01*
X45749229Y-93037038D01*
X45788213Y-92965307D01*
X45834786Y-92894394D01*
X45887129Y-92827587D01*
X45896451Y-92816896D01*
X45947873Y-92766085D01*
X46013127Y-92713478D01*
X46090438Y-92660173D01*
X46178030Y-92607267D01*
X46274125Y-92555858D01*
X46376948Y-92507043D01*
X46445582Y-92477621D01*
X46513074Y-92450793D01*
X46582758Y-92425011D01*
X46655840Y-92399959D01*
X46733521Y-92375321D01*
X46817008Y-92350781D01*
X46907503Y-92326022D01*
X47006211Y-92300726D01*
X47114336Y-92274579D01*
X47233083Y-92247263D01*
X47363654Y-92218462D01*
X47507255Y-92187859D01*
X47665090Y-92155138D01*
X47698312Y-92148344D01*
X47806775Y-92126036D01*
X47907765Y-92104919D01*
X47999983Y-92085277D01*
X48082133Y-92067392D01*
X48152916Y-92051549D01*
X48211035Y-92038030D01*
X48255192Y-92027119D01*
X48264209Y-92024750D01*
X48294325Y-92016699D01*
X48268240Y-91983365D01*
X48245503Y-91956426D01*
X48213308Y-91921196D01*
X48173997Y-91880002D01*
X48129909Y-91835175D01*
X48083386Y-91789043D01*
X48036769Y-91743937D01*
X47992397Y-91702184D01*
X47952613Y-91666116D01*
X47928500Y-91645289D01*
X47743732Y-91500124D01*
X47545772Y-91363567D01*
X47334842Y-91235737D01*
X47111165Y-91116754D01*
X46874962Y-91006739D01*
X46626458Y-90905809D01*
X46408468Y-90828171D01*
X46344612Y-90807075D01*
X46283783Y-90787628D01*
X46223728Y-90769202D01*
X46162192Y-90751169D01*
X46096921Y-90732903D01*
X46025661Y-90713773D01*
X45946158Y-90693154D01*
X45856158Y-90670416D01*
X45753406Y-90644932D01*
X45729812Y-90639127D01*
X45620804Y-90612177D01*
X45524975Y-90588095D01*
X45440017Y-90566244D01*
X45363627Y-90545988D01*
X45293498Y-90526690D01*
X45227325Y-90507715D01*
X45162803Y-90488425D01*
X45097625Y-90468184D01*
X45029487Y-90446357D01*
X45018466Y-90442775D01*
X44964028Y-90425244D01*
X44908071Y-90407553D01*
X44854762Y-90390997D01*
X44808270Y-90376871D01*
X44773343Y-90366634D01*
X44676105Y-90337898D01*
X44593483Y-90310808D01*
X44524382Y-90284739D01*
X44467708Y-90259063D01*
X44422365Y-90233155D01*
X44387259Y-90206389D01*
X44361294Y-90178138D01*
X44343375Y-90147776D01*
X44332408Y-90114678D01*
X44332366Y-90114490D01*
X44329293Y-90074166D01*
X44340442Y-90039592D01*
X44360475Y-90013928D01*
X44390204Y-89990204D01*
X44433927Y-89963915D01*
X44490097Y-89935736D01*
X44557167Y-89906343D01*
X44633591Y-89876410D01*
X44717821Y-89846615D01*
X44808312Y-89817631D01*
X44813834Y-89815955D01*
X44871619Y-89798922D01*
X44942626Y-89778741D01*
X45024645Y-89755987D01*
X45115465Y-89731237D01*
X45212877Y-89705069D01*
X45314671Y-89678060D01*
X45418637Y-89650785D01*
X45522565Y-89623823D01*
X45624245Y-89597751D01*
X45721468Y-89573144D01*
X45812022Y-89550580D01*
X45893699Y-89530637D01*
X45964289Y-89513890D01*
X46015562Y-89502237D01*
X46236209Y-89456443D01*
X46446665Y-89418832D01*
X46650117Y-89389033D01*
X46849748Y-89366679D01*
X47048745Y-89351401D01*
X47250292Y-89342831D01*
X47412562Y-89340562D01*
X47646718Y-89340034D01*
X47765781Y-89405526D01*
G37*
X47765781Y-89405526D02*
X47818434Y-89434793D01*
X47859432Y-89458469D01*
X47891237Y-89478221D01*
X47916312Y-89495719D01*
X47937120Y-89512630D01*
X47956123Y-89530624D01*
X47966887Y-89541787D01*
X47982248Y-89560174D01*
X47998604Y-89582913D01*
X48013554Y-89606174D01*
X48024701Y-89626130D01*
X48029643Y-89638952D01*
X48029260Y-89641322D01*
X48021215Y-89640370D01*
X48001209Y-89636152D01*
X47972638Y-89629416D01*
X47951627Y-89624182D01*
X47858252Y-89603474D01*
X47753734Y-89585641D01*
X47642661Y-89571399D01*
X47566333Y-89564178D01*
X47506176Y-89560695D01*
X47433871Y-89558745D01*
X47353064Y-89558258D01*
X47267400Y-89559160D01*
X47180524Y-89561381D01*
X47096082Y-89564848D01*
X47017720Y-89569490D01*
X46949082Y-89575236D01*
X46936312Y-89576569D01*
X46685744Y-89609933D01*
X46426662Y-89656462D01*
X46159335Y-89716095D01*
X45884030Y-89788771D01*
X45601014Y-89874429D01*
X45549691Y-89891084D01*
X45482196Y-89913512D01*
X45412564Y-89937205D01*
X45342403Y-89961567D01*
X45273323Y-89986004D01*
X45206935Y-90009921D01*
X45144846Y-90032721D01*
X45088668Y-90053810D01*
X45040009Y-90072593D01*
X45000479Y-90088474D01*
X44971688Y-90100859D01*
X44955245Y-90109152D01*
X44951937Y-90112127D01*
X44954755Y-90114310D01*
X44963698Y-90118303D01*
X44979501Y-90124348D01*
X45002896Y-90132685D01*
X45034619Y-90143557D01*
X45075404Y-90157205D01*
X45125984Y-90173870D01*
X45187094Y-90193794D01*
X45259467Y-90217218D01*
X45343838Y-90244383D01*
X45440940Y-90275532D01*
X45551509Y-90310905D01*
X45676277Y-90350743D01*
X45713937Y-90362757D01*
X45869342Y-90412465D01*
X46010842Y-90458047D01*
X46139735Y-90499948D01*
X46257318Y-90538618D01*
X46364887Y-90574503D01*
X46463741Y-90608050D01*
X46555177Y-90639707D01*
X46640490Y-90669922D01*
X46720980Y-90699142D01*
X46797942Y-90727814D01*
X46872674Y-90756386D01*
X46946474Y-90785305D01*
X46993978Y-90804267D01*
X47216854Y-90897607D01*
X47424730Y-90992599D01*
X47618440Y-91089766D01*
X47798819Y-91189632D01*
X47966701Y-91292719D01*
X48122921Y-91399551D01*
X48268314Y-91510651D01*
X48403715Y-91626543D01*
X48529957Y-91747749D01*
X48577023Y-91796716D01*
X48606834Y-91828822D01*
X48635262Y-91860116D01*
X48659149Y-91887082D01*
X48675338Y-91906203D01*
X48675720Y-91906679D01*
X48702406Y-91940014D01*
X48765906Y-91935951D01*
X48798058Y-91932287D01*
X48840267Y-91925198D01*
X48887339Y-91915661D01*
X48934078Y-91904656D01*
X48939694Y-91903211D01*
X48999647Y-91888753D01*
X49057071Y-91877014D01*
X49109306Y-91868387D01*
X49153692Y-91863268D01*
X49187569Y-91862050D01*
X49204682Y-91863983D01*
X49223953Y-91868820D01*
X49218833Y-91790363D01*
X49210619Y-91683435D01*
X49199994Y-91580586D01*
X49186417Y-91478284D01*
X49169344Y-91372994D01*
X49148235Y-91261184D01*
X49122548Y-91139318D01*
X49111279Y-91088775D01*
X49087692Y-90983941D01*
X49067482Y-90893172D01*
X49050355Y-90815089D01*
X49036016Y-90748311D01*
X49024172Y-90691459D01*
X49014529Y-90643153D01*
X49006792Y-90602014D01*
X49003287Y-90582199D01*
X48996627Y-90543789D01*
X48993836Y-90517839D01*
X48997024Y-90501031D01*
X49008304Y-90490046D01*
X49029787Y-90481566D01*
X49063586Y-90472275D01*
X49075235Y-90469159D01*
X49150263Y-90455390D01*
X49220230Y-90455656D01*
X49284200Y-90469791D01*
X49341234Y-90497628D01*
X49373458Y-90522371D01*
X49407009Y-90556775D01*
X49437432Y-90597339D01*
X49464979Y-90645008D01*
X49489900Y-90700729D01*
X49512446Y-90765448D01*
X49532868Y-90840111D01*
X49551418Y-90925664D01*
X49568345Y-91023054D01*
X49583901Y-91133225D01*
X49598337Y-91257124D01*
X49611904Y-91395698D01*
X49615307Y-91434093D01*
X49620859Y-91497048D01*
X49626350Y-91557611D01*
X49631535Y-91613203D01*
X49636168Y-91661246D01*
X49640004Y-91699162D01*
X49642799Y-91724374D01*
X49643226Y-91727781D01*
X49646903Y-91757875D01*
X49649586Y-91783246D01*
X49650692Y-91798332D01*
X49651571Y-91803801D01*
X49655490Y-91807626D01*
X49664681Y-91809982D01*
X49681374Y-91811042D01*
X49707804Y-91810980D01*
X49746202Y-91809969D01*
X49783890Y-91808705D01*
X49911231Y-91800278D01*
X50036233Y-91784409D01*
X50043843Y-91783173D01*
X50129479Y-91770972D01*
X50214533Y-91763055D01*
X50306836Y-91758706D01*
X50313718Y-91758518D01*
X50456593Y-91754780D01*
X50455995Y-91685718D01*
X50455228Y-91660228D01*
X50453092Y-91634423D01*
X50449159Y-91606543D01*
X50443001Y-91574825D01*
X50434192Y-91537509D01*
X50422303Y-91492835D01*
X50406907Y-91439042D01*
X50387577Y-91374368D01*
X50363885Y-91297053D01*
X50353477Y-91263437D01*
X50318890Y-91149415D01*
X50290148Y-91049034D01*
X50266995Y-90961281D01*
X50249172Y-90885141D01*
X50236422Y-90819602D01*
X50230415Y-90779787D01*
X50224675Y-90702287D01*
X50229032Y-90636633D01*
X50243435Y-90582946D01*
X50267837Y-90541346D01*
X50302187Y-90511953D01*
X50346436Y-90494888D01*
X50347496Y-90494657D01*
X50395552Y-90490721D01*
X50441216Y-90500377D01*
X50484975Y-90524029D01*
X50527314Y-90562080D01*
X50568718Y-90614937D01*
X50609674Y-90683002D01*
X50635836Y-90734650D01*
X50666550Y-90804357D01*
X50696201Y-90882979D01*
X50725151Y-90971751D01*
X50753762Y-91071910D01*
X50782396Y-91184693D01*
X50811416Y-91311335D01*
X50829337Y-91395321D01*
X50840742Y-91450001D01*
X50851899Y-91503319D01*
X50862110Y-91551965D01*
X50870681Y-91592626D01*
X50876916Y-91621991D01*
X50878159Y-91627787D01*
X50890808Y-91686542D01*
X51031962Y-91681243D01*
X51112458Y-91677433D01*
X51192046Y-91671945D01*
X51272566Y-91664512D01*
X51355860Y-91654861D01*
X51443767Y-91642725D01*
X51538129Y-91627832D01*
X51640785Y-91609913D01*
X51753578Y-91588699D01*
X51878346Y-91563918D01*
X51992500Y-91540411D01*
X52125014Y-91513216D01*
X52243451Y-91489855D01*
X52347584Y-91470368D01*
X52437183Y-91454794D01*
X52512019Y-91443176D01*
X52571863Y-91435552D01*
X52598526Y-91433060D01*
X52665012Y-91427950D01*
X52670089Y-91455010D01*
X52670283Y-91488086D01*
X52660917Y-91532229D01*
X52642312Y-91586082D01*
X52634627Y-91604750D01*
X52624484Y-91628392D01*
X52617081Y-91645326D01*
X52614385Y-91651157D01*
X52605954Y-91653360D01*
X52583058Y-91657296D01*
X52546995Y-91662800D01*
X52499062Y-91669705D01*
X52440554Y-91677845D01*
X52372769Y-91687054D01*
X52297003Y-91697166D01*
X52214553Y-91708013D01*
X52126716Y-91719429D01*
X52034788Y-91731249D01*
X51940066Y-91743305D01*
X51843846Y-91755432D01*
X51747426Y-91767463D01*
X51652102Y-91779232D01*
X51559171Y-91790571D01*
X51469929Y-91801316D01*
X51385674Y-91811300D01*
X51307701Y-91820355D01*
X51237307Y-91828317D01*
X51210750Y-91831247D01*
X51148130Y-91838154D01*
X51090744Y-91844597D01*
X51040445Y-91850359D01*
X50999091Y-91855222D01*
X50968536Y-91858969D01*
X50950635Y-91861383D01*
X50946635Y-91862156D01*
X50948309Y-91870025D01*
X50954327Y-91890567D01*
X50963949Y-91921416D01*
X50976438Y-91960206D01*
X50991054Y-92004571D01*
X50991679Y-92006448D01*
X51011259Y-92066689D01*
X51030060Y-92127807D01*
X51048571Y-92191691D01*
X51067285Y-92260229D01*
X51086691Y-92335308D01*
X51107281Y-92418817D01*
X51129544Y-92512644D01*
X51153973Y-92618678D01*
X51175050Y-92711982D01*
X51195698Y-92803792D01*
X51213464Y-92882156D01*
X51228851Y-92949137D01*
X51242364Y-93006800D01*
X51254507Y-93057208D01*
X51265786Y-93102424D01*
X51276703Y-93144511D01*
X51287765Y-93185534D01*
X51299476Y-93227555D01*
X51310906Y-93267656D01*
X51330699Y-93334288D01*
X51348707Y-93389184D01*
X51366450Y-93436136D01*
X51385442Y-93478935D01*
X51407200Y-93521375D01*
X51425181Y-93553406D01*
X51459182Y-93613616D01*
X51485405Y-93663218D01*
X51505029Y-93704710D01*
X51519236Y-93740589D01*
X51529205Y-93773352D01*
X51529308Y-93773750D01*
X51536700Y-93816826D01*
X51537841Y-93860256D01*
X51533303Y-93900751D01*
X51523663Y-93935025D01*
X51509492Y-93959791D01*
X51494915Y-93970691D01*
X51463034Y-93976817D01*
X51422732Y-93975740D01*
X51379601Y-93967714D01*
X51370320Y-93965051D01*
X51333959Y-93947260D01*
X51296408Y-93917248D01*
X51260798Y-93878070D01*
X51230258Y-93832783D01*
X51224996Y-93823188D01*
X51212177Y-93796949D01*
X51195803Y-93760643D01*
X51177967Y-93719038D01*
X51160763Y-93676905D01*
X51160540Y-93676344D01*
X51143386Y-93633617D01*
X51122170Y-93581599D01*
X51099073Y-93525596D01*
X51076278Y-93470914D01*
X51065595Y-93445534D01*
X51025368Y-93347662D01*
X50981380Y-93235500D01*
X50933544Y-93108819D01*
X50881777Y-92967394D01*
X50825994Y-92810997D01*
X50793466Y-92718217D01*
X50749775Y-92592977D01*
X50710939Y-92481832D01*
X50676633Y-92383867D01*
X50646538Y-92298170D01*
X50620330Y-92223827D01*
X50597687Y-92159925D01*
X50578287Y-92105550D01*
X50561808Y-92059789D01*
X50547927Y-92021730D01*
X50544907Y-92013531D01*
X50509737Y-91918281D01*
X50471259Y-91919618D01*
X50452284Y-91920934D01*
X50419728Y-91923921D01*
X50375771Y-91928334D01*
X50322589Y-91933924D01*
X50262362Y-91940445D01*
X50197267Y-91947650D01*
X50129484Y-91955293D01*
X50061189Y-91963127D01*
X49994562Y-91970904D01*
X49931781Y-91978378D01*
X49875023Y-91985302D01*
X49826468Y-91991429D01*
X49788293Y-91996513D01*
X49771984Y-91998854D01*
X49682687Y-92012223D01*
X49682687Y-92057342D01*
X49684066Y-92080121D01*
X49687886Y-92114904D01*
X49693672Y-92158092D01*
X49700951Y-92206086D01*
X49707356Y-92244528D01*
X49719153Y-92317899D01*
X49727133Y-92381684D01*
X49731885Y-92441545D01*
X49733952Y-92500218D01*
X49735120Y-92547827D01*
X49736927Y-92581923D01*
X49739638Y-92604867D01*
X49743515Y-92619015D01*
X49747982Y-92625946D01*
X49758843Y-92634737D01*
X49780070Y-92650295D01*
X49808817Y-92670587D01*
X49842239Y-92693580D01*
X49850042Y-92698870D01*
X49897967Y-92732983D01*
X49933599Y-92762992D01*
X49959038Y-92791497D01*
X49976382Y-92821094D01*
X49987730Y-92854383D01*
X49992093Y-92874750D01*
X49996772Y-92932621D01*
X49988130Y-92981885D01*
X49966171Y-93022523D01*
X49956502Y-93033529D01*
X49925272Y-93061242D01*
X49892235Y-93080655D01*
X49853897Y-93092929D01*
X49806767Y-93099223D01*
X49754125Y-93100734D01*
X49706818Y-93099622D01*
X49663485Y-93096066D01*
X49620331Y-93089343D01*
X49573563Y-93078735D01*
X49519389Y-93063519D01*
X49459540Y-93044766D01*
X49374303Y-93017210D01*
X49362325Y-92963839D01*
X49345141Y-92881270D01*
X49327872Y-92787085D01*
X49311212Y-92685523D01*
X49295856Y-92580824D01*
X49282497Y-92477227D01*
X49282102Y-92473906D01*
X49278188Y-92439360D01*
X49273622Y-92396570D01*
X49268679Y-92348375D01*
X49263630Y-92297613D01*
X49258748Y-92247123D01*
X49254305Y-92199744D01*
X49250576Y-92158316D01*
X49247831Y-92125676D01*
X49246344Y-92104664D01*
X49246157Y-92099644D01*
X49240469Y-92096077D01*
X49222601Y-92097018D01*
X49191286Y-92102576D01*
X49177384Y-92105530D01*
X49153560Y-92111064D01*
X49120320Y-92119234D01*
X49080338Y-92129336D01*
X49036290Y-92140665D01*
X48990850Y-92152518D01*
X48946696Y-92164192D01*
X48906500Y-92174982D01*
X48872940Y-92184184D01*
X48848689Y-92191096D01*
X48836424Y-92195012D01*
X48835510Y-92195468D01*
X48837497Y-92202992D01*
X48844400Y-92221523D01*
X48854865Y-92247485D01*
X48858259Y-92255621D01*
X48889965Y-92351114D01*
X48908042Y-92453208D01*
X48912485Y-92560350D01*
X48903287Y-92670991D01*
X48880444Y-92783581D01*
X48860407Y-92850767D01*
X48809640Y-92978675D01*
X48744874Y-93102186D01*
X48667552Y-93219404D01*
X48579119Y-93328434D01*
X48481020Y-93427381D01*
X48374699Y-93514350D01*
X48331629Y-93544405D01*
X48192256Y-93627618D01*
X48044127Y-93697645D01*
X47887355Y-93754467D01*
X47722052Y-93798063D01*
X47548329Y-93828415D01*
X47366300Y-93845503D01*
X47176077Y-93849309D01*
X46977771Y-93839812D01*
X46771496Y-93816993D01*
X46757718Y-93815035D01*
X46585689Y-93786165D01*
X46428323Y-93751234D01*
X46285608Y-93710239D01*
X46157535Y-93663176D01*
X46088574Y-93632437D01*
X46011257Y-93593437D01*
X45946124Y-93555978D01*
X45889908Y-93517947D01*
X45839345Y-93477229D01*
X45815973Y-93455968D01*
X45770157Y-93408586D01*
X45736826Y-93363788D01*
X45713765Y-93318174D01*
X45701689Y-93280659D01*
X45697356Y-93261921D01*
X46128114Y-93261921D01*
X46135085Y-93298101D01*
X46150875Y-93330992D01*
X46177269Y-93364585D01*
X46206829Y-93394277D01*
X46258675Y-93435554D01*
X46324419Y-93475469D01*
X46402096Y-93513359D01*
X46489745Y-93548560D01*
X46585401Y-93580411D01*
X46687103Y-93608249D01*
X46792888Y-93631410D01*
X46900792Y-93649232D01*
X46992956Y-93659710D01*
X47052485Y-93664426D01*
X47101848Y-93666767D01*
X47146578Y-93666743D01*
X47192203Y-93664365D01*
X47239080Y-93660172D01*
X47372172Y-93640317D01*
X47503600Y-93608392D01*
X47632099Y-93565285D01*
X47756406Y-93511884D01*
X47875255Y-93449077D01*
X47987382Y-93377752D01*
X48091522Y-93298796D01*
X48186412Y-93213097D01*
X48270785Y-93121543D01*
X48343378Y-93025021D01*
X48402927Y-92924420D01*
X48448166Y-92820628D01*
X48452460Y-92808332D01*
X48472660Y-92741745D01*
X48485416Y-92680148D01*
X48491892Y-92616372D01*
X48493329Y-92556359D01*
X48485321Y-92450091D01*
X48461668Y-92346459D01*
X48436454Y-92277000D01*
X48421719Y-92242134D01*
X48411284Y-92219732D01*
X48403207Y-92207663D01*
X48395548Y-92203795D01*
X48386368Y-92205994D01*
X48376271Y-92210865D01*
X48358124Y-92217884D01*
X48329525Y-92226714D01*
X48295543Y-92235834D01*
X48281718Y-92239191D01*
X48132290Y-92274357D01*
X47997226Y-92306303D01*
X47875417Y-92335348D01*
X47765750Y-92361811D01*
X47667115Y-92386011D01*
X47578402Y-92408267D01*
X47498498Y-92428896D01*
X47426294Y-92448219D01*
X47360679Y-92466554D01*
X47300541Y-92484219D01*
X47244770Y-92501534D01*
X47192255Y-92518816D01*
X47141885Y-92536386D01*
X47092549Y-92554562D01*
X47043135Y-92573663D01*
X46992535Y-92594006D01*
X46939635Y-92615912D01*
X46883326Y-92639699D01*
X46877675Y-92642104D01*
X46743852Y-92700976D01*
X46625023Y-92757306D01*
X46520572Y-92811447D01*
X46429883Y-92863754D01*
X46352341Y-92914580D01*
X46287332Y-92964278D01*
X46237812Y-93009560D01*
X46192262Y-93060286D01*
X46159973Y-93107901D01*
X46139476Y-93155205D01*
X46129299Y-93205001D01*
X46128177Y-93218463D01*
X46128114Y-93261921D01*
X45697356Y-93261921D01*
X45695349Y-93253244D01*
X45692898Y-93231394D01*
X45694311Y-93208610D01*
X45699567Y-93178395D01*
X45701299Y-93169798D01*
X45719651Y-93106298D01*
X45749229Y-93037038D01*
X45788213Y-92965307D01*
X45834786Y-92894394D01*
X45887129Y-92827587D01*
X45896451Y-92816896D01*
X45947873Y-92766085D01*
X46013127Y-92713478D01*
X46090438Y-92660173D01*
X46178030Y-92607267D01*
X46274125Y-92555858D01*
X46376948Y-92507043D01*
X46445582Y-92477621D01*
X46513074Y-92450793D01*
X46582758Y-92425011D01*
X46655840Y-92399959D01*
X46733521Y-92375321D01*
X46817008Y-92350781D01*
X46907503Y-92326022D01*
X47006211Y-92300726D01*
X47114336Y-92274579D01*
X47233083Y-92247263D01*
X47363654Y-92218462D01*
X47507255Y-92187859D01*
X47665090Y-92155138D01*
X47698312Y-92148344D01*
X47806775Y-92126036D01*
X47907765Y-92104919D01*
X47999983Y-92085277D01*
X48082133Y-92067392D01*
X48152916Y-92051549D01*
X48211035Y-92038030D01*
X48255192Y-92027119D01*
X48264209Y-92024750D01*
X48294325Y-92016699D01*
X48268240Y-91983365D01*
X48245503Y-91956426D01*
X48213308Y-91921196D01*
X48173997Y-91880002D01*
X48129909Y-91835175D01*
X48083386Y-91789043D01*
X48036769Y-91743937D01*
X47992397Y-91702184D01*
X47952613Y-91666116D01*
X47928500Y-91645289D01*
X47743732Y-91500124D01*
X47545772Y-91363567D01*
X47334842Y-91235737D01*
X47111165Y-91116754D01*
X46874962Y-91006739D01*
X46626458Y-90905809D01*
X46408468Y-90828171D01*
X46344612Y-90807075D01*
X46283783Y-90787628D01*
X46223728Y-90769202D01*
X46162192Y-90751169D01*
X46096921Y-90732903D01*
X46025661Y-90713773D01*
X45946158Y-90693154D01*
X45856158Y-90670416D01*
X45753406Y-90644932D01*
X45729812Y-90639127D01*
X45620804Y-90612177D01*
X45524975Y-90588095D01*
X45440017Y-90566244D01*
X45363627Y-90545988D01*
X45293498Y-90526690D01*
X45227325Y-90507715D01*
X45162803Y-90488425D01*
X45097625Y-90468184D01*
X45029487Y-90446357D01*
X45018466Y-90442775D01*
X44964028Y-90425244D01*
X44908071Y-90407553D01*
X44854762Y-90390997D01*
X44808270Y-90376871D01*
X44773343Y-90366634D01*
X44676105Y-90337898D01*
X44593483Y-90310808D01*
X44524382Y-90284739D01*
X44467708Y-90259063D01*
X44422365Y-90233155D01*
X44387259Y-90206389D01*
X44361294Y-90178138D01*
X44343375Y-90147776D01*
X44332408Y-90114678D01*
X44332366Y-90114490D01*
X44329293Y-90074166D01*
X44340442Y-90039592D01*
X44360475Y-90013928D01*
X44390204Y-89990204D01*
X44433927Y-89963915D01*
X44490097Y-89935736D01*
X44557167Y-89906343D01*
X44633591Y-89876410D01*
X44717821Y-89846615D01*
X44808312Y-89817631D01*
X44813834Y-89815955D01*
X44871619Y-89798922D01*
X44942626Y-89778741D01*
X45024645Y-89755987D01*
X45115465Y-89731237D01*
X45212877Y-89705069D01*
X45314671Y-89678060D01*
X45418637Y-89650785D01*
X45522565Y-89623823D01*
X45624245Y-89597751D01*
X45721468Y-89573144D01*
X45812022Y-89550580D01*
X45893699Y-89530637D01*
X45964289Y-89513890D01*
X46015562Y-89502237D01*
X46236209Y-89456443D01*
X46446665Y-89418832D01*
X46650117Y-89389033D01*
X46849748Y-89366679D01*
X47048745Y-89351401D01*
X47250292Y-89342831D01*
X47412562Y-89340562D01*
X47646718Y-89340034D01*
X47765781Y-89405526D01*
G36*
X54541349Y-94073146D02*
G01*
X54581365Y-94093429D01*
X54644540Y-94126247D01*
X54728460Y-94170324D01*
X54830713Y-94224385D01*
X54948887Y-94287154D01*
X55080570Y-94357356D01*
X55223349Y-94433714D01*
X55374813Y-94514953D01*
X55387738Y-94521896D01*
X56243850Y-94981843D01*
X56425515Y-94810665D01*
X56503147Y-94737611D01*
X56586949Y-94658912D01*
X56667749Y-94583172D01*
X56736376Y-94518995D01*
X56747440Y-94508671D01*
X56887701Y-94377855D01*
X57122816Y-95021655D01*
X57172864Y-95158113D01*
X57220071Y-95285708D01*
X57263228Y-95401251D01*
X57301125Y-95501556D01*
X57332554Y-95583435D01*
X57356304Y-95643699D01*
X57371168Y-95679162D01*
X57375305Y-95687195D01*
X57390968Y-95700298D01*
X57430009Y-95730436D01*
X57490129Y-95775899D01*
X57569031Y-95834977D01*
X57664418Y-95905960D01*
X57773992Y-95987138D01*
X57895456Y-96076800D01*
X58026511Y-96173238D01*
X58155633Y-96267979D01*
X58293200Y-96368987D01*
X58422997Y-96464691D01*
X58542770Y-96553402D01*
X58650263Y-96633431D01*
X58743223Y-96703089D01*
X58819394Y-96760687D01*
X58876522Y-96804536D01*
X58912352Y-96832946D01*
X58924607Y-96844089D01*
X58923987Y-96863804D01*
X58919165Y-96910653D01*
X58910687Y-96980337D01*
X58899097Y-97068557D01*
X58884943Y-97171013D01*
X58869240Y-97280202D01*
X58807852Y-97699249D01*
X58766854Y-97699249D01*
X58741926Y-97693372D01*
X58691812Y-97676773D01*
X58620651Y-97650997D01*
X58532586Y-97617588D01*
X58431756Y-97578091D01*
X58322301Y-97534053D01*
X58302544Y-97525984D01*
X57879232Y-97352720D01*
X56866587Y-97732618D01*
X56695586Y-97796702D01*
X56533301Y-97857390D01*
X56382186Y-97913772D01*
X56244696Y-97964939D01*
X56123284Y-98009980D01*
X56020405Y-98047987D01*
X55938512Y-98078050D01*
X55880059Y-98099260D01*
X55847500Y-98110707D01*
X55841463Y-98112515D01*
X55831861Y-98098407D01*
X55822433Y-98062913D01*
X55819449Y-98044962D01*
X55814321Y-98007384D01*
X55805975Y-97944824D01*
X55795276Y-97863823D01*
X55783090Y-97770926D01*
X55771999Y-97685887D01*
X55759687Y-97593389D01*
X55748358Y-97512305D01*
X55738762Y-97447686D01*
X55731649Y-97404585D01*
X55727803Y-97388086D01*
X55711544Y-97383157D01*
X55667497Y-97371543D01*
X55598777Y-97354023D01*
X55508497Y-97331374D01*
X55399771Y-97304373D01*
X55275715Y-97273798D01*
X55139440Y-97240428D01*
X55023247Y-97212127D01*
X54879178Y-97176970D01*
X54744640Y-97143854D01*
X54622778Y-97113573D01*
X54516737Y-97086922D01*
X54429663Y-97064695D01*
X54364700Y-97047689D01*
X54324994Y-97036697D01*
X54313536Y-97032775D01*
X54321691Y-97019577D01*
X54349578Y-96985637D01*
X54395081Y-96933309D01*
X54456088Y-96864945D01*
X54530482Y-96782898D01*
X54616150Y-96689520D01*
X54710976Y-96587165D01*
X54792817Y-96499537D01*
X55283531Y-95975970D01*
X55254961Y-95903786D01*
X55243944Y-95876107D01*
X55222253Y-95821758D01*
X55191027Y-95743587D01*
X55151404Y-95644438D01*
X55104520Y-95527157D01*
X55051514Y-95394589D01*
X54993522Y-95249581D01*
X54931683Y-95094978D01*
X54874285Y-94951500D01*
X54811076Y-94793239D01*
X54751663Y-94643957D01*
X54697055Y-94506229D01*
X54648264Y-94382629D01*
X54606300Y-94275732D01*
X54572174Y-94188112D01*
X54546897Y-94122344D01*
X54531480Y-94081002D01*
X54526901Y-94066674D01*
X54541349Y-94073146D01*
G37*
X54541349Y-94073146D02*
X54581365Y-94093429D01*
X54644540Y-94126247D01*
X54728460Y-94170324D01*
X54830713Y-94224385D01*
X54948887Y-94287154D01*
X55080570Y-94357356D01*
X55223349Y-94433714D01*
X55374813Y-94514953D01*
X55387738Y-94521896D01*
X56243850Y-94981843D01*
X56425515Y-94810665D01*
X56503147Y-94737611D01*
X56586949Y-94658912D01*
X56667749Y-94583172D01*
X56736376Y-94518995D01*
X56747440Y-94508671D01*
X56887701Y-94377855D01*
X57122816Y-95021655D01*
X57172864Y-95158113D01*
X57220071Y-95285708D01*
X57263228Y-95401251D01*
X57301125Y-95501556D01*
X57332554Y-95583435D01*
X57356304Y-95643699D01*
X57371168Y-95679162D01*
X57375305Y-95687195D01*
X57390968Y-95700298D01*
X57430009Y-95730436D01*
X57490129Y-95775899D01*
X57569031Y-95834977D01*
X57664418Y-95905960D01*
X57773992Y-95987138D01*
X57895456Y-96076800D01*
X58026511Y-96173238D01*
X58155633Y-96267979D01*
X58293200Y-96368987D01*
X58422997Y-96464691D01*
X58542770Y-96553402D01*
X58650263Y-96633431D01*
X58743223Y-96703089D01*
X58819394Y-96760687D01*
X58876522Y-96804536D01*
X58912352Y-96832946D01*
X58924607Y-96844089D01*
X58923987Y-96863804D01*
X58919165Y-96910653D01*
X58910687Y-96980337D01*
X58899097Y-97068557D01*
X58884943Y-97171013D01*
X58869240Y-97280202D01*
X58807852Y-97699249D01*
X58766854Y-97699249D01*
X58741926Y-97693372D01*
X58691812Y-97676773D01*
X58620651Y-97650997D01*
X58532586Y-97617588D01*
X58431756Y-97578091D01*
X58322301Y-97534053D01*
X58302544Y-97525984D01*
X57879232Y-97352720D01*
X56866587Y-97732618D01*
X56695586Y-97796702D01*
X56533301Y-97857390D01*
X56382186Y-97913772D01*
X56244696Y-97964939D01*
X56123284Y-98009980D01*
X56020405Y-98047987D01*
X55938512Y-98078050D01*
X55880059Y-98099260D01*
X55847500Y-98110707D01*
X55841463Y-98112515D01*
X55831861Y-98098407D01*
X55822433Y-98062913D01*
X55819449Y-98044962D01*
X55814321Y-98007384D01*
X55805975Y-97944824D01*
X55795276Y-97863823D01*
X55783090Y-97770926D01*
X55771999Y-97685887D01*
X55759687Y-97593389D01*
X55748358Y-97512305D01*
X55738762Y-97447686D01*
X55731649Y-97404585D01*
X55727803Y-97388086D01*
X55711544Y-97383157D01*
X55667497Y-97371543D01*
X55598777Y-97354023D01*
X55508497Y-97331374D01*
X55399771Y-97304373D01*
X55275715Y-97273798D01*
X55139440Y-97240428D01*
X55023247Y-97212127D01*
X54879178Y-97176970D01*
X54744640Y-97143854D01*
X54622778Y-97113573D01*
X54516737Y-97086922D01*
X54429663Y-97064695D01*
X54364700Y-97047689D01*
X54324994Y-97036697D01*
X54313536Y-97032775D01*
X54321691Y-97019577D01*
X54349578Y-96985637D01*
X54395081Y-96933309D01*
X54456088Y-96864945D01*
X54530482Y-96782898D01*
X54616150Y-96689520D01*
X54710976Y-96587165D01*
X54792817Y-96499537D01*
X55283531Y-95975970D01*
X55254961Y-95903786D01*
X55243944Y-95876107D01*
X55222253Y-95821758D01*
X55191027Y-95743587D01*
X55151404Y-95644438D01*
X55104520Y-95527157D01*
X55051514Y-95394589D01*
X54993522Y-95249581D01*
X54931683Y-95094978D01*
X54874285Y-94951500D01*
X54811076Y-94793239D01*
X54751663Y-94643957D01*
X54697055Y-94506229D01*
X54648264Y-94382629D01*
X54606300Y-94275732D01*
X54572174Y-94188112D01*
X54546897Y-94122344D01*
X54531480Y-94081002D01*
X54526901Y-94066674D01*
X54541349Y-94073146D01*
D11*
G36*
X53517395Y-124875546D02*
G01*
X53690466Y-124947234D01*
X53690467Y-124947235D01*
X53846227Y-125051310D01*
X53978690Y-125183773D01*
X53978691Y-125183775D01*
X54082766Y-125339534D01*
X54154454Y-125512605D01*
X54191000Y-125696333D01*
X54191000Y-125883667D01*
X54154454Y-126067395D01*
X54082766Y-126240466D01*
X54082765Y-126240467D01*
X53978690Y-126396227D01*
X53846227Y-126528690D01*
X53767818Y-126581081D01*
X53690466Y-126632766D01*
X53517395Y-126704454D01*
X53333667Y-126741000D01*
X53146333Y-126741000D01*
X52962605Y-126704454D01*
X52789534Y-126632766D01*
X52712182Y-126581081D01*
X52633773Y-126528690D01*
X52501310Y-126396227D01*
X52397235Y-126240467D01*
X52397234Y-126240466D01*
X52325546Y-126067395D01*
X52289000Y-125883667D01*
X52289000Y-125696333D01*
X52325546Y-125512605D01*
X52397234Y-125339534D01*
X52501309Y-125183775D01*
X52501310Y-125183773D01*
X52633773Y-125051310D01*
X52789533Y-124947235D01*
X52789534Y-124947234D01*
X52962605Y-124875546D01*
X53146333Y-124839000D01*
X53333667Y-124839000D01*
X53517395Y-124875546D01*
G37*
G36*
X51651000Y-126741000D02*
G01*
X49749000Y-126741000D01*
X49749000Y-124839000D01*
X51651000Y-124839000D01*
X51651000Y-126741000D01*
G37*
G36*
X49739059Y-122477860D02*
G01*
X49875732Y-122534472D01*
X49998735Y-122616660D01*
X50103340Y-122721265D01*
X50185528Y-122844268D01*
X50242140Y-122980941D01*
X50271000Y-123126033D01*
X50271000Y-123273967D01*
X50242140Y-123419059D01*
X50185528Y-123555732D01*
X50103340Y-123678735D01*
X49998735Y-123783340D01*
X49875732Y-123865528D01*
X49875731Y-123865529D01*
X49875730Y-123865529D01*
X49739059Y-123922140D01*
X49593968Y-123951000D01*
X49446032Y-123951000D01*
X49300941Y-123922140D01*
X49164270Y-123865529D01*
X49164269Y-123865529D01*
X49164268Y-123865528D01*
X49041265Y-123783340D01*
X48936660Y-123678735D01*
X48854472Y-123555732D01*
X48797860Y-123419059D01*
X48769000Y-123273967D01*
X48769000Y-123126033D01*
X48797860Y-122980941D01*
X48854472Y-122844268D01*
X48936660Y-122721265D01*
X49041265Y-122616660D01*
X49164268Y-122534472D01*
X49300941Y-122477860D01*
X49446032Y-122449000D01*
X49593968Y-122449000D01*
X49739059Y-122477860D01*
G37*
G36*
X54819059Y-122477860D02*
G01*
X54955732Y-122534472D01*
X55078735Y-122616660D01*
X55183340Y-122721265D01*
X55265528Y-122844268D01*
X55322140Y-122980941D01*
X55351000Y-123126033D01*
X55351000Y-123273967D01*
X55322140Y-123419059D01*
X55265528Y-123555732D01*
X55183340Y-123678735D01*
X55078735Y-123783340D01*
X54955732Y-123865528D01*
X54955731Y-123865529D01*
X54955730Y-123865529D01*
X54819059Y-123922140D01*
X54673968Y-123951000D01*
X54526032Y-123951000D01*
X54380941Y-123922140D01*
X54244270Y-123865529D01*
X54244269Y-123865529D01*
X54244268Y-123865528D01*
X54121265Y-123783340D01*
X54016660Y-123678735D01*
X53934472Y-123555732D01*
X53877860Y-123419059D01*
X53849000Y-123273967D01*
X53849000Y-123126033D01*
X53877860Y-122980941D01*
X53934472Y-122844268D01*
X54016660Y-122721265D01*
X54121265Y-122616660D01*
X54244268Y-122534472D01*
X54380941Y-122477860D01*
X54526032Y-122449000D01*
X54673968Y-122449000D01*
X54819059Y-122477860D01*
G37*
G36*
X90705040Y-113807826D02*
G01*
X90950280Y-113882219D01*
X91176294Y-114003026D01*
X91227899Y-114045377D01*
X91374397Y-114165604D01*
X91494624Y-114312102D01*
X91536975Y-114363707D01*
X91657782Y-114589721D01*
X91732175Y-114834961D01*
X91751000Y-115026096D01*
X91751000Y-116153906D01*
X91732175Y-116345041D01*
X91657782Y-116590281D01*
X91536975Y-116816295D01*
X91374396Y-117014397D01*
X91176293Y-117176976D01*
X90950279Y-117297783D01*
X90705039Y-117372176D01*
X90450000Y-117397295D01*
X90194960Y-117372176D01*
X89949720Y-117297783D01*
X89949718Y-117297782D01*
X89723707Y-117176977D01*
X89525604Y-117014397D01*
X89363026Y-116816295D01*
X89363025Y-116816294D01*
X89242218Y-116590280D01*
X89167825Y-116345040D01*
X89149000Y-116153905D01*
X89149000Y-115026096D01*
X89167825Y-114834961D01*
X89242218Y-114589721D01*
X89242219Y-114589719D01*
X89363024Y-114363708D01*
X89525604Y-114165605D01*
X89636805Y-114074345D01*
X89723707Y-114003026D01*
X89949721Y-113882219D01*
X90194961Y-113807826D01*
X90450000Y-113782707D01*
X90705040Y-113807826D01*
G37*
G36*
X218205040Y-113807826D02*
G01*
X218450280Y-113882219D01*
X218676294Y-114003026D01*
X218727899Y-114045377D01*
X218874397Y-114165604D01*
X218994624Y-114312102D01*
X219036975Y-114363707D01*
X219157782Y-114589721D01*
X219232175Y-114834961D01*
X219251000Y-115026096D01*
X219251000Y-116153906D01*
X219232175Y-116345041D01*
X219157782Y-116590281D01*
X219036975Y-116816295D01*
X218874396Y-117014397D01*
X218676293Y-117176976D01*
X218450279Y-117297783D01*
X218205039Y-117372176D01*
X217950000Y-117397295D01*
X217694960Y-117372176D01*
X217449720Y-117297783D01*
X217449718Y-117297782D01*
X217223707Y-117176977D01*
X217025604Y-117014397D01*
X216863026Y-116816295D01*
X216863025Y-116816294D01*
X216742218Y-116590280D01*
X216667825Y-116345040D01*
X216649000Y-116153905D01*
X216649000Y-115026096D01*
X216667825Y-114834961D01*
X216742218Y-114589721D01*
X216742219Y-114589719D01*
X216863024Y-114363708D01*
X217025604Y-114165605D01*
X217136805Y-114074345D01*
X217223707Y-114003026D01*
X217449721Y-113882219D01*
X217694961Y-113807826D01*
X217950000Y-113782707D01*
X218205040Y-113807826D01*
G37*
G36*
X190705040Y-113807826D02*
G01*
X190950280Y-113882219D01*
X191176294Y-114003026D01*
X191227899Y-114045377D01*
X191374397Y-114165604D01*
X191494624Y-114312102D01*
X191536975Y-114363707D01*
X191657782Y-114589721D01*
X191732175Y-114834961D01*
X191751000Y-115026096D01*
X191751000Y-116153906D01*
X191732175Y-116345041D01*
X191657782Y-116590281D01*
X191536975Y-116816295D01*
X191374396Y-117014397D01*
X191176293Y-117176976D01*
X190950279Y-117297783D01*
X190705039Y-117372176D01*
X190450000Y-117397295D01*
X190194960Y-117372176D01*
X189949720Y-117297783D01*
X189949718Y-117297782D01*
X189723707Y-117176977D01*
X189525604Y-117014397D01*
X189363026Y-116816295D01*
X189363025Y-116816294D01*
X189242218Y-116590280D01*
X189167825Y-116345040D01*
X189149000Y-116153905D01*
X189149000Y-115026096D01*
X189167825Y-114834961D01*
X189242218Y-114589721D01*
X189242219Y-114589719D01*
X189363024Y-114363708D01*
X189525604Y-114165605D01*
X189636805Y-114074345D01*
X189723707Y-114003026D01*
X189949721Y-113882219D01*
X190194961Y-113807826D01*
X190450000Y-113782707D01*
X190705040Y-113807826D01*
G37*
G36*
X118205040Y-113807826D02*
G01*
X118450280Y-113882219D01*
X118676294Y-114003026D01*
X118727899Y-114045377D01*
X118874397Y-114165604D01*
X118994624Y-114312102D01*
X119036975Y-114363707D01*
X119157782Y-114589721D01*
X119232175Y-114834961D01*
X119251000Y-115026096D01*
X119251000Y-116153906D01*
X119232175Y-116345041D01*
X119157782Y-116590281D01*
X119036975Y-116816295D01*
X118874396Y-117014397D01*
X118676293Y-117176976D01*
X118450279Y-117297783D01*
X118205039Y-117372176D01*
X117950000Y-117397295D01*
X117694960Y-117372176D01*
X117449720Y-117297783D01*
X117449718Y-117297782D01*
X117223707Y-117176977D01*
X117025604Y-117014397D01*
X116863026Y-116816295D01*
X116863025Y-116816294D01*
X116742218Y-116590280D01*
X116667825Y-116345040D01*
X116649000Y-116153905D01*
X116649000Y-115026096D01*
X116667825Y-114834961D01*
X116742218Y-114589721D01*
X116742219Y-114589719D01*
X116863024Y-114363708D01*
X117025604Y-114165605D01*
X117136805Y-114074345D01*
X117223707Y-114003026D01*
X117449721Y-113882219D01*
X117694961Y-113807826D01*
X117950000Y-113782707D01*
X118205040Y-113807826D01*
G37*
G36*
X122205040Y-113807826D02*
G01*
X122450280Y-113882219D01*
X122676294Y-114003026D01*
X122727899Y-114045377D01*
X122874397Y-114165604D01*
X122994624Y-114312102D01*
X123036975Y-114363707D01*
X123157782Y-114589721D01*
X123232175Y-114834961D01*
X123251000Y-115026096D01*
X123251000Y-116153906D01*
X123232175Y-116345041D01*
X123157782Y-116590281D01*
X123036975Y-116816295D01*
X122874396Y-117014397D01*
X122676293Y-117176976D01*
X122450279Y-117297783D01*
X122205039Y-117372176D01*
X121950000Y-117397295D01*
X121694960Y-117372176D01*
X121449720Y-117297783D01*
X121449718Y-117297782D01*
X121223707Y-117176977D01*
X121025604Y-117014397D01*
X120863026Y-116816295D01*
X120863025Y-116816294D01*
X120742218Y-116590280D01*
X120667825Y-116345040D01*
X120649000Y-116153905D01*
X120649000Y-115026096D01*
X120667825Y-114834961D01*
X120742218Y-114589721D01*
X120742219Y-114589719D01*
X120863024Y-114363708D01*
X121025604Y-114165605D01*
X121136805Y-114074345D01*
X121223707Y-114003026D01*
X121449721Y-113882219D01*
X121694961Y-113807826D01*
X121950000Y-113782707D01*
X122205040Y-113807826D01*
G37*
G36*
X126205040Y-113807826D02*
G01*
X126450280Y-113882219D01*
X126676294Y-114003026D01*
X126727899Y-114045377D01*
X126874397Y-114165604D01*
X126994624Y-114312102D01*
X127036975Y-114363707D01*
X127157782Y-114589721D01*
X127232175Y-114834961D01*
X127251000Y-115026096D01*
X127251000Y-116153906D01*
X127232175Y-116345041D01*
X127157782Y-116590281D01*
X127036975Y-116816295D01*
X126874396Y-117014397D01*
X126676293Y-117176976D01*
X126450279Y-117297783D01*
X126205039Y-117372176D01*
X125950000Y-117397295D01*
X125694960Y-117372176D01*
X125449720Y-117297783D01*
X125449718Y-117297782D01*
X125223707Y-117176977D01*
X125025604Y-117014397D01*
X124863026Y-116816295D01*
X124863025Y-116816294D01*
X124742218Y-116590280D01*
X124667825Y-116345040D01*
X124649000Y-116153905D01*
X124649000Y-115026096D01*
X124667825Y-114834961D01*
X124742218Y-114589721D01*
X124742219Y-114589719D01*
X124863024Y-114363708D01*
X125025604Y-114165605D01*
X125136805Y-114074345D01*
X125223707Y-114003026D01*
X125449721Y-113882219D01*
X125694961Y-113807826D01*
X125950000Y-113782707D01*
X126205040Y-113807826D01*
G37*
G36*
X132705040Y-113807826D02*
G01*
X132950280Y-113882219D01*
X133176294Y-114003026D01*
X133227899Y-114045377D01*
X133374397Y-114165604D01*
X133494624Y-114312102D01*
X133536975Y-114363707D01*
X133657782Y-114589721D01*
X133732175Y-114834961D01*
X133751000Y-115026096D01*
X133751000Y-116153906D01*
X133732175Y-116345041D01*
X133657782Y-116590281D01*
X133536975Y-116816295D01*
X133374396Y-117014397D01*
X133176293Y-117176976D01*
X132950279Y-117297783D01*
X132705039Y-117372176D01*
X132450000Y-117397295D01*
X132194960Y-117372176D01*
X131949720Y-117297783D01*
X131949718Y-117297782D01*
X131723707Y-117176977D01*
X131525604Y-117014397D01*
X131363026Y-116816295D01*
X131363025Y-116816294D01*
X131242218Y-116590280D01*
X131167825Y-116345040D01*
X131149000Y-116153905D01*
X131149000Y-115026096D01*
X131167825Y-114834961D01*
X131242218Y-114589721D01*
X131242219Y-114589719D01*
X131363024Y-114363708D01*
X131525604Y-114165605D01*
X131636805Y-114074345D01*
X131723707Y-114003026D01*
X131949721Y-113882219D01*
X132194961Y-113807826D01*
X132450000Y-113782707D01*
X132705040Y-113807826D01*
G37*
G36*
X136705040Y-113807826D02*
G01*
X136950280Y-113882219D01*
X137176294Y-114003026D01*
X137227899Y-114045377D01*
X137374397Y-114165604D01*
X137494624Y-114312102D01*
X137536975Y-114363707D01*
X137657782Y-114589721D01*
X137732175Y-114834961D01*
X137751000Y-115026096D01*
X137751000Y-116153906D01*
X137732175Y-116345041D01*
X137657782Y-116590281D01*
X137536975Y-116816295D01*
X137374396Y-117014397D01*
X137176293Y-117176976D01*
X136950279Y-117297783D01*
X136705039Y-117372176D01*
X136450000Y-117397295D01*
X136194960Y-117372176D01*
X135949720Y-117297783D01*
X135949718Y-117297782D01*
X135723707Y-117176977D01*
X135525604Y-117014397D01*
X135363026Y-116816295D01*
X135363025Y-116816294D01*
X135242218Y-116590280D01*
X135167825Y-116345040D01*
X135149000Y-116153905D01*
X135149000Y-115026096D01*
X135167825Y-114834961D01*
X135242218Y-114589721D01*
X135242219Y-114589719D01*
X135363024Y-114363708D01*
X135525604Y-114165605D01*
X135636805Y-114074345D01*
X135723707Y-114003026D01*
X135949721Y-113882219D01*
X136194961Y-113807826D01*
X136450000Y-113782707D01*
X136705040Y-113807826D01*
G37*
G36*
X140705040Y-113807826D02*
G01*
X140950280Y-113882219D01*
X141176294Y-114003026D01*
X141227899Y-114045377D01*
X141374397Y-114165604D01*
X141494624Y-114312102D01*
X141536975Y-114363707D01*
X141657782Y-114589721D01*
X141732175Y-114834961D01*
X141751000Y-115026096D01*
X141751000Y-116153906D01*
X141732175Y-116345041D01*
X141657782Y-116590281D01*
X141536975Y-116816295D01*
X141374396Y-117014397D01*
X141176293Y-117176976D01*
X140950279Y-117297783D01*
X140705039Y-117372176D01*
X140450000Y-117397295D01*
X140194960Y-117372176D01*
X139949720Y-117297783D01*
X139949718Y-117297782D01*
X139723707Y-117176977D01*
X139525604Y-117014397D01*
X139363026Y-116816295D01*
X139363025Y-116816294D01*
X139242218Y-116590280D01*
X139167825Y-116345040D01*
X139149000Y-116153905D01*
X139149000Y-115026096D01*
X139167825Y-114834961D01*
X139242218Y-114589721D01*
X139242219Y-114589719D01*
X139363024Y-114363708D01*
X139525604Y-114165605D01*
X139636805Y-114074345D01*
X139723707Y-114003026D01*
X139949721Y-113882219D01*
X140194961Y-113807826D01*
X140450000Y-113782707D01*
X140705040Y-113807826D01*
G37*
G36*
X144705040Y-113807826D02*
G01*
X144950280Y-113882219D01*
X145176294Y-114003026D01*
X145227899Y-114045377D01*
X145374397Y-114165604D01*
X145494624Y-114312102D01*
X145536975Y-114363707D01*
X145657782Y-114589721D01*
X145732175Y-114834961D01*
X145751000Y-115026096D01*
X145751000Y-116153906D01*
X145732175Y-116345041D01*
X145657782Y-116590281D01*
X145536975Y-116816295D01*
X145374396Y-117014397D01*
X145176293Y-117176976D01*
X144950279Y-117297783D01*
X144705039Y-117372176D01*
X144450000Y-117397295D01*
X144194960Y-117372176D01*
X143949720Y-117297783D01*
X143949718Y-117297782D01*
X143723707Y-117176977D01*
X143525604Y-117014397D01*
X143363026Y-116816295D01*
X143363025Y-116816294D01*
X143242218Y-116590280D01*
X143167825Y-116345040D01*
X143149000Y-116153905D01*
X143149000Y-115026096D01*
X143167825Y-114834961D01*
X143242218Y-114589721D01*
X143242219Y-114589719D01*
X143363024Y-114363708D01*
X143525604Y-114165605D01*
X143636805Y-114074345D01*
X143723707Y-114003026D01*
X143949721Y-113882219D01*
X144194961Y-113807826D01*
X144450000Y-113782707D01*
X144705040Y-113807826D01*
G37*
G36*
X186705040Y-113807826D02*
G01*
X186950280Y-113882219D01*
X187176294Y-114003026D01*
X187227899Y-114045377D01*
X187374397Y-114165604D01*
X187494624Y-114312102D01*
X187536975Y-114363707D01*
X187657782Y-114589721D01*
X187732175Y-114834961D01*
X187751000Y-115026096D01*
X187751000Y-116153906D01*
X187732175Y-116345041D01*
X187657782Y-116590281D01*
X187536975Y-116816295D01*
X187374396Y-117014397D01*
X187176293Y-117176976D01*
X186950279Y-117297783D01*
X186705039Y-117372176D01*
X186450000Y-117397295D01*
X186194960Y-117372176D01*
X185949720Y-117297783D01*
X185949718Y-117297782D01*
X185723707Y-117176977D01*
X185525604Y-117014397D01*
X185363026Y-116816295D01*
X185363025Y-116816294D01*
X185242218Y-116590280D01*
X185167825Y-116345040D01*
X185149000Y-116153905D01*
X185149000Y-115026096D01*
X185167825Y-114834961D01*
X185242218Y-114589721D01*
X185242219Y-114589719D01*
X185363024Y-114363708D01*
X185525604Y-114165605D01*
X185636805Y-114074345D01*
X185723707Y-114003026D01*
X185949721Y-113882219D01*
X186194961Y-113807826D01*
X186450000Y-113782707D01*
X186705040Y-113807826D01*
G37*
G36*
X182705040Y-113807826D02*
G01*
X182950280Y-113882219D01*
X183176294Y-114003026D01*
X183227899Y-114045377D01*
X183374397Y-114165604D01*
X183494624Y-114312102D01*
X183536975Y-114363707D01*
X183657782Y-114589721D01*
X183732175Y-114834961D01*
X183751000Y-115026096D01*
X183751000Y-116153906D01*
X183732175Y-116345041D01*
X183657782Y-116590281D01*
X183536975Y-116816295D01*
X183374396Y-117014397D01*
X183176293Y-117176976D01*
X182950279Y-117297783D01*
X182705039Y-117372176D01*
X182450000Y-117397295D01*
X182194960Y-117372176D01*
X181949720Y-117297783D01*
X181949718Y-117297782D01*
X181723707Y-117176977D01*
X181525604Y-117014397D01*
X181363026Y-116816295D01*
X181363025Y-116816294D01*
X181242218Y-116590280D01*
X181167825Y-116345040D01*
X181149000Y-116153905D01*
X181149000Y-115026096D01*
X181167825Y-114834961D01*
X181242218Y-114589721D01*
X181242219Y-114589719D01*
X181363024Y-114363708D01*
X181525604Y-114165605D01*
X181636805Y-114074345D01*
X181723707Y-114003026D01*
X181949721Y-113882219D01*
X182194961Y-113807826D01*
X182450000Y-113782707D01*
X182705040Y-113807826D01*
G37*
G36*
X176205040Y-113807826D02*
G01*
X176450280Y-113882219D01*
X176676294Y-114003026D01*
X176727899Y-114045377D01*
X176874397Y-114165604D01*
X176994624Y-114312102D01*
X177036975Y-114363707D01*
X177157782Y-114589721D01*
X177232175Y-114834961D01*
X177251000Y-115026096D01*
X177251000Y-116153906D01*
X177232175Y-116345041D01*
X177157782Y-116590281D01*
X177036975Y-116816295D01*
X176874396Y-117014397D01*
X176676293Y-117176976D01*
X176450279Y-117297783D01*
X176205039Y-117372176D01*
X175950000Y-117397295D01*
X175694960Y-117372176D01*
X175449720Y-117297783D01*
X175449718Y-117297782D01*
X175223707Y-117176977D01*
X175025604Y-117014397D01*
X174863026Y-116816295D01*
X174863025Y-116816294D01*
X174742218Y-116590280D01*
X174667825Y-116345040D01*
X174649000Y-116153905D01*
X174649000Y-115026096D01*
X174667825Y-114834961D01*
X174742218Y-114589721D01*
X174742219Y-114589719D01*
X174863024Y-114363708D01*
X175025604Y-114165605D01*
X175136805Y-114074345D01*
X175223707Y-114003026D01*
X175449721Y-113882219D01*
X175694961Y-113807826D01*
X175950000Y-113782707D01*
X176205040Y-113807826D01*
G37*
G36*
X172205040Y-113807826D02*
G01*
X172450280Y-113882219D01*
X172676294Y-114003026D01*
X172727899Y-114045377D01*
X172874397Y-114165604D01*
X172994624Y-114312102D01*
X173036975Y-114363707D01*
X173157782Y-114589721D01*
X173232175Y-114834961D01*
X173251000Y-115026096D01*
X173251000Y-116153906D01*
X173232175Y-116345041D01*
X173157782Y-116590281D01*
X173036975Y-116816295D01*
X172874396Y-117014397D01*
X172676293Y-117176976D01*
X172450279Y-117297783D01*
X172205039Y-117372176D01*
X171950000Y-117397295D01*
X171694960Y-117372176D01*
X171449720Y-117297783D01*
X171449718Y-117297782D01*
X171223707Y-117176977D01*
X171025604Y-117014397D01*
X170863026Y-116816295D01*
X170863025Y-116816294D01*
X170742218Y-116590280D01*
X170667825Y-116345040D01*
X170649000Y-116153905D01*
X170649000Y-115026096D01*
X170667825Y-114834961D01*
X170742218Y-114589721D01*
X170742219Y-114589719D01*
X170863024Y-114363708D01*
X171025604Y-114165605D01*
X171136805Y-114074345D01*
X171223707Y-114003026D01*
X171449721Y-113882219D01*
X171694961Y-113807826D01*
X171950000Y-113782707D01*
X172205040Y-113807826D01*
G37*
G36*
X168205040Y-113807826D02*
G01*
X168450280Y-113882219D01*
X168676294Y-114003026D01*
X168727899Y-114045377D01*
X168874397Y-114165604D01*
X168994624Y-114312102D01*
X169036975Y-114363707D01*
X169157782Y-114589721D01*
X169232175Y-114834961D01*
X169251000Y-115026096D01*
X169251000Y-116153906D01*
X169232175Y-116345041D01*
X169157782Y-116590281D01*
X169036975Y-116816295D01*
X168874396Y-117014397D01*
X168676293Y-117176976D01*
X168450279Y-117297783D01*
X168205039Y-117372176D01*
X167950000Y-117397295D01*
X167694960Y-117372176D01*
X167449720Y-117297783D01*
X167449718Y-117297782D01*
X167223707Y-117176977D01*
X167025604Y-117014397D01*
X166863026Y-116816295D01*
X166863025Y-116816294D01*
X166742218Y-116590280D01*
X166667825Y-116345040D01*
X166649000Y-116153905D01*
X166649000Y-115026096D01*
X166667825Y-114834961D01*
X166742218Y-114589721D01*
X166742219Y-114589719D01*
X166863024Y-114363708D01*
X167025604Y-114165605D01*
X167136805Y-114074345D01*
X167223707Y-114003026D01*
X167449721Y-113882219D01*
X167694961Y-113807826D01*
X167950000Y-113782707D01*
X168205040Y-113807826D01*
G37*
G36*
X240705040Y-113807826D02*
G01*
X240950280Y-113882219D01*
X241176294Y-114003026D01*
X241227899Y-114045377D01*
X241374397Y-114165604D01*
X241494624Y-114312102D01*
X241536975Y-114363707D01*
X241657782Y-114589721D01*
X241732175Y-114834961D01*
X241751000Y-115026096D01*
X241751000Y-116153906D01*
X241732175Y-116345041D01*
X241657782Y-116590281D01*
X241536975Y-116816295D01*
X241374396Y-117014397D01*
X241176293Y-117176976D01*
X240950279Y-117297783D01*
X240705039Y-117372176D01*
X240450000Y-117397295D01*
X240194960Y-117372176D01*
X239949720Y-117297783D01*
X239949718Y-117297782D01*
X239723707Y-117176977D01*
X239525604Y-117014397D01*
X239363026Y-116816295D01*
X239363025Y-116816294D01*
X239242218Y-116590280D01*
X239167825Y-116345040D01*
X239149000Y-116153905D01*
X239149000Y-115026096D01*
X239167825Y-114834961D01*
X239242218Y-114589721D01*
X239242219Y-114589719D01*
X239363024Y-114363708D01*
X239525604Y-114165605D01*
X239636805Y-114074345D01*
X239723707Y-114003026D01*
X239949721Y-113882219D01*
X240194961Y-113807826D01*
X240450000Y-113782707D01*
X240705040Y-113807826D01*
G37*
G36*
X222205040Y-113807826D02*
G01*
X222450280Y-113882219D01*
X222676294Y-114003026D01*
X222727899Y-114045377D01*
X222874397Y-114165604D01*
X222994624Y-114312102D01*
X223036975Y-114363707D01*
X223157782Y-114589721D01*
X223232175Y-114834961D01*
X223251000Y-115026096D01*
X223251000Y-116153906D01*
X223232175Y-116345041D01*
X223157782Y-116590281D01*
X223036975Y-116816295D01*
X222874396Y-117014397D01*
X222676293Y-117176976D01*
X222450279Y-117297783D01*
X222205039Y-117372176D01*
X221950000Y-117397295D01*
X221694960Y-117372176D01*
X221449720Y-117297783D01*
X221449718Y-117297782D01*
X221223707Y-117176977D01*
X221025604Y-117014397D01*
X220863026Y-116816295D01*
X220863025Y-116816294D01*
X220742218Y-116590280D01*
X220667825Y-116345040D01*
X220649000Y-116153905D01*
X220649000Y-115026096D01*
X220667825Y-114834961D01*
X220742218Y-114589721D01*
X220742219Y-114589719D01*
X220863024Y-114363708D01*
X221025604Y-114165605D01*
X221136805Y-114074345D01*
X221223707Y-114003026D01*
X221449721Y-113882219D01*
X221694961Y-113807826D01*
X221950000Y-113782707D01*
X222205040Y-113807826D01*
G37*
G36*
X226205040Y-113807826D02*
G01*
X226450280Y-113882219D01*
X226676294Y-114003026D01*
X226727899Y-114045377D01*
X226874397Y-114165604D01*
X226994624Y-114312102D01*
X227036975Y-114363707D01*
X227157782Y-114589721D01*
X227232175Y-114834961D01*
X227251000Y-115026096D01*
X227251000Y-116153906D01*
X227232175Y-116345041D01*
X227157782Y-116590281D01*
X227036975Y-116816295D01*
X226874396Y-117014397D01*
X226676293Y-117176976D01*
X226450279Y-117297783D01*
X226205039Y-117372176D01*
X225950000Y-117397295D01*
X225694960Y-117372176D01*
X225449720Y-117297783D01*
X225449718Y-117297782D01*
X225223707Y-117176977D01*
X225025604Y-117014397D01*
X224863026Y-116816295D01*
X224863025Y-116816294D01*
X224742218Y-116590280D01*
X224667825Y-116345040D01*
X224649000Y-116153905D01*
X224649000Y-115026096D01*
X224667825Y-114834961D01*
X224742218Y-114589721D01*
X224742219Y-114589719D01*
X224863024Y-114363708D01*
X225025604Y-114165605D01*
X225136805Y-114074345D01*
X225223707Y-114003026D01*
X225449721Y-113882219D01*
X225694961Y-113807826D01*
X225950000Y-113782707D01*
X226205040Y-113807826D01*
G37*
G36*
X232705040Y-113807826D02*
G01*
X232950280Y-113882219D01*
X233176294Y-114003026D01*
X233227899Y-114045377D01*
X233374397Y-114165604D01*
X233494624Y-114312102D01*
X233536975Y-114363707D01*
X233657782Y-114589721D01*
X233732175Y-114834961D01*
X233751000Y-115026096D01*
X233751000Y-116153906D01*
X233732175Y-116345041D01*
X233657782Y-116590281D01*
X233536975Y-116816295D01*
X233374396Y-117014397D01*
X233176293Y-117176976D01*
X232950279Y-117297783D01*
X232705039Y-117372176D01*
X232450000Y-117397295D01*
X232194960Y-117372176D01*
X231949720Y-117297783D01*
X231949718Y-117297782D01*
X231723707Y-117176977D01*
X231525604Y-117014397D01*
X231363026Y-116816295D01*
X231363025Y-116816294D01*
X231242218Y-116590280D01*
X231167825Y-116345040D01*
X231149000Y-116153905D01*
X231149000Y-115026096D01*
X231167825Y-114834961D01*
X231242218Y-114589721D01*
X231242219Y-114589719D01*
X231363024Y-114363708D01*
X231525604Y-114165605D01*
X231636805Y-114074345D01*
X231723707Y-114003026D01*
X231949721Y-113882219D01*
X232194961Y-113807826D01*
X232450000Y-113782707D01*
X232705040Y-113807826D01*
G37*
G36*
X236705040Y-113807826D02*
G01*
X236950280Y-113882219D01*
X237176294Y-114003026D01*
X237227899Y-114045377D01*
X237374397Y-114165604D01*
X237494624Y-114312102D01*
X237536975Y-114363707D01*
X237657782Y-114589721D01*
X237732175Y-114834961D01*
X237751000Y-115026096D01*
X237751000Y-116153906D01*
X237732175Y-116345041D01*
X237657782Y-116590281D01*
X237536975Y-116816295D01*
X237374396Y-117014397D01*
X237176293Y-117176976D01*
X236950279Y-117297783D01*
X236705039Y-117372176D01*
X236450000Y-117397295D01*
X236194960Y-117372176D01*
X235949720Y-117297783D01*
X235949718Y-117297782D01*
X235723707Y-117176977D01*
X235525604Y-117014397D01*
X235363026Y-116816295D01*
X235363025Y-116816294D01*
X235242218Y-116590280D01*
X235167825Y-116345040D01*
X235149000Y-116153905D01*
X235149000Y-115026096D01*
X235167825Y-114834961D01*
X235242218Y-114589721D01*
X235242219Y-114589719D01*
X235363024Y-114363708D01*
X235525604Y-114165605D01*
X235636805Y-114074345D01*
X235723707Y-114003026D01*
X235949721Y-113882219D01*
X236194961Y-113807826D01*
X236450000Y-113782707D01*
X236705040Y-113807826D01*
G37*
G36*
X194705040Y-113807826D02*
G01*
X194950280Y-113882219D01*
X195176294Y-114003026D01*
X195227899Y-114045377D01*
X195374397Y-114165604D01*
X195494624Y-114312102D01*
X195536975Y-114363707D01*
X195657782Y-114589721D01*
X195732175Y-114834961D01*
X195751000Y-115026096D01*
X195751000Y-116153906D01*
X195732175Y-116345041D01*
X195657782Y-116590281D01*
X195536975Y-116816295D01*
X195374396Y-117014397D01*
X195176293Y-117176976D01*
X194950279Y-117297783D01*
X194705039Y-117372176D01*
X194450000Y-117397295D01*
X194194960Y-117372176D01*
X193949720Y-117297783D01*
X193949718Y-117297782D01*
X193723707Y-117176977D01*
X193525604Y-117014397D01*
X193363026Y-116816295D01*
X193363025Y-116816294D01*
X193242218Y-116590280D01*
X193167825Y-116345040D01*
X193149000Y-116153905D01*
X193149000Y-115026096D01*
X193167825Y-114834961D01*
X193242218Y-114589721D01*
X193242219Y-114589719D01*
X193363024Y-114363708D01*
X193525604Y-114165605D01*
X193636805Y-114074345D01*
X193723707Y-114003026D01*
X193949721Y-113882219D01*
X194194961Y-113807826D01*
X194450000Y-113782707D01*
X194705040Y-113807826D01*
G37*
G36*
X244705040Y-113807826D02*
G01*
X244950280Y-113882219D01*
X245176294Y-114003026D01*
X245227899Y-114045377D01*
X245374397Y-114165604D01*
X245494624Y-114312102D01*
X245536975Y-114363707D01*
X245657782Y-114589721D01*
X245732175Y-114834961D01*
X245751000Y-115026096D01*
X245751000Y-116153906D01*
X245732175Y-116345041D01*
X245657782Y-116590281D01*
X245536975Y-116816295D01*
X245374396Y-117014397D01*
X245176293Y-117176976D01*
X244950279Y-117297783D01*
X244705039Y-117372176D01*
X244450000Y-117397295D01*
X244194960Y-117372176D01*
X243949720Y-117297783D01*
X243949718Y-117297782D01*
X243723707Y-117176977D01*
X243525604Y-117014397D01*
X243363026Y-116816295D01*
X243363025Y-116816294D01*
X243242218Y-116590280D01*
X243167825Y-116345040D01*
X243149000Y-116153905D01*
X243149000Y-115026096D01*
X243167825Y-114834961D01*
X243242218Y-114589721D01*
X243242219Y-114589719D01*
X243363024Y-114363708D01*
X243525604Y-114165605D01*
X243636805Y-114074345D01*
X243723707Y-114003026D01*
X243949721Y-113882219D01*
X244194961Y-113807826D01*
X244450000Y-113782707D01*
X244705040Y-113807826D01*
G37*
G36*
X68205040Y-113807826D02*
G01*
X68450280Y-113882219D01*
X68676294Y-114003026D01*
X68727899Y-114045377D01*
X68874397Y-114165604D01*
X68994624Y-114312102D01*
X69036975Y-114363707D01*
X69157782Y-114589721D01*
X69232175Y-114834961D01*
X69251000Y-115026096D01*
X69251000Y-116153906D01*
X69232175Y-116345041D01*
X69157782Y-116590281D01*
X69036975Y-116816295D01*
X68874396Y-117014397D01*
X68676293Y-117176976D01*
X68450279Y-117297783D01*
X68205039Y-117372176D01*
X67950000Y-117397295D01*
X67694960Y-117372176D01*
X67449720Y-117297783D01*
X67449718Y-117297782D01*
X67223707Y-117176977D01*
X67025604Y-117014397D01*
X66863026Y-116816295D01*
X66863025Y-116816294D01*
X66742218Y-116590280D01*
X66667825Y-116345040D01*
X66649000Y-116153905D01*
X66649000Y-115026096D01*
X66667825Y-114834961D01*
X66742218Y-114589721D01*
X66742219Y-114589719D01*
X66863024Y-114363708D01*
X67025604Y-114165605D01*
X67136805Y-114074345D01*
X67223707Y-114003026D01*
X67449721Y-113882219D01*
X67694961Y-113807826D01*
X67950000Y-113782707D01*
X68205040Y-113807826D01*
G37*
G36*
X72205040Y-113807826D02*
G01*
X72450280Y-113882219D01*
X72676294Y-114003026D01*
X72727899Y-114045377D01*
X72874397Y-114165604D01*
X72994624Y-114312102D01*
X73036975Y-114363707D01*
X73157782Y-114589721D01*
X73232175Y-114834961D01*
X73251000Y-115026096D01*
X73251000Y-116153906D01*
X73232175Y-116345041D01*
X73157782Y-116590281D01*
X73036975Y-116816295D01*
X72874396Y-117014397D01*
X72676293Y-117176976D01*
X72450279Y-117297783D01*
X72205039Y-117372176D01*
X71950000Y-117397295D01*
X71694960Y-117372176D01*
X71449720Y-117297783D01*
X71449718Y-117297782D01*
X71223707Y-117176977D01*
X71025604Y-117014397D01*
X70863026Y-116816295D01*
X70863025Y-116816294D01*
X70742218Y-116590280D01*
X70667825Y-116345040D01*
X70649000Y-116153905D01*
X70649000Y-115026096D01*
X70667825Y-114834961D01*
X70742218Y-114589721D01*
X70742219Y-114589719D01*
X70863024Y-114363708D01*
X71025604Y-114165605D01*
X71136805Y-114074345D01*
X71223707Y-114003026D01*
X71449721Y-113882219D01*
X71694961Y-113807826D01*
X71950000Y-113782707D01*
X72205040Y-113807826D01*
G37*
G36*
X76205040Y-113807826D02*
G01*
X76450280Y-113882219D01*
X76676294Y-114003026D01*
X76727899Y-114045377D01*
X76874397Y-114165604D01*
X76994624Y-114312102D01*
X77036975Y-114363707D01*
X77157782Y-114589721D01*
X77232175Y-114834961D01*
X77251000Y-115026096D01*
X77251000Y-116153906D01*
X77232175Y-116345041D01*
X77157782Y-116590281D01*
X77036975Y-116816295D01*
X76874396Y-117014397D01*
X76676293Y-117176976D01*
X76450279Y-117297783D01*
X76205039Y-117372176D01*
X75950000Y-117397295D01*
X75694960Y-117372176D01*
X75449720Y-117297783D01*
X75449718Y-117297782D01*
X75223707Y-117176977D01*
X75025604Y-117014397D01*
X74863026Y-116816295D01*
X74863025Y-116816294D01*
X74742218Y-116590280D01*
X74667825Y-116345040D01*
X74649000Y-116153905D01*
X74649000Y-115026096D01*
X74667825Y-114834961D01*
X74742218Y-114589721D01*
X74742219Y-114589719D01*
X74863024Y-114363708D01*
X75025604Y-114165605D01*
X75136805Y-114074345D01*
X75223707Y-114003026D01*
X75449721Y-113882219D01*
X75694961Y-113807826D01*
X75950000Y-113782707D01*
X76205040Y-113807826D01*
G37*
G36*
X82705040Y-113807826D02*
G01*
X82950280Y-113882219D01*
X83176294Y-114003026D01*
X83227899Y-114045377D01*
X83374397Y-114165604D01*
X83494624Y-114312102D01*
X83536975Y-114363707D01*
X83657782Y-114589721D01*
X83732175Y-114834961D01*
X83751000Y-115026096D01*
X83751000Y-116153906D01*
X83732175Y-116345041D01*
X83657782Y-116590281D01*
X83536975Y-116816295D01*
X83374396Y-117014397D01*
X83176293Y-117176976D01*
X82950279Y-117297783D01*
X82705039Y-117372176D01*
X82450000Y-117397295D01*
X82194960Y-117372176D01*
X81949720Y-117297783D01*
X81949718Y-117297782D01*
X81723707Y-117176977D01*
X81525604Y-117014397D01*
X81363026Y-116816295D01*
X81363025Y-116816294D01*
X81242218Y-116590280D01*
X81167825Y-116345040D01*
X81149000Y-116153905D01*
X81149000Y-115026096D01*
X81167825Y-114834961D01*
X81242218Y-114589721D01*
X81242219Y-114589719D01*
X81363024Y-114363708D01*
X81525604Y-114165605D01*
X81636805Y-114074345D01*
X81723707Y-114003026D01*
X81949721Y-113882219D01*
X82194961Y-113807826D01*
X82450000Y-113782707D01*
X82705040Y-113807826D01*
G37*
G36*
X86705040Y-113807826D02*
G01*
X86950280Y-113882219D01*
X87176294Y-114003026D01*
X87227899Y-114045377D01*
X87374397Y-114165604D01*
X87494624Y-114312102D01*
X87536975Y-114363707D01*
X87657782Y-114589721D01*
X87732175Y-114834961D01*
X87751000Y-115026096D01*
X87751000Y-116153906D01*
X87732175Y-116345041D01*
X87657782Y-116590281D01*
X87536975Y-116816295D01*
X87374396Y-117014397D01*
X87176293Y-117176976D01*
X86950279Y-117297783D01*
X86705039Y-117372176D01*
X86450000Y-117397295D01*
X86194960Y-117372176D01*
X85949720Y-117297783D01*
X85949718Y-117297782D01*
X85723707Y-117176977D01*
X85525604Y-117014397D01*
X85363026Y-116816295D01*
X85363025Y-116816294D01*
X85242218Y-116590280D01*
X85167825Y-116345040D01*
X85149000Y-116153905D01*
X85149000Y-115026096D01*
X85167825Y-114834961D01*
X85242218Y-114589721D01*
X85242219Y-114589719D01*
X85363024Y-114363708D01*
X85525604Y-114165605D01*
X85636805Y-114074345D01*
X85723707Y-114003026D01*
X85949721Y-113882219D01*
X86194961Y-113807826D01*
X86450000Y-113782707D01*
X86705040Y-113807826D01*
G37*
G36*
X94705040Y-113807826D02*
G01*
X94950280Y-113882219D01*
X95176294Y-114003026D01*
X95227899Y-114045377D01*
X95374397Y-114165604D01*
X95494624Y-114312102D01*
X95536975Y-114363707D01*
X95657782Y-114589721D01*
X95732175Y-114834961D01*
X95751000Y-115026096D01*
X95751000Y-116153906D01*
X95732175Y-116345041D01*
X95657782Y-116590281D01*
X95536975Y-116816295D01*
X95374396Y-117014397D01*
X95176293Y-117176976D01*
X94950279Y-117297783D01*
X94705039Y-117372176D01*
X94450000Y-117397295D01*
X94194960Y-117372176D01*
X93949720Y-117297783D01*
X93949718Y-117297782D01*
X93723707Y-117176977D01*
X93525604Y-117014397D01*
X93363026Y-116816295D01*
X93363025Y-116816294D01*
X93242218Y-116590280D01*
X93167825Y-116345040D01*
X93149000Y-116153905D01*
X93149000Y-115026096D01*
X93167825Y-114834961D01*
X93242218Y-114589721D01*
X93242219Y-114589719D01*
X93363024Y-114363708D01*
X93525604Y-114165605D01*
X93636805Y-114074345D01*
X93723707Y-114003026D01*
X93949721Y-113882219D01*
X94194961Y-113807826D01*
X94450000Y-113782707D01*
X94705040Y-113807826D01*
G37*
G36*
X202248228Y-114881703D02*
G01*
X202403100Y-114945853D01*
X202542481Y-115038985D01*
X202661015Y-115157519D01*
X202754147Y-115296900D01*
X202818297Y-115451772D01*
X202851000Y-115616184D01*
X202851000Y-115783816D01*
X202818297Y-115948228D01*
X202754147Y-116103100D01*
X202661015Y-116242481D01*
X202542481Y-116361015D01*
X202403100Y-116454147D01*
X202248228Y-116518297D01*
X202083816Y-116551000D01*
X201916184Y-116551000D01*
X201751772Y-116518297D01*
X201596900Y-116454147D01*
X201457519Y-116361015D01*
X201338985Y-116242481D01*
X201245853Y-116103100D01*
X201181703Y-115948228D01*
X201149000Y-115783816D01*
X201149000Y-115616184D01*
X201181703Y-115451772D01*
X201245853Y-115296900D01*
X201338985Y-115157519D01*
X201457519Y-115038985D01*
X201596900Y-114945853D01*
X201751772Y-114881703D01*
X201916184Y-114849000D01*
X202083816Y-114849000D01*
X202248228Y-114881703D01*
G37*
G36*
X149848228Y-114881703D02*
G01*
X150003100Y-114945853D01*
X150142481Y-115038985D01*
X150261015Y-115157519D01*
X150354147Y-115296900D01*
X150418297Y-115451772D01*
X150451000Y-115616184D01*
X150451000Y-115783816D01*
X150418297Y-115948228D01*
X150354147Y-116103100D01*
X150261015Y-116242481D01*
X150142481Y-116361015D01*
X150003100Y-116454147D01*
X149848228Y-116518297D01*
X149683816Y-116551000D01*
X149516184Y-116551000D01*
X149351772Y-116518297D01*
X149196900Y-116454147D01*
X149057519Y-116361015D01*
X148938985Y-116242481D01*
X148845853Y-116103100D01*
X148781703Y-115948228D01*
X148749000Y-115783816D01*
X148749000Y-115616184D01*
X148781703Y-115451772D01*
X148845853Y-115296900D01*
X148938985Y-115157519D01*
X149057519Y-115038985D01*
X149196900Y-114945853D01*
X149351772Y-114881703D01*
X149516184Y-114849000D01*
X149683816Y-114849000D01*
X149848228Y-114881703D01*
G37*
G36*
X252148228Y-114881703D02*
G01*
X252303100Y-114945853D01*
X252442481Y-115038985D01*
X252561015Y-115157519D01*
X252654147Y-115296900D01*
X252718297Y-115451772D01*
X252751000Y-115616184D01*
X252751000Y-115783816D01*
X252718297Y-115948228D01*
X252654147Y-116103100D01*
X252561015Y-116242481D01*
X252442481Y-116361015D01*
X252303100Y-116454147D01*
X252148228Y-116518297D01*
X251983816Y-116551000D01*
X251816184Y-116551000D01*
X251651772Y-116518297D01*
X251496900Y-116454147D01*
X251357519Y-116361015D01*
X251238985Y-116242481D01*
X251145853Y-116103100D01*
X251081703Y-115948228D01*
X251049000Y-115783816D01*
X251049000Y-115616184D01*
X251081703Y-115451772D01*
X251145853Y-115296900D01*
X251238985Y-115157519D01*
X251357519Y-115038985D01*
X251496900Y-114945853D01*
X251651772Y-114881703D01*
X251816184Y-114849000D01*
X251983816Y-114849000D01*
X252148228Y-114881703D01*
G37*
G36*
X249648228Y-114881703D02*
G01*
X249803100Y-114945853D01*
X249942481Y-115038985D01*
X250061015Y-115157519D01*
X250154147Y-115296900D01*
X250218297Y-115451772D01*
X250251000Y-115616184D01*
X250251000Y-115783816D01*
X250218297Y-115948228D01*
X250154147Y-116103100D01*
X250061015Y-116242481D01*
X249942481Y-116361015D01*
X249803100Y-116454147D01*
X249648228Y-116518297D01*
X249483816Y-116551000D01*
X249316184Y-116551000D01*
X249151772Y-116518297D01*
X248996900Y-116454147D01*
X248857519Y-116361015D01*
X248738985Y-116242481D01*
X248645853Y-116103100D01*
X248581703Y-115948228D01*
X248549000Y-115783816D01*
X248549000Y-115616184D01*
X248581703Y-115451772D01*
X248645853Y-115296900D01*
X248738985Y-115157519D01*
X248857519Y-115038985D01*
X248996900Y-114945853D01*
X249151772Y-114881703D01*
X249316184Y-114849000D01*
X249483816Y-114849000D01*
X249648228Y-114881703D01*
G37*
G36*
X99948228Y-114881703D02*
G01*
X100103100Y-114945853D01*
X100242481Y-115038985D01*
X100361015Y-115157519D01*
X100454147Y-115296900D01*
X100518297Y-115451772D01*
X100551000Y-115616184D01*
X100551000Y-115783816D01*
X100518297Y-115948228D01*
X100454147Y-116103100D01*
X100361015Y-116242481D01*
X100242481Y-116361015D01*
X100103100Y-116454147D01*
X99948228Y-116518297D01*
X99783816Y-116551000D01*
X99616184Y-116551000D01*
X99451772Y-116518297D01*
X99296900Y-116454147D01*
X99157519Y-116361015D01*
X99038985Y-116242481D01*
X98945853Y-116103100D01*
X98881703Y-115948228D01*
X98849000Y-115783816D01*
X98849000Y-115616184D01*
X98881703Y-115451772D01*
X98945853Y-115296900D01*
X99038985Y-115157519D01*
X99157519Y-115038985D01*
X99296900Y-114945853D01*
X99451772Y-114881703D01*
X99616184Y-114849000D01*
X99783816Y-114849000D01*
X99948228Y-114881703D01*
G37*
G36*
X152348228Y-114881703D02*
G01*
X152503100Y-114945853D01*
X152642481Y-115038985D01*
X152761015Y-115157519D01*
X152854147Y-115296900D01*
X152918297Y-115451772D01*
X152951000Y-115616184D01*
X152951000Y-115783816D01*
X152918297Y-115948228D01*
X152854147Y-116103100D01*
X152761015Y-116242481D01*
X152642481Y-116361015D01*
X152503100Y-116454147D01*
X152348228Y-116518297D01*
X152183816Y-116551000D01*
X152016184Y-116551000D01*
X151851772Y-116518297D01*
X151696900Y-116454147D01*
X151557519Y-116361015D01*
X151438985Y-116242481D01*
X151345853Y-116103100D01*
X151281703Y-115948228D01*
X151249000Y-115783816D01*
X151249000Y-115616184D01*
X151281703Y-115451772D01*
X151345853Y-115296900D01*
X151438985Y-115157519D01*
X151557519Y-115038985D01*
X151696900Y-114945853D01*
X151851772Y-114881703D01*
X152016184Y-114849000D01*
X152183816Y-114849000D01*
X152348228Y-114881703D01*
G37*
G36*
X199748228Y-114881703D02*
G01*
X199903100Y-114945853D01*
X200042481Y-115038985D01*
X200161015Y-115157519D01*
X200254147Y-115296900D01*
X200318297Y-115451772D01*
X200351000Y-115616184D01*
X200351000Y-115783816D01*
X200318297Y-115948228D01*
X200254147Y-116103100D01*
X200161015Y-116242481D01*
X200042481Y-116361015D01*
X199903100Y-116454147D01*
X199748228Y-116518297D01*
X199583816Y-116551000D01*
X199416184Y-116551000D01*
X199251772Y-116518297D01*
X199096900Y-116454147D01*
X198957519Y-116361015D01*
X198838985Y-116242481D01*
X198745853Y-116103100D01*
X198681703Y-115948228D01*
X198649000Y-115783816D01*
X198649000Y-115616184D01*
X198681703Y-115451772D01*
X198745853Y-115296900D01*
X198838985Y-115157519D01*
X198957519Y-115038985D01*
X199096900Y-114945853D01*
X199251772Y-114881703D01*
X199416184Y-114849000D01*
X199583816Y-114849000D01*
X199748228Y-114881703D01*
G37*
G36*
X102448228Y-114881703D02*
G01*
X102603100Y-114945853D01*
X102742481Y-115038985D01*
X102861015Y-115157519D01*
X102954147Y-115296900D01*
X103018297Y-115451772D01*
X103051000Y-115616184D01*
X103051000Y-115783816D01*
X103018297Y-115948228D01*
X102954147Y-116103100D01*
X102861015Y-116242481D01*
X102742481Y-116361015D01*
X102603100Y-116454147D01*
X102448228Y-116518297D01*
X102283816Y-116551000D01*
X102116184Y-116551000D01*
X101951772Y-116518297D01*
X101796900Y-116454147D01*
X101657519Y-116361015D01*
X101538985Y-116242481D01*
X101445853Y-116103100D01*
X101381703Y-115948228D01*
X101349000Y-115783816D01*
X101349000Y-115616184D01*
X101381703Y-115451772D01*
X101445853Y-115296900D01*
X101538985Y-115157519D01*
X101657519Y-115038985D01*
X101796900Y-114945853D01*
X101951772Y-114881703D01*
X102116184Y-114849000D01*
X102283816Y-114849000D01*
X102448228Y-114881703D01*
G37*
G36*
X182719487Y-110673967D02*
G01*
X182739059Y-110677860D01*
X182875732Y-110734472D01*
X182998735Y-110816660D01*
X183103340Y-110921265D01*
X183185528Y-111044268D01*
X183242140Y-111180941D01*
X183271000Y-111326033D01*
X183271000Y-111473967D01*
X183242140Y-111619059D01*
X183185528Y-111755732D01*
X183103340Y-111878735D01*
X182998735Y-111983340D01*
X182875732Y-112065528D01*
X182875731Y-112065529D01*
X182875730Y-112065529D01*
X182739059Y-112122140D01*
X182593968Y-112151000D01*
X182446032Y-112151000D01*
X182300941Y-112122140D01*
X182164270Y-112065529D01*
X182164269Y-112065529D01*
X182164268Y-112065528D01*
X182041265Y-111983340D01*
X181936660Y-111878735D01*
X181854472Y-111755732D01*
X181797860Y-111619059D01*
X181769000Y-111473967D01*
X181769000Y-111326033D01*
X181797860Y-111180941D01*
X181854472Y-111044268D01*
X181936660Y-110921265D01*
X182041265Y-110816660D01*
X182164268Y-110734472D01*
X182300941Y-110677860D01*
X182320513Y-110673967D01*
X182446032Y-110649000D01*
X182593968Y-110649000D01*
X182719487Y-110673967D01*
G37*
G36*
X187799487Y-110673967D02*
G01*
X187819059Y-110677860D01*
X187955732Y-110734472D01*
X188078735Y-110816660D01*
X188183340Y-110921265D01*
X188265528Y-111044268D01*
X188322140Y-111180941D01*
X188351000Y-111326033D01*
X188351000Y-111473967D01*
X188322140Y-111619059D01*
X188265528Y-111755732D01*
X188183340Y-111878735D01*
X188078735Y-111983340D01*
X187955732Y-112065528D01*
X187955731Y-112065529D01*
X187955730Y-112065529D01*
X187819059Y-112122140D01*
X187673968Y-112151000D01*
X187526032Y-112151000D01*
X187380941Y-112122140D01*
X187244270Y-112065529D01*
X187244269Y-112065529D01*
X187244268Y-112065528D01*
X187121265Y-111983340D01*
X187016660Y-111878735D01*
X186934472Y-111755732D01*
X186877860Y-111619059D01*
X186849000Y-111473967D01*
X186849000Y-111326033D01*
X186877860Y-111180941D01*
X186934472Y-111044268D01*
X187016660Y-110921265D01*
X187121265Y-110816660D01*
X187244268Y-110734472D01*
X187380941Y-110677860D01*
X187400513Y-110673967D01*
X187526032Y-110649000D01*
X187673968Y-110649000D01*
X187799487Y-110673967D01*
G37*
G36*
X232739059Y-109877860D02*
G01*
X232875732Y-109934472D01*
X232998735Y-110016660D01*
X233103340Y-110121265D01*
X233185528Y-110244268D01*
X233242140Y-110380941D01*
X233271000Y-110526033D01*
X233271000Y-110673967D01*
X233242140Y-110819059D01*
X233185528Y-110955732D01*
X233103340Y-111078735D01*
X232998735Y-111183340D01*
X232875732Y-111265528D01*
X232875731Y-111265529D01*
X232875730Y-111265529D01*
X232739059Y-111322140D01*
X232593968Y-111351000D01*
X232446032Y-111351000D01*
X232300941Y-111322140D01*
X232164270Y-111265529D01*
X232164269Y-111265529D01*
X232164268Y-111265528D01*
X232041265Y-111183340D01*
X231936660Y-111078735D01*
X231854472Y-110955732D01*
X231797860Y-110819059D01*
X231769000Y-110673967D01*
X231769000Y-110526033D01*
X231797860Y-110380941D01*
X231854472Y-110244268D01*
X231936660Y-110121265D01*
X232041265Y-110016660D01*
X232164268Y-109934472D01*
X232300941Y-109877860D01*
X232446032Y-109849000D01*
X232593968Y-109849000D01*
X232739059Y-109877860D01*
G37*
G36*
X237819059Y-109877860D02*
G01*
X237955732Y-109934472D01*
X238078735Y-110016660D01*
X238183340Y-110121265D01*
X238265528Y-110244268D01*
X238322140Y-110380941D01*
X238351000Y-110526033D01*
X238351000Y-110673967D01*
X238322140Y-110819059D01*
X238265528Y-110955732D01*
X238183340Y-111078735D01*
X238078735Y-111183340D01*
X237955732Y-111265528D01*
X237955731Y-111265529D01*
X237955730Y-111265529D01*
X237819059Y-111322140D01*
X237673968Y-111351000D01*
X237526032Y-111351000D01*
X237380941Y-111322140D01*
X237244270Y-111265529D01*
X237244269Y-111265529D01*
X237244268Y-111265528D01*
X237121265Y-111183340D01*
X237016660Y-111078735D01*
X236934472Y-110955732D01*
X236877860Y-110819059D01*
X236849000Y-110673967D01*
X236849000Y-110526033D01*
X236877860Y-110380941D01*
X236934472Y-110244268D01*
X237016660Y-110121265D01*
X237121265Y-110016660D01*
X237244268Y-109934472D01*
X237380941Y-109877860D01*
X237526032Y-109849000D01*
X237673968Y-109849000D01*
X237819059Y-109877860D01*
G37*
G36*
X207406822Y-105111313D02*
G01*
X207567241Y-105159976D01*
X207715077Y-105238995D01*
X207808104Y-105315341D01*
X207844659Y-105345341D01*
X207951004Y-105474922D01*
X207951005Y-105474924D01*
X208030024Y-105622758D01*
X208078687Y-105783177D01*
X208091000Y-105908196D01*
X208091000Y-106791803D01*
X208078687Y-106916822D01*
X208030024Y-107077242D01*
X207967040Y-107195076D01*
X207951004Y-107225078D01*
X207844659Y-107354659D01*
X207715078Y-107461004D01*
X207715076Y-107461005D01*
X207567242Y-107540024D01*
X207406823Y-107588687D01*
X207240000Y-107605117D01*
X207073178Y-107588687D01*
X206912759Y-107540024D01*
X206764925Y-107461005D01*
X206764923Y-107461004D01*
X206635342Y-107354659D01*
X206528997Y-107225078D01*
X206512961Y-107195076D01*
X206449977Y-107077242D01*
X206401314Y-106916823D01*
X206389000Y-106791803D01*
X206389000Y-105908197D01*
X206401313Y-105783178D01*
X206449976Y-105622759D01*
X206528995Y-105474923D01*
X206635341Y-105345341D01*
X206671896Y-105315341D01*
X206764922Y-105238996D01*
X206821050Y-105208995D01*
X206912758Y-105159976D01*
X207073177Y-105111313D01*
X207240000Y-105094883D01*
X207406822Y-105111313D01*
G37*
G36*
X101706822Y-105111313D02*
G01*
X101867241Y-105159976D01*
X102015077Y-105238995D01*
X102108104Y-105315341D01*
X102144659Y-105345341D01*
X102251004Y-105474922D01*
X102251005Y-105474924D01*
X102330024Y-105622758D01*
X102378687Y-105783177D01*
X102391000Y-105908196D01*
X102391000Y-106791803D01*
X102378687Y-106916822D01*
X102330024Y-107077242D01*
X102267040Y-107195076D01*
X102251004Y-107225078D01*
X102144659Y-107354659D01*
X102015078Y-107461004D01*
X102015076Y-107461005D01*
X101867242Y-107540024D01*
X101706823Y-107588687D01*
X101540000Y-107605117D01*
X101373178Y-107588687D01*
X101212759Y-107540024D01*
X101064925Y-107461005D01*
X101064923Y-107461004D01*
X100935342Y-107354659D01*
X100828997Y-107225078D01*
X100812961Y-107195076D01*
X100749977Y-107077242D01*
X100701314Y-106916823D01*
X100689000Y-106791803D01*
X100689000Y-105908197D01*
X100701313Y-105783178D01*
X100749976Y-105622759D01*
X100828995Y-105474923D01*
X100935341Y-105345341D01*
X100971896Y-105315341D01*
X101064922Y-105238996D01*
X101121050Y-105208995D01*
X101212758Y-105159976D01*
X101373177Y-105111313D01*
X101540000Y-105094883D01*
X101706822Y-105111313D01*
G37*
G36*
X227726822Y-105111313D02*
G01*
X227887241Y-105159976D01*
X228035077Y-105238995D01*
X228128104Y-105315341D01*
X228164659Y-105345341D01*
X228271004Y-105474922D01*
X228271005Y-105474924D01*
X228350024Y-105622758D01*
X228398687Y-105783177D01*
X228411000Y-105908196D01*
X228411000Y-106791803D01*
X228398687Y-106916822D01*
X228350024Y-107077242D01*
X228287040Y-107195076D01*
X228271004Y-107225078D01*
X228164659Y-107354659D01*
X228035078Y-107461004D01*
X228035076Y-107461005D01*
X227887242Y-107540024D01*
X227726823Y-107588687D01*
X227560000Y-107605117D01*
X227393178Y-107588687D01*
X227232759Y-107540024D01*
X227084925Y-107461005D01*
X227084923Y-107461004D01*
X226955342Y-107354659D01*
X226848997Y-107225078D01*
X226832961Y-107195076D01*
X226769977Y-107077242D01*
X226721314Y-106916823D01*
X226709000Y-106791803D01*
X226709000Y-105908197D01*
X226721313Y-105783178D01*
X226769976Y-105622759D01*
X226848995Y-105474923D01*
X226955341Y-105345341D01*
X226991896Y-105315341D01*
X227084922Y-105238996D01*
X227141050Y-105208995D01*
X227232758Y-105159976D01*
X227393177Y-105111313D01*
X227560000Y-105094883D01*
X227726822Y-105111313D01*
G37*
G36*
X225186822Y-105111313D02*
G01*
X225347241Y-105159976D01*
X225495077Y-105238995D01*
X225588104Y-105315341D01*
X225624659Y-105345341D01*
X225731004Y-105474922D01*
X225731005Y-105474924D01*
X225810024Y-105622758D01*
X225858687Y-105783177D01*
X225871000Y-105908196D01*
X225871000Y-106791803D01*
X225858687Y-106916822D01*
X225810024Y-107077242D01*
X225747040Y-107195076D01*
X225731004Y-107225078D01*
X225624659Y-107354659D01*
X225495078Y-107461004D01*
X225495076Y-107461005D01*
X225347242Y-107540024D01*
X225186823Y-107588687D01*
X225020000Y-107605117D01*
X224853178Y-107588687D01*
X224692759Y-107540024D01*
X224544925Y-107461005D01*
X224544923Y-107461004D01*
X224415342Y-107354659D01*
X224308997Y-107225078D01*
X224292961Y-107195076D01*
X224229977Y-107077242D01*
X224181314Y-106916823D01*
X224169000Y-106791803D01*
X224169000Y-105908197D01*
X224181313Y-105783178D01*
X224229976Y-105622759D01*
X224308995Y-105474923D01*
X224415341Y-105345341D01*
X224451896Y-105315341D01*
X224544922Y-105238996D01*
X224601050Y-105208995D01*
X224692758Y-105159976D01*
X224853177Y-105111313D01*
X225020000Y-105094883D01*
X225186822Y-105111313D01*
G37*
G36*
X222646822Y-105111313D02*
G01*
X222807241Y-105159976D01*
X222955077Y-105238995D01*
X223048104Y-105315341D01*
X223084659Y-105345341D01*
X223191004Y-105474922D01*
X223191005Y-105474924D01*
X223270024Y-105622758D01*
X223318687Y-105783177D01*
X223331000Y-105908196D01*
X223331000Y-106791803D01*
X223318687Y-106916822D01*
X223270024Y-107077242D01*
X223207040Y-107195076D01*
X223191004Y-107225078D01*
X223084659Y-107354659D01*
X222955078Y-107461004D01*
X222955076Y-107461005D01*
X222807242Y-107540024D01*
X222646823Y-107588687D01*
X222480000Y-107605117D01*
X222313178Y-107588687D01*
X222152759Y-107540024D01*
X222004925Y-107461005D01*
X222004923Y-107461004D01*
X221875342Y-107354659D01*
X221768997Y-107225078D01*
X221752961Y-107195076D01*
X221689977Y-107077242D01*
X221641314Y-106916823D01*
X221629000Y-106791803D01*
X221629000Y-105908197D01*
X221641313Y-105783178D01*
X221689976Y-105622759D01*
X221768995Y-105474923D01*
X221875341Y-105345341D01*
X221911896Y-105315341D01*
X222004922Y-105238996D01*
X222061050Y-105208995D01*
X222152758Y-105159976D01*
X222313177Y-105111313D01*
X222480000Y-105094883D01*
X222646822Y-105111313D01*
G37*
G36*
X220106822Y-105111313D02*
G01*
X220267241Y-105159976D01*
X220415077Y-105238995D01*
X220508104Y-105315341D01*
X220544659Y-105345341D01*
X220651004Y-105474922D01*
X220651005Y-105474924D01*
X220730024Y-105622758D01*
X220778687Y-105783177D01*
X220791000Y-105908196D01*
X220791000Y-106791803D01*
X220778687Y-106916822D01*
X220730024Y-107077242D01*
X220667040Y-107195076D01*
X220651004Y-107225078D01*
X220544659Y-107354659D01*
X220415078Y-107461004D01*
X220415076Y-107461005D01*
X220267242Y-107540024D01*
X220106823Y-107588687D01*
X219940000Y-107605117D01*
X219773178Y-107588687D01*
X219612759Y-107540024D01*
X219464925Y-107461005D01*
X219464923Y-107461004D01*
X219335342Y-107354659D01*
X219228997Y-107225078D01*
X219212961Y-107195076D01*
X219149977Y-107077242D01*
X219101314Y-106916823D01*
X219089000Y-106791803D01*
X219089000Y-105908197D01*
X219101313Y-105783178D01*
X219149976Y-105622759D01*
X219228995Y-105474923D01*
X219335341Y-105345341D01*
X219371896Y-105315341D01*
X219464922Y-105238996D01*
X219521050Y-105208995D01*
X219612758Y-105159976D01*
X219773177Y-105111313D01*
X219940000Y-105094883D01*
X220106822Y-105111313D01*
G37*
G36*
X217566822Y-105111313D02*
G01*
X217727241Y-105159976D01*
X217875077Y-105238995D01*
X217968104Y-105315341D01*
X218004659Y-105345341D01*
X218111004Y-105474922D01*
X218111005Y-105474924D01*
X218190024Y-105622758D01*
X218238687Y-105783177D01*
X218251000Y-105908196D01*
X218251000Y-106791803D01*
X218238687Y-106916822D01*
X218190024Y-107077242D01*
X218127040Y-107195076D01*
X218111004Y-107225078D01*
X218004659Y-107354659D01*
X217875078Y-107461004D01*
X217875076Y-107461005D01*
X217727242Y-107540024D01*
X217566823Y-107588687D01*
X217400000Y-107605117D01*
X217233178Y-107588687D01*
X217072759Y-107540024D01*
X216924925Y-107461005D01*
X216924923Y-107461004D01*
X216795342Y-107354659D01*
X216688997Y-107225078D01*
X216672961Y-107195076D01*
X216609977Y-107077242D01*
X216561314Y-106916823D01*
X216549000Y-106791803D01*
X216549000Y-105908197D01*
X216561313Y-105783178D01*
X216609976Y-105622759D01*
X216688995Y-105474923D01*
X216795341Y-105345341D01*
X216831896Y-105315341D01*
X216924922Y-105238996D01*
X216981050Y-105208995D01*
X217072758Y-105159976D01*
X217233177Y-105111313D01*
X217400000Y-105094883D01*
X217566822Y-105111313D01*
G37*
G36*
X215026822Y-105111313D02*
G01*
X215187241Y-105159976D01*
X215335077Y-105238995D01*
X215428104Y-105315341D01*
X215464659Y-105345341D01*
X215571004Y-105474922D01*
X215571005Y-105474924D01*
X215650024Y-105622758D01*
X215698687Y-105783177D01*
X215711000Y-105908196D01*
X215711000Y-106791803D01*
X215698687Y-106916822D01*
X215650024Y-107077242D01*
X215587040Y-107195076D01*
X215571004Y-107225078D01*
X215464659Y-107354659D01*
X215335078Y-107461004D01*
X215335076Y-107461005D01*
X215187242Y-107540024D01*
X215026823Y-107588687D01*
X214860000Y-107605117D01*
X214693178Y-107588687D01*
X214532759Y-107540024D01*
X214384925Y-107461005D01*
X214384923Y-107461004D01*
X214255342Y-107354659D01*
X214148997Y-107225078D01*
X214132961Y-107195076D01*
X214069977Y-107077242D01*
X214021314Y-106916823D01*
X214009000Y-106791803D01*
X214009000Y-105908197D01*
X214021313Y-105783178D01*
X214069976Y-105622759D01*
X214148995Y-105474923D01*
X214255341Y-105345341D01*
X214291896Y-105315341D01*
X214384922Y-105238996D01*
X214441050Y-105208995D01*
X214532758Y-105159976D01*
X214693177Y-105111313D01*
X214860000Y-105094883D01*
X215026822Y-105111313D01*
G37*
G36*
X212486822Y-105111313D02*
G01*
X212647241Y-105159976D01*
X212795077Y-105238995D01*
X212888104Y-105315341D01*
X212924659Y-105345341D01*
X213031004Y-105474922D01*
X213031005Y-105474924D01*
X213110024Y-105622758D01*
X213158687Y-105783177D01*
X213171000Y-105908196D01*
X213171000Y-106791803D01*
X213158687Y-106916822D01*
X213110024Y-107077242D01*
X213047040Y-107195076D01*
X213031004Y-107225078D01*
X212924659Y-107354659D01*
X212795078Y-107461004D01*
X212795076Y-107461005D01*
X212647242Y-107540024D01*
X212486823Y-107588687D01*
X212320000Y-107605117D01*
X212153178Y-107588687D01*
X211992759Y-107540024D01*
X211844925Y-107461005D01*
X211844923Y-107461004D01*
X211715342Y-107354659D01*
X211608997Y-107225078D01*
X211592961Y-107195076D01*
X211529977Y-107077242D01*
X211481314Y-106916823D01*
X211469000Y-106791803D01*
X211469000Y-105908197D01*
X211481313Y-105783178D01*
X211529976Y-105622759D01*
X211608995Y-105474923D01*
X211715341Y-105345341D01*
X211751896Y-105315341D01*
X211844922Y-105238996D01*
X211901050Y-105208995D01*
X211992758Y-105159976D01*
X212153177Y-105111313D01*
X212320000Y-105094883D01*
X212486822Y-105111313D01*
G37*
G36*
X209946822Y-105111313D02*
G01*
X210107241Y-105159976D01*
X210255077Y-105238995D01*
X210348104Y-105315341D01*
X210384659Y-105345341D01*
X210491004Y-105474922D01*
X210491005Y-105474924D01*
X210570024Y-105622758D01*
X210618687Y-105783177D01*
X210631000Y-105908196D01*
X210631000Y-106791803D01*
X210618687Y-106916822D01*
X210570024Y-107077242D01*
X210507040Y-107195076D01*
X210491004Y-107225078D01*
X210384659Y-107354659D01*
X210255078Y-107461004D01*
X210255076Y-107461005D01*
X210107242Y-107540024D01*
X209946823Y-107588687D01*
X209780000Y-107605117D01*
X209613178Y-107588687D01*
X209452759Y-107540024D01*
X209304925Y-107461005D01*
X209304923Y-107461004D01*
X209175342Y-107354659D01*
X209068997Y-107225078D01*
X209052961Y-107195076D01*
X208989977Y-107077242D01*
X208941314Y-106916823D01*
X208929000Y-106791803D01*
X208929000Y-105908197D01*
X208941313Y-105783178D01*
X208989976Y-105622759D01*
X209068995Y-105474923D01*
X209175341Y-105345341D01*
X209211896Y-105315341D01*
X209304922Y-105238996D01*
X209361050Y-105208995D01*
X209452758Y-105159976D01*
X209613177Y-105111313D01*
X209780000Y-105094883D01*
X209946822Y-105111313D01*
G37*
G36*
X106786822Y-105111313D02*
G01*
X106947241Y-105159976D01*
X107095077Y-105238995D01*
X107188104Y-105315341D01*
X107224659Y-105345341D01*
X107331004Y-105474922D01*
X107331005Y-105474924D01*
X107410024Y-105622758D01*
X107458687Y-105783177D01*
X107471000Y-105908196D01*
X107471000Y-106791803D01*
X107458687Y-106916822D01*
X107410024Y-107077242D01*
X107347040Y-107195076D01*
X107331004Y-107225078D01*
X107224659Y-107354659D01*
X107095078Y-107461004D01*
X107095076Y-107461005D01*
X106947242Y-107540024D01*
X106786823Y-107588687D01*
X106620000Y-107605117D01*
X106453178Y-107588687D01*
X106292759Y-107540024D01*
X106144925Y-107461005D01*
X106144923Y-107461004D01*
X106015342Y-107354659D01*
X105908997Y-107225078D01*
X105892961Y-107195076D01*
X105829977Y-107077242D01*
X105781314Y-106916823D01*
X105769000Y-106791803D01*
X105769000Y-105908197D01*
X105781313Y-105783178D01*
X105829976Y-105622759D01*
X105908995Y-105474923D01*
X106015341Y-105345341D01*
X106051896Y-105315341D01*
X106144922Y-105238996D01*
X106201050Y-105208995D01*
X106292758Y-105159976D01*
X106453177Y-105111313D01*
X106620000Y-105094883D01*
X106786822Y-105111313D01*
G37*
G36*
X109326822Y-105111313D02*
G01*
X109487241Y-105159976D01*
X109635077Y-105238995D01*
X109728104Y-105315341D01*
X109764659Y-105345341D01*
X109871004Y-105474922D01*
X109871005Y-105474924D01*
X109950024Y-105622758D01*
X109998687Y-105783177D01*
X110011000Y-105908196D01*
X110011000Y-106791803D01*
X109998687Y-106916822D01*
X109950024Y-107077242D01*
X109887040Y-107195076D01*
X109871004Y-107225078D01*
X109764659Y-107354659D01*
X109635078Y-107461004D01*
X109635076Y-107461005D01*
X109487242Y-107540024D01*
X109326823Y-107588687D01*
X109160000Y-107605117D01*
X108993178Y-107588687D01*
X108832759Y-107540024D01*
X108684925Y-107461005D01*
X108684923Y-107461004D01*
X108555342Y-107354659D01*
X108448997Y-107225078D01*
X108432961Y-107195076D01*
X108369977Y-107077242D01*
X108321314Y-106916823D01*
X108309000Y-106791803D01*
X108309000Y-105908197D01*
X108321313Y-105783178D01*
X108369976Y-105622759D01*
X108448995Y-105474923D01*
X108555341Y-105345341D01*
X108591896Y-105315341D01*
X108684922Y-105238996D01*
X108741050Y-105208995D01*
X108832758Y-105159976D01*
X108993177Y-105111313D01*
X109160000Y-105094883D01*
X109326822Y-105111313D01*
G37*
G36*
X111866822Y-105111313D02*
G01*
X112027241Y-105159976D01*
X112175077Y-105238995D01*
X112268104Y-105315341D01*
X112304659Y-105345341D01*
X112411004Y-105474922D01*
X112411005Y-105474924D01*
X112490024Y-105622758D01*
X112538687Y-105783177D01*
X112551000Y-105908196D01*
X112551000Y-106791803D01*
X112538687Y-106916822D01*
X112490024Y-107077242D01*
X112427040Y-107195076D01*
X112411004Y-107225078D01*
X112304659Y-107354659D01*
X112175078Y-107461004D01*
X112175076Y-107461005D01*
X112027242Y-107540024D01*
X111866823Y-107588687D01*
X111700000Y-107605117D01*
X111533178Y-107588687D01*
X111372759Y-107540024D01*
X111224925Y-107461005D01*
X111224923Y-107461004D01*
X111095342Y-107354659D01*
X110988997Y-107225078D01*
X110972961Y-107195076D01*
X110909977Y-107077242D01*
X110861314Y-106916823D01*
X110849000Y-106791803D01*
X110849000Y-105908197D01*
X110861313Y-105783178D01*
X110909976Y-105622759D01*
X110988995Y-105474923D01*
X111095341Y-105345341D01*
X111131896Y-105315341D01*
X111224922Y-105238996D01*
X111281050Y-105208995D01*
X111372758Y-105159976D01*
X111533177Y-105111313D01*
X111700000Y-105094883D01*
X111866822Y-105111313D01*
G37*
G36*
X114406822Y-105111313D02*
G01*
X114567241Y-105159976D01*
X114715077Y-105238995D01*
X114808104Y-105315341D01*
X114844659Y-105345341D01*
X114951004Y-105474922D01*
X114951005Y-105474924D01*
X115030024Y-105622758D01*
X115078687Y-105783177D01*
X115091000Y-105908196D01*
X115091000Y-106791803D01*
X115078687Y-106916822D01*
X115030024Y-107077242D01*
X114967040Y-107195076D01*
X114951004Y-107225078D01*
X114844659Y-107354659D01*
X114715078Y-107461004D01*
X114715076Y-107461005D01*
X114567242Y-107540024D01*
X114406823Y-107588687D01*
X114240000Y-107605117D01*
X114073178Y-107588687D01*
X113912759Y-107540024D01*
X113764925Y-107461005D01*
X113764923Y-107461004D01*
X113635342Y-107354659D01*
X113528997Y-107225078D01*
X113512961Y-107195076D01*
X113449977Y-107077242D01*
X113401314Y-106916823D01*
X113389000Y-106791803D01*
X113389000Y-105908197D01*
X113401313Y-105783178D01*
X113449976Y-105622759D01*
X113528995Y-105474923D01*
X113635341Y-105345341D01*
X113671896Y-105315341D01*
X113764922Y-105238996D01*
X113821050Y-105208995D01*
X113912758Y-105159976D01*
X114073177Y-105111313D01*
X114240000Y-105094883D01*
X114406822Y-105111313D01*
G37*
G36*
X116946822Y-105111313D02*
G01*
X117107241Y-105159976D01*
X117255077Y-105238995D01*
X117348104Y-105315341D01*
X117384659Y-105345341D01*
X117491004Y-105474922D01*
X117491005Y-105474924D01*
X117570024Y-105622758D01*
X117618687Y-105783177D01*
X117631000Y-105908196D01*
X117631000Y-106791803D01*
X117618687Y-106916822D01*
X117570024Y-107077242D01*
X117507040Y-107195076D01*
X117491004Y-107225078D01*
X117384659Y-107354659D01*
X117255078Y-107461004D01*
X117255076Y-107461005D01*
X117107242Y-107540024D01*
X116946823Y-107588687D01*
X116780000Y-107605117D01*
X116613178Y-107588687D01*
X116452759Y-107540024D01*
X116304925Y-107461005D01*
X116304923Y-107461004D01*
X116175342Y-107354659D01*
X116068997Y-107225078D01*
X116052961Y-107195076D01*
X115989977Y-107077242D01*
X115941314Y-106916823D01*
X115929000Y-106791803D01*
X115929000Y-105908197D01*
X115941313Y-105783178D01*
X115989976Y-105622759D01*
X116068995Y-105474923D01*
X116175341Y-105345341D01*
X116211896Y-105315341D01*
X116304922Y-105238996D01*
X116361050Y-105208995D01*
X116452758Y-105159976D01*
X116613177Y-105111313D01*
X116780000Y-105094883D01*
X116946822Y-105111313D01*
G37*
G36*
X104246822Y-105111313D02*
G01*
X104407241Y-105159976D01*
X104555077Y-105238995D01*
X104648104Y-105315341D01*
X104684659Y-105345341D01*
X104791004Y-105474922D01*
X104791005Y-105474924D01*
X104870024Y-105622758D01*
X104918687Y-105783177D01*
X104931000Y-105908196D01*
X104931000Y-106791803D01*
X104918687Y-106916822D01*
X104870024Y-107077242D01*
X104807040Y-107195076D01*
X104791004Y-107225078D01*
X104684659Y-107354659D01*
X104555078Y-107461004D01*
X104555076Y-107461005D01*
X104407242Y-107540024D01*
X104246823Y-107588687D01*
X104080000Y-107605117D01*
X103913178Y-107588687D01*
X103752759Y-107540024D01*
X103604925Y-107461005D01*
X103604923Y-107461004D01*
X103475342Y-107354659D01*
X103368997Y-107225078D01*
X103352961Y-107195076D01*
X103289977Y-107077242D01*
X103241314Y-106916823D01*
X103229000Y-106791803D01*
X103229000Y-105908197D01*
X103241313Y-105783178D01*
X103289976Y-105622759D01*
X103368995Y-105474923D01*
X103475341Y-105345341D01*
X103511896Y-105315341D01*
X103604922Y-105238996D01*
X103661050Y-105208995D01*
X103752758Y-105159976D01*
X103913177Y-105111313D01*
X104080000Y-105094883D01*
X104246822Y-105111313D01*
G37*
G36*
X99851000Y-107601000D02*
G01*
X98149000Y-107601000D01*
X98149000Y-105099000D01*
X99851000Y-105099000D01*
X99851000Y-107601000D01*
G37*
G36*
X205551000Y-107601000D02*
G01*
X203849000Y-107601000D01*
X203849000Y-105099000D01*
X205551000Y-105099000D01*
X205551000Y-107601000D01*
G37*
G36*
X163626823Y-105081313D02*
G01*
X163787242Y-105129976D01*
X163919906Y-105200886D01*
X163935078Y-105208996D01*
X164064659Y-105315341D01*
X164171004Y-105444922D01*
X164171005Y-105444924D01*
X164250024Y-105592758D01*
X164298687Y-105753178D01*
X164311000Y-105878197D01*
X164311000Y-106761804D01*
X164298687Y-106886823D01*
X164250024Y-107047242D01*
X164179114Y-107179906D01*
X164171004Y-107195078D01*
X164146385Y-107225076D01*
X164064659Y-107324659D01*
X163935077Y-107431005D01*
X163787241Y-107510024D01*
X163626822Y-107558687D01*
X163460000Y-107575117D01*
X163293177Y-107558687D01*
X163132758Y-107510024D01*
X162984924Y-107431005D01*
X162984922Y-107431004D01*
X162855341Y-107324659D01*
X162748995Y-107195077D01*
X162669976Y-107047241D01*
X162621313Y-106886822D01*
X162609000Y-106761803D01*
X162609000Y-105878197D01*
X162621314Y-105753177D01*
X162669977Y-105592758D01*
X162748996Y-105444924D01*
X162748997Y-105444922D01*
X162855342Y-105315341D01*
X162984923Y-105208996D01*
X163000095Y-105200886D01*
X163132759Y-105129976D01*
X163293178Y-105081313D01*
X163460000Y-105064883D01*
X163626823Y-105081313D01*
G37*
G36*
X150926823Y-105081313D02*
G01*
X151087242Y-105129976D01*
X151219906Y-105200886D01*
X151235078Y-105208996D01*
X151364659Y-105315341D01*
X151471004Y-105444922D01*
X151471005Y-105444924D01*
X151550024Y-105592758D01*
X151598687Y-105753178D01*
X151611000Y-105878197D01*
X151611000Y-106761804D01*
X151598687Y-106886823D01*
X151550024Y-107047242D01*
X151479114Y-107179906D01*
X151471004Y-107195078D01*
X151446385Y-107225076D01*
X151364659Y-107324659D01*
X151235077Y-107431005D01*
X151087241Y-107510024D01*
X150926822Y-107558687D01*
X150760000Y-107575117D01*
X150593177Y-107558687D01*
X150432758Y-107510024D01*
X150284924Y-107431005D01*
X150284922Y-107431004D01*
X150155341Y-107324659D01*
X150048995Y-107195077D01*
X149969976Y-107047241D01*
X149921313Y-106886822D01*
X149909000Y-106761803D01*
X149909000Y-105878197D01*
X149921314Y-105753177D01*
X149969977Y-105592758D01*
X150048996Y-105444924D01*
X150048997Y-105444922D01*
X150155342Y-105315341D01*
X150284923Y-105208996D01*
X150300095Y-105200886D01*
X150432759Y-105129976D01*
X150593178Y-105081313D01*
X150760000Y-105064883D01*
X150926823Y-105081313D01*
G37*
G36*
X153466823Y-105081313D02*
G01*
X153627242Y-105129976D01*
X153759906Y-105200886D01*
X153775078Y-105208996D01*
X153904659Y-105315341D01*
X154011004Y-105444922D01*
X154011005Y-105444924D01*
X154090024Y-105592758D01*
X154138687Y-105753178D01*
X154151000Y-105878197D01*
X154151000Y-106761804D01*
X154138687Y-106886823D01*
X154090024Y-107047242D01*
X154019114Y-107179906D01*
X154011004Y-107195078D01*
X153986385Y-107225076D01*
X153904659Y-107324659D01*
X153775077Y-107431005D01*
X153627241Y-107510024D01*
X153466822Y-107558687D01*
X153300000Y-107575117D01*
X153133177Y-107558687D01*
X152972758Y-107510024D01*
X152824924Y-107431005D01*
X152824922Y-107431004D01*
X152695341Y-107324659D01*
X152588995Y-107195077D01*
X152509976Y-107047241D01*
X152461313Y-106886822D01*
X152449000Y-106761803D01*
X152449000Y-105878197D01*
X152461314Y-105753177D01*
X152509977Y-105592758D01*
X152588996Y-105444924D01*
X152588997Y-105444922D01*
X152695342Y-105315341D01*
X152824923Y-105208996D01*
X152840095Y-105200886D01*
X152972759Y-105129976D01*
X153133178Y-105081313D01*
X153300000Y-105064883D01*
X153466823Y-105081313D01*
G37*
G36*
X161086823Y-105081313D02*
G01*
X161247242Y-105129976D01*
X161379906Y-105200886D01*
X161395078Y-105208996D01*
X161524659Y-105315341D01*
X161631004Y-105444922D01*
X161631005Y-105444924D01*
X161710024Y-105592758D01*
X161758687Y-105753178D01*
X161771000Y-105878197D01*
X161771000Y-106761804D01*
X161758687Y-106886823D01*
X161710024Y-107047242D01*
X161639114Y-107179906D01*
X161631004Y-107195078D01*
X161606385Y-107225076D01*
X161524659Y-107324659D01*
X161395077Y-107431005D01*
X161247241Y-107510024D01*
X161086822Y-107558687D01*
X160920000Y-107575117D01*
X160753177Y-107558687D01*
X160592758Y-107510024D01*
X160444924Y-107431005D01*
X160444922Y-107431004D01*
X160315341Y-107324659D01*
X160208995Y-107195077D01*
X160129976Y-107047241D01*
X160081313Y-106886822D01*
X160069000Y-106761803D01*
X160069000Y-105878197D01*
X160081314Y-105753177D01*
X160129977Y-105592758D01*
X160208996Y-105444924D01*
X160208997Y-105444922D01*
X160315342Y-105315341D01*
X160444923Y-105208996D01*
X160460095Y-105200886D01*
X160592759Y-105129976D01*
X160753178Y-105081313D01*
X160920000Y-105064883D01*
X161086823Y-105081313D01*
G37*
G36*
X158546823Y-105081313D02*
G01*
X158707242Y-105129976D01*
X158839906Y-105200886D01*
X158855078Y-105208996D01*
X158984659Y-105315341D01*
X159091004Y-105444922D01*
X159091005Y-105444924D01*
X159170024Y-105592758D01*
X159218687Y-105753178D01*
X159231000Y-105878197D01*
X159231000Y-106761804D01*
X159218687Y-106886823D01*
X159170024Y-107047242D01*
X159099114Y-107179906D01*
X159091004Y-107195078D01*
X159066385Y-107225076D01*
X158984659Y-107324659D01*
X158855077Y-107431005D01*
X158707241Y-107510024D01*
X158546822Y-107558687D01*
X158380000Y-107575117D01*
X158213177Y-107558687D01*
X158052758Y-107510024D01*
X157904924Y-107431005D01*
X157904922Y-107431004D01*
X157775341Y-107324659D01*
X157668995Y-107195077D01*
X157589976Y-107047241D01*
X157541313Y-106886822D01*
X157529000Y-106761803D01*
X157529000Y-105878197D01*
X157541314Y-105753177D01*
X157589977Y-105592758D01*
X157668996Y-105444924D01*
X157668997Y-105444922D01*
X157775342Y-105315341D01*
X157904923Y-105208996D01*
X157920095Y-105200886D01*
X158052759Y-105129976D01*
X158213178Y-105081313D01*
X158380000Y-105064883D01*
X158546823Y-105081313D01*
G37*
G36*
X166166823Y-105081313D02*
G01*
X166327242Y-105129976D01*
X166459906Y-105200886D01*
X166475078Y-105208996D01*
X166604659Y-105315341D01*
X166711004Y-105444922D01*
X166711005Y-105444924D01*
X166790024Y-105592758D01*
X166838687Y-105753178D01*
X166851000Y-105878197D01*
X166851000Y-106761804D01*
X166838687Y-106886823D01*
X166790024Y-107047242D01*
X166719114Y-107179906D01*
X166711004Y-107195078D01*
X166686385Y-107225076D01*
X166604659Y-107324659D01*
X166475077Y-107431005D01*
X166327241Y-107510024D01*
X166166822Y-107558687D01*
X166000000Y-107575117D01*
X165833177Y-107558687D01*
X165672758Y-107510024D01*
X165524924Y-107431005D01*
X165524922Y-107431004D01*
X165395341Y-107324659D01*
X165288995Y-107195077D01*
X165209976Y-107047241D01*
X165161313Y-106886822D01*
X165149000Y-106761803D01*
X165149000Y-105878197D01*
X165161314Y-105753177D01*
X165209977Y-105592758D01*
X165288996Y-105444924D01*
X165288997Y-105444922D01*
X165395342Y-105315341D01*
X165524923Y-105208996D01*
X165540095Y-105200886D01*
X165672759Y-105129976D01*
X165833178Y-105081313D01*
X166000000Y-105064883D01*
X166166823Y-105081313D01*
G37*
G36*
X156006823Y-105081313D02*
G01*
X156167242Y-105129976D01*
X156299906Y-105200886D01*
X156315078Y-105208996D01*
X156444659Y-105315341D01*
X156551004Y-105444922D01*
X156551005Y-105444924D01*
X156630024Y-105592758D01*
X156678687Y-105753178D01*
X156691000Y-105878197D01*
X156691000Y-106761804D01*
X156678687Y-106886823D01*
X156630024Y-107047242D01*
X156559114Y-107179906D01*
X156551004Y-107195078D01*
X156526385Y-107225076D01*
X156444659Y-107324659D01*
X156315077Y-107431005D01*
X156167241Y-107510024D01*
X156006822Y-107558687D01*
X155840000Y-107575117D01*
X155673177Y-107558687D01*
X155512758Y-107510024D01*
X155364924Y-107431005D01*
X155364922Y-107431004D01*
X155235341Y-107324659D01*
X155128995Y-107195077D01*
X155049976Y-107047241D01*
X155001313Y-106886822D01*
X154989000Y-106761803D01*
X154989000Y-105878197D01*
X155001314Y-105753177D01*
X155049977Y-105592758D01*
X155128996Y-105444924D01*
X155128997Y-105444922D01*
X155235342Y-105315341D01*
X155364923Y-105208996D01*
X155380095Y-105200886D01*
X155512759Y-105129976D01*
X155673178Y-105081313D01*
X155840000Y-105064883D01*
X156006823Y-105081313D01*
G37*
G36*
X209946822Y-97491313D02*
G01*
X210107241Y-97539976D01*
X210255077Y-97618995D01*
X210348104Y-97695341D01*
X210384659Y-97725341D01*
X210491004Y-97854922D01*
X210491005Y-97854924D01*
X210570024Y-98002758D01*
X210618687Y-98163177D01*
X210631000Y-98288196D01*
X210631000Y-99171803D01*
X210618687Y-99296822D01*
X210570024Y-99457242D01*
X210507040Y-99575076D01*
X210491004Y-99605078D01*
X210384659Y-99734659D01*
X210255078Y-99841004D01*
X210255076Y-99841005D01*
X210107242Y-99920024D01*
X209946823Y-99968687D01*
X209780000Y-99985117D01*
X209613178Y-99968687D01*
X209452759Y-99920024D01*
X209304925Y-99841005D01*
X209304923Y-99841004D01*
X209175342Y-99734659D01*
X209068997Y-99605078D01*
X209052961Y-99575076D01*
X208989977Y-99457242D01*
X208941314Y-99296823D01*
X208929000Y-99171803D01*
X208929000Y-98288197D01*
X208941313Y-98163178D01*
X208989976Y-98002759D01*
X209068995Y-97854923D01*
X209175341Y-97725341D01*
X209211896Y-97695341D01*
X209304922Y-97618996D01*
X209361050Y-97588995D01*
X209452758Y-97539976D01*
X209613177Y-97491313D01*
X209780000Y-97474883D01*
X209946822Y-97491313D01*
G37*
G36*
X114406822Y-97491313D02*
G01*
X114567241Y-97539976D01*
X114715077Y-97618995D01*
X114808104Y-97695341D01*
X114844659Y-97725341D01*
X114951004Y-97854922D01*
X114951005Y-97854924D01*
X115030024Y-98002758D01*
X115078687Y-98163177D01*
X115091000Y-98288196D01*
X115091000Y-99171803D01*
X115078687Y-99296822D01*
X115030024Y-99457242D01*
X114967040Y-99575076D01*
X114951004Y-99605078D01*
X114844659Y-99734659D01*
X114715078Y-99841004D01*
X114715076Y-99841005D01*
X114567242Y-99920024D01*
X114406823Y-99968687D01*
X114240000Y-99985117D01*
X114073178Y-99968687D01*
X113912759Y-99920024D01*
X113764925Y-99841005D01*
X113764923Y-99841004D01*
X113635342Y-99734659D01*
X113528997Y-99605078D01*
X113512961Y-99575076D01*
X113449977Y-99457242D01*
X113401314Y-99296823D01*
X113389000Y-99171803D01*
X113389000Y-98288197D01*
X113401313Y-98163178D01*
X113449976Y-98002759D01*
X113528995Y-97854923D01*
X113635341Y-97725341D01*
X113671896Y-97695341D01*
X113764922Y-97618996D01*
X113821050Y-97588995D01*
X113912758Y-97539976D01*
X114073177Y-97491313D01*
X114240000Y-97474883D01*
X114406822Y-97491313D01*
G37*
G36*
X227726822Y-97491313D02*
G01*
X227887241Y-97539976D01*
X228035077Y-97618995D01*
X228128104Y-97695341D01*
X228164659Y-97725341D01*
X228271004Y-97854922D01*
X228271005Y-97854924D01*
X228350024Y-98002758D01*
X228398687Y-98163177D01*
X228411000Y-98288196D01*
X228411000Y-99171803D01*
X228398687Y-99296822D01*
X228350024Y-99457242D01*
X228287040Y-99575076D01*
X228271004Y-99605078D01*
X228164659Y-99734659D01*
X228035078Y-99841004D01*
X228035076Y-99841005D01*
X227887242Y-99920024D01*
X227726823Y-99968687D01*
X227560000Y-99985117D01*
X227393178Y-99968687D01*
X227232759Y-99920024D01*
X227084925Y-99841005D01*
X227084923Y-99841004D01*
X226955342Y-99734659D01*
X226848997Y-99605078D01*
X226832961Y-99575076D01*
X226769977Y-99457242D01*
X226721314Y-99296823D01*
X226709000Y-99171803D01*
X226709000Y-98288197D01*
X226721313Y-98163178D01*
X226769976Y-98002759D01*
X226848995Y-97854923D01*
X226955341Y-97725341D01*
X226991896Y-97695341D01*
X227084922Y-97618996D01*
X227141050Y-97588995D01*
X227232758Y-97539976D01*
X227393177Y-97491313D01*
X227560000Y-97474883D01*
X227726822Y-97491313D01*
G37*
G36*
X116946822Y-97491313D02*
G01*
X117107241Y-97539976D01*
X117255077Y-97618995D01*
X117348104Y-97695341D01*
X117384659Y-97725341D01*
X117491004Y-97854922D01*
X117491005Y-97854924D01*
X117570024Y-98002758D01*
X117618687Y-98163177D01*
X117631000Y-98288196D01*
X117631000Y-99171803D01*
X117618687Y-99296822D01*
X117570024Y-99457242D01*
X117507040Y-99575076D01*
X117491004Y-99605078D01*
X117384659Y-99734659D01*
X117255078Y-99841004D01*
X117255076Y-99841005D01*
X117107242Y-99920024D01*
X116946823Y-99968687D01*
X116780000Y-99985117D01*
X116613178Y-99968687D01*
X116452759Y-99920024D01*
X116304925Y-99841005D01*
X116304923Y-99841004D01*
X116175342Y-99734659D01*
X116068997Y-99605078D01*
X116052961Y-99575076D01*
X115989977Y-99457242D01*
X115941314Y-99296823D01*
X115929000Y-99171803D01*
X115929000Y-98288197D01*
X115941313Y-98163178D01*
X115989976Y-98002759D01*
X116068995Y-97854923D01*
X116175341Y-97725341D01*
X116211896Y-97695341D01*
X116304922Y-97618996D01*
X116361050Y-97588995D01*
X116452758Y-97539976D01*
X116613177Y-97491313D01*
X116780000Y-97474883D01*
X116946822Y-97491313D01*
G37*
G36*
X207406822Y-97491313D02*
G01*
X207567241Y-97539976D01*
X207715077Y-97618995D01*
X207808104Y-97695341D01*
X207844659Y-97725341D01*
X207951004Y-97854922D01*
X207951005Y-97854924D01*
X208030024Y-98002758D01*
X208078687Y-98163177D01*
X208091000Y-98288196D01*
X208091000Y-99171803D01*
X208078687Y-99296822D01*
X208030024Y-99457242D01*
X207967040Y-99575076D01*
X207951004Y-99605078D01*
X207844659Y-99734659D01*
X207715078Y-99841004D01*
X207715076Y-99841005D01*
X207567242Y-99920024D01*
X207406823Y-99968687D01*
X207240000Y-99985117D01*
X207073178Y-99968687D01*
X206912759Y-99920024D01*
X206764925Y-99841005D01*
X206764923Y-99841004D01*
X206635342Y-99734659D01*
X206528997Y-99605078D01*
X206512961Y-99575076D01*
X206449977Y-99457242D01*
X206401314Y-99296823D01*
X206389000Y-99171803D01*
X206389000Y-98288197D01*
X206401313Y-98163178D01*
X206449976Y-98002759D01*
X206528995Y-97854923D01*
X206635341Y-97725341D01*
X206671896Y-97695341D01*
X206764922Y-97618996D01*
X206821050Y-97588995D01*
X206912758Y-97539976D01*
X207073177Y-97491313D01*
X207240000Y-97474883D01*
X207406822Y-97491313D01*
G37*
G36*
X212486822Y-97491313D02*
G01*
X212647241Y-97539976D01*
X212795077Y-97618995D01*
X212888104Y-97695341D01*
X212924659Y-97725341D01*
X213031004Y-97854922D01*
X213031005Y-97854924D01*
X213110024Y-98002758D01*
X213158687Y-98163177D01*
X213171000Y-98288196D01*
X213171000Y-99171803D01*
X213158687Y-99296822D01*
X213110024Y-99457242D01*
X213047040Y-99575076D01*
X213031004Y-99605078D01*
X212924659Y-99734659D01*
X212795078Y-99841004D01*
X212795076Y-99841005D01*
X212647242Y-99920024D01*
X212486823Y-99968687D01*
X212320000Y-99985117D01*
X212153178Y-99968687D01*
X211992759Y-99920024D01*
X211844925Y-99841005D01*
X211844923Y-99841004D01*
X211715342Y-99734659D01*
X211608997Y-99605078D01*
X211592961Y-99575076D01*
X211529977Y-99457242D01*
X211481314Y-99296823D01*
X211469000Y-99171803D01*
X211469000Y-98288197D01*
X211481313Y-98163178D01*
X211529976Y-98002759D01*
X211608995Y-97854923D01*
X211715341Y-97725341D01*
X211751896Y-97695341D01*
X211844922Y-97618996D01*
X211901050Y-97588995D01*
X211992758Y-97539976D01*
X212153177Y-97491313D01*
X212320000Y-97474883D01*
X212486822Y-97491313D01*
G37*
G36*
X215026822Y-97491313D02*
G01*
X215187241Y-97539976D01*
X215335077Y-97618995D01*
X215428104Y-97695341D01*
X215464659Y-97725341D01*
X215571004Y-97854922D01*
X215571005Y-97854924D01*
X215650024Y-98002758D01*
X215698687Y-98163177D01*
X215711000Y-98288196D01*
X215711000Y-99171803D01*
X215698687Y-99296822D01*
X215650024Y-99457242D01*
X215587040Y-99575076D01*
X215571004Y-99605078D01*
X215464659Y-99734659D01*
X215335078Y-99841004D01*
X215335076Y-99841005D01*
X215187242Y-99920024D01*
X215026823Y-99968687D01*
X214860000Y-99985117D01*
X214693178Y-99968687D01*
X214532759Y-99920024D01*
X214384925Y-99841005D01*
X214384923Y-99841004D01*
X214255342Y-99734659D01*
X214148997Y-99605078D01*
X214132961Y-99575076D01*
X214069977Y-99457242D01*
X214021314Y-99296823D01*
X214009000Y-99171803D01*
X214009000Y-98288197D01*
X214021313Y-98163178D01*
X214069976Y-98002759D01*
X214148995Y-97854923D01*
X214255341Y-97725341D01*
X214291896Y-97695341D01*
X214384922Y-97618996D01*
X214441050Y-97588995D01*
X214532758Y-97539976D01*
X214693177Y-97491313D01*
X214860000Y-97474883D01*
X215026822Y-97491313D01*
G37*
G36*
X111866822Y-97491313D02*
G01*
X112027241Y-97539976D01*
X112175077Y-97618995D01*
X112268104Y-97695341D01*
X112304659Y-97725341D01*
X112411004Y-97854922D01*
X112411005Y-97854924D01*
X112490024Y-98002758D01*
X112538687Y-98163177D01*
X112551000Y-98288196D01*
X112551000Y-99171803D01*
X112538687Y-99296822D01*
X112490024Y-99457242D01*
X112427040Y-99575076D01*
X112411004Y-99605078D01*
X112304659Y-99734659D01*
X112175078Y-99841004D01*
X112175076Y-99841005D01*
X112027242Y-99920024D01*
X111866823Y-99968687D01*
X111700000Y-99985117D01*
X111533178Y-99968687D01*
X111372759Y-99920024D01*
X111224925Y-99841005D01*
X111224923Y-99841004D01*
X111095342Y-99734659D01*
X110988997Y-99605078D01*
X110972961Y-99575076D01*
X110909977Y-99457242D01*
X110861314Y-99296823D01*
X110849000Y-99171803D01*
X110849000Y-98288197D01*
X110861313Y-98163178D01*
X110909976Y-98002759D01*
X110988995Y-97854923D01*
X111095341Y-97725341D01*
X111131896Y-97695341D01*
X111224922Y-97618996D01*
X111281050Y-97588995D01*
X111372758Y-97539976D01*
X111533177Y-97491313D01*
X111700000Y-97474883D01*
X111866822Y-97491313D01*
G37*
G36*
X109326822Y-97491313D02*
G01*
X109487241Y-97539976D01*
X109635077Y-97618995D01*
X109728104Y-97695341D01*
X109764659Y-97725341D01*
X109871004Y-97854922D01*
X109871005Y-97854924D01*
X109950024Y-98002758D01*
X109998687Y-98163177D01*
X110011000Y-98288196D01*
X110011000Y-99171803D01*
X109998687Y-99296822D01*
X109950024Y-99457242D01*
X109887040Y-99575076D01*
X109871004Y-99605078D01*
X109764659Y-99734659D01*
X109635078Y-99841004D01*
X109635076Y-99841005D01*
X109487242Y-99920024D01*
X109326823Y-99968687D01*
X109160000Y-99985117D01*
X108993178Y-99968687D01*
X108832759Y-99920024D01*
X108684925Y-99841005D01*
X108684923Y-99841004D01*
X108555342Y-99734659D01*
X108448997Y-99605078D01*
X108432961Y-99575076D01*
X108369977Y-99457242D01*
X108321314Y-99296823D01*
X108309000Y-99171803D01*
X108309000Y-98288197D01*
X108321313Y-98163178D01*
X108369976Y-98002759D01*
X108448995Y-97854923D01*
X108555341Y-97725341D01*
X108591896Y-97695341D01*
X108684922Y-97618996D01*
X108741050Y-97588995D01*
X108832758Y-97539976D01*
X108993177Y-97491313D01*
X109160000Y-97474883D01*
X109326822Y-97491313D01*
G37*
G36*
X225186822Y-97491313D02*
G01*
X225347241Y-97539976D01*
X225495077Y-97618995D01*
X225588104Y-97695341D01*
X225624659Y-97725341D01*
X225731004Y-97854922D01*
X225731005Y-97854924D01*
X225810024Y-98002758D01*
X225858687Y-98163177D01*
X225871000Y-98288196D01*
X225871000Y-99171803D01*
X225858687Y-99296822D01*
X225810024Y-99457242D01*
X225747040Y-99575076D01*
X225731004Y-99605078D01*
X225624659Y-99734659D01*
X225495078Y-99841004D01*
X225495076Y-99841005D01*
X225347242Y-99920024D01*
X225186823Y-99968687D01*
X225020000Y-99985117D01*
X224853178Y-99968687D01*
X224692759Y-99920024D01*
X224544925Y-99841005D01*
X224544923Y-99841004D01*
X224415342Y-99734659D01*
X224308997Y-99605078D01*
X224292961Y-99575076D01*
X224229977Y-99457242D01*
X224181314Y-99296823D01*
X224169000Y-99171803D01*
X224169000Y-98288197D01*
X224181313Y-98163178D01*
X224229976Y-98002759D01*
X224308995Y-97854923D01*
X224415341Y-97725341D01*
X224451896Y-97695341D01*
X224544922Y-97618996D01*
X224601050Y-97588995D01*
X224692758Y-97539976D01*
X224853177Y-97491313D01*
X225020000Y-97474883D01*
X225186822Y-97491313D01*
G37*
G36*
X222646822Y-97491313D02*
G01*
X222807241Y-97539976D01*
X222955077Y-97618995D01*
X223048104Y-97695341D01*
X223084659Y-97725341D01*
X223191004Y-97854922D01*
X223191005Y-97854924D01*
X223270024Y-98002758D01*
X223318687Y-98163177D01*
X223331000Y-98288196D01*
X223331000Y-99171803D01*
X223318687Y-99296822D01*
X223270024Y-99457242D01*
X223207040Y-99575076D01*
X223191004Y-99605078D01*
X223084659Y-99734659D01*
X222955078Y-99841004D01*
X222955076Y-99841005D01*
X222807242Y-99920024D01*
X222646823Y-99968687D01*
X222480000Y-99985117D01*
X222313178Y-99968687D01*
X222152759Y-99920024D01*
X222004925Y-99841005D01*
X222004923Y-99841004D01*
X221875342Y-99734659D01*
X221768997Y-99605078D01*
X221752961Y-99575076D01*
X221689977Y-99457242D01*
X221641314Y-99296823D01*
X221629000Y-99171803D01*
X221629000Y-98288197D01*
X221641313Y-98163178D01*
X221689976Y-98002759D01*
X221768995Y-97854923D01*
X221875341Y-97725341D01*
X221911896Y-97695341D01*
X222004922Y-97618996D01*
X222061050Y-97588995D01*
X222152758Y-97539976D01*
X222313177Y-97491313D01*
X222480000Y-97474883D01*
X222646822Y-97491313D01*
G37*
G36*
X220106822Y-97491313D02*
G01*
X220267241Y-97539976D01*
X220415077Y-97618995D01*
X220508104Y-97695341D01*
X220544659Y-97725341D01*
X220651004Y-97854922D01*
X220651005Y-97854924D01*
X220730024Y-98002758D01*
X220778687Y-98163177D01*
X220791000Y-98288196D01*
X220791000Y-99171803D01*
X220778687Y-99296822D01*
X220730024Y-99457242D01*
X220667040Y-99575076D01*
X220651004Y-99605078D01*
X220544659Y-99734659D01*
X220415078Y-99841004D01*
X220415076Y-99841005D01*
X220267242Y-99920024D01*
X220106823Y-99968687D01*
X219940000Y-99985117D01*
X219773178Y-99968687D01*
X219612759Y-99920024D01*
X219464925Y-99841005D01*
X219464923Y-99841004D01*
X219335342Y-99734659D01*
X219228997Y-99605078D01*
X219212961Y-99575076D01*
X219149977Y-99457242D01*
X219101314Y-99296823D01*
X219089000Y-99171803D01*
X219089000Y-98288197D01*
X219101313Y-98163178D01*
X219149976Y-98002759D01*
X219228995Y-97854923D01*
X219335341Y-97725341D01*
X219371896Y-97695341D01*
X219464922Y-97618996D01*
X219521050Y-97588995D01*
X219612758Y-97539976D01*
X219773177Y-97491313D01*
X219940000Y-97474883D01*
X220106822Y-97491313D01*
G37*
G36*
X106786822Y-97491313D02*
G01*
X106947241Y-97539976D01*
X107095077Y-97618995D01*
X107188104Y-97695341D01*
X107224659Y-97725341D01*
X107331004Y-97854922D01*
X107331005Y-97854924D01*
X107410024Y-98002758D01*
X107458687Y-98163177D01*
X107471000Y-98288196D01*
X107471000Y-99171803D01*
X107458687Y-99296822D01*
X107410024Y-99457242D01*
X107347040Y-99575076D01*
X107331004Y-99605078D01*
X107224659Y-99734659D01*
X107095078Y-99841004D01*
X107095076Y-99841005D01*
X106947242Y-99920024D01*
X106786823Y-99968687D01*
X106620000Y-99985117D01*
X106453178Y-99968687D01*
X106292759Y-99920024D01*
X106144925Y-99841005D01*
X106144923Y-99841004D01*
X106015342Y-99734659D01*
X105908997Y-99605078D01*
X105892961Y-99575076D01*
X105829977Y-99457242D01*
X105781314Y-99296823D01*
X105769000Y-99171803D01*
X105769000Y-98288197D01*
X105781313Y-98163178D01*
X105829976Y-98002759D01*
X105908995Y-97854923D01*
X106015341Y-97725341D01*
X106051896Y-97695341D01*
X106144922Y-97618996D01*
X106201050Y-97588995D01*
X106292758Y-97539976D01*
X106453177Y-97491313D01*
X106620000Y-97474883D01*
X106786822Y-97491313D01*
G37*
G36*
X217566822Y-97491313D02*
G01*
X217727241Y-97539976D01*
X217875077Y-97618995D01*
X217968104Y-97695341D01*
X218004659Y-97725341D01*
X218111004Y-97854922D01*
X218111005Y-97854924D01*
X218190024Y-98002758D01*
X218238687Y-98163177D01*
X218251000Y-98288196D01*
X218251000Y-99171803D01*
X218238687Y-99296822D01*
X218190024Y-99457242D01*
X218127040Y-99575076D01*
X218111004Y-99605078D01*
X218004659Y-99734659D01*
X217875078Y-99841004D01*
X217875076Y-99841005D01*
X217727242Y-99920024D01*
X217566823Y-99968687D01*
X217400000Y-99985117D01*
X217233178Y-99968687D01*
X217072759Y-99920024D01*
X216924925Y-99841005D01*
X216924923Y-99841004D01*
X216795342Y-99734659D01*
X216688997Y-99605078D01*
X216672961Y-99575076D01*
X216609977Y-99457242D01*
X216561314Y-99296823D01*
X216549000Y-99171803D01*
X216549000Y-98288197D01*
X216561313Y-98163178D01*
X216609976Y-98002759D01*
X216688995Y-97854923D01*
X216795341Y-97725341D01*
X216831896Y-97695341D01*
X216924922Y-97618996D01*
X216981050Y-97588995D01*
X217072758Y-97539976D01*
X217233177Y-97491313D01*
X217400000Y-97474883D01*
X217566822Y-97491313D01*
G37*
G36*
X104246822Y-97491313D02*
G01*
X104407241Y-97539976D01*
X104555077Y-97618995D01*
X104648104Y-97695341D01*
X104684659Y-97725341D01*
X104791004Y-97854922D01*
X104791005Y-97854924D01*
X104870024Y-98002758D01*
X104918687Y-98163177D01*
X104931000Y-98288196D01*
X104931000Y-99171803D01*
X104918687Y-99296822D01*
X104870024Y-99457242D01*
X104807040Y-99575076D01*
X104791004Y-99605078D01*
X104684659Y-99734659D01*
X104555078Y-99841004D01*
X104555076Y-99841005D01*
X104407242Y-99920024D01*
X104246823Y-99968687D01*
X104080000Y-99985117D01*
X103913178Y-99968687D01*
X103752759Y-99920024D01*
X103604925Y-99841005D01*
X103604923Y-99841004D01*
X103475342Y-99734659D01*
X103368997Y-99605078D01*
X103352961Y-99575076D01*
X103289977Y-99457242D01*
X103241314Y-99296823D01*
X103229000Y-99171803D01*
X103229000Y-98288197D01*
X103241313Y-98163178D01*
X103289976Y-98002759D01*
X103368995Y-97854923D01*
X103475341Y-97725341D01*
X103511896Y-97695341D01*
X103604922Y-97618996D01*
X103661050Y-97588995D01*
X103752758Y-97539976D01*
X103913177Y-97491313D01*
X104080000Y-97474883D01*
X104246822Y-97491313D01*
G37*
G36*
X101706822Y-97491313D02*
G01*
X101867241Y-97539976D01*
X102015077Y-97618995D01*
X102108104Y-97695341D01*
X102144659Y-97725341D01*
X102251004Y-97854922D01*
X102251005Y-97854924D01*
X102330024Y-98002758D01*
X102378687Y-98163177D01*
X102391000Y-98288196D01*
X102391000Y-99171803D01*
X102378687Y-99296822D01*
X102330024Y-99457242D01*
X102267040Y-99575076D01*
X102251004Y-99605078D01*
X102144659Y-99734659D01*
X102015078Y-99841004D01*
X102015076Y-99841005D01*
X101867242Y-99920024D01*
X101706823Y-99968687D01*
X101540000Y-99985117D01*
X101373178Y-99968687D01*
X101212759Y-99920024D01*
X101064925Y-99841005D01*
X101064923Y-99841004D01*
X100935342Y-99734659D01*
X100828997Y-99605078D01*
X100812961Y-99575076D01*
X100749977Y-99457242D01*
X100701314Y-99296823D01*
X100689000Y-99171803D01*
X100689000Y-98288197D01*
X100701313Y-98163178D01*
X100749976Y-98002759D01*
X100828995Y-97854923D01*
X100935341Y-97725341D01*
X100971896Y-97695341D01*
X101064922Y-97618996D01*
X101121050Y-97588995D01*
X101212758Y-97539976D01*
X101373177Y-97491313D01*
X101540000Y-97474883D01*
X101706822Y-97491313D01*
G37*
G36*
X99166822Y-97491313D02*
G01*
X99327241Y-97539976D01*
X99475077Y-97618995D01*
X99568104Y-97695341D01*
X99604659Y-97725341D01*
X99711004Y-97854922D01*
X99711005Y-97854924D01*
X99790024Y-98002758D01*
X99838687Y-98163177D01*
X99851000Y-98288196D01*
X99851000Y-99171803D01*
X99838687Y-99296822D01*
X99790024Y-99457242D01*
X99727040Y-99575076D01*
X99711004Y-99605078D01*
X99604659Y-99734659D01*
X99475078Y-99841004D01*
X99475076Y-99841005D01*
X99327242Y-99920024D01*
X99166823Y-99968687D01*
X99000000Y-99985117D01*
X98833178Y-99968687D01*
X98672759Y-99920024D01*
X98524925Y-99841005D01*
X98524923Y-99841004D01*
X98395342Y-99734659D01*
X98288997Y-99605078D01*
X98272961Y-99575076D01*
X98209977Y-99457242D01*
X98161314Y-99296823D01*
X98149000Y-99171803D01*
X98149000Y-98288197D01*
X98161313Y-98163178D01*
X98209976Y-98002759D01*
X98288995Y-97854923D01*
X98395341Y-97725341D01*
X98431896Y-97695341D01*
X98524922Y-97618996D01*
X98581050Y-97588995D01*
X98672758Y-97539976D01*
X98833177Y-97491313D01*
X99000000Y-97474883D01*
X99166822Y-97491313D01*
G37*
G36*
X204866822Y-97491313D02*
G01*
X205027241Y-97539976D01*
X205175077Y-97618995D01*
X205268104Y-97695341D01*
X205304659Y-97725341D01*
X205411004Y-97854922D01*
X205411005Y-97854924D01*
X205490024Y-98002758D01*
X205538687Y-98163177D01*
X205551000Y-98288196D01*
X205551000Y-99171803D01*
X205538687Y-99296822D01*
X205490024Y-99457242D01*
X205427040Y-99575076D01*
X205411004Y-99605078D01*
X205304659Y-99734659D01*
X205175078Y-99841004D01*
X205175076Y-99841005D01*
X205027242Y-99920024D01*
X204866823Y-99968687D01*
X204700000Y-99985117D01*
X204533178Y-99968687D01*
X204372759Y-99920024D01*
X204224925Y-99841005D01*
X204224923Y-99841004D01*
X204095342Y-99734659D01*
X203988997Y-99605078D01*
X203972961Y-99575076D01*
X203909977Y-99457242D01*
X203861314Y-99296823D01*
X203849000Y-99171803D01*
X203849000Y-98288197D01*
X203861313Y-98163178D01*
X203909976Y-98002759D01*
X203988995Y-97854923D01*
X204095341Y-97725341D01*
X204131896Y-97695341D01*
X204224922Y-97618996D01*
X204281050Y-97588995D01*
X204372758Y-97539976D01*
X204533177Y-97491313D01*
X204700000Y-97474883D01*
X204866822Y-97491313D01*
G37*
G36*
X153466823Y-97461313D02*
G01*
X153627242Y-97509976D01*
X153759906Y-97580886D01*
X153775078Y-97588996D01*
X153904659Y-97695341D01*
X154011004Y-97824922D01*
X154011005Y-97824924D01*
X154090024Y-97972758D01*
X154138687Y-98133178D01*
X154151000Y-98258197D01*
X154151000Y-99141804D01*
X154138687Y-99266823D01*
X154090024Y-99427242D01*
X154019114Y-99559906D01*
X154011004Y-99575078D01*
X153986385Y-99605076D01*
X153904659Y-99704659D01*
X153775077Y-99811005D01*
X153627241Y-99890024D01*
X153466822Y-99938687D01*
X153300000Y-99955117D01*
X153133177Y-99938687D01*
X152972758Y-99890024D01*
X152824924Y-99811005D01*
X152824922Y-99811004D01*
X152695341Y-99704659D01*
X152588995Y-99575077D01*
X152509976Y-99427241D01*
X152461313Y-99266822D01*
X152449000Y-99141803D01*
X152449000Y-98258197D01*
X152461314Y-98133177D01*
X152509977Y-97972758D01*
X152588996Y-97824924D01*
X152588997Y-97824922D01*
X152695342Y-97695341D01*
X152824923Y-97588996D01*
X152840095Y-97580886D01*
X152972759Y-97509976D01*
X153133178Y-97461313D01*
X153300000Y-97444883D01*
X153466823Y-97461313D01*
G37*
G36*
X156006823Y-97461313D02*
G01*
X156167242Y-97509976D01*
X156299906Y-97580886D01*
X156315078Y-97588996D01*
X156444659Y-97695341D01*
X156551004Y-97824922D01*
X156551005Y-97824924D01*
X156630024Y-97972758D01*
X156678687Y-98133178D01*
X156691000Y-98258197D01*
X156691000Y-99141804D01*
X156678687Y-99266823D01*
X156630024Y-99427242D01*
X156559114Y-99559906D01*
X156551004Y-99575078D01*
X156526385Y-99605076D01*
X156444659Y-99704659D01*
X156315077Y-99811005D01*
X156167241Y-99890024D01*
X156006822Y-99938687D01*
X155840000Y-99955117D01*
X155673177Y-99938687D01*
X155512758Y-99890024D01*
X155364924Y-99811005D01*
X155364922Y-99811004D01*
X155235341Y-99704659D01*
X155128995Y-99575077D01*
X155049976Y-99427241D01*
X155001313Y-99266822D01*
X154989000Y-99141803D01*
X154989000Y-98258197D01*
X155001314Y-98133177D01*
X155049977Y-97972758D01*
X155128996Y-97824924D01*
X155128997Y-97824922D01*
X155235342Y-97695341D01*
X155364923Y-97588996D01*
X155380095Y-97580886D01*
X155512759Y-97509976D01*
X155673178Y-97461313D01*
X155840000Y-97444883D01*
X156006823Y-97461313D01*
G37*
G36*
X158546823Y-97461313D02*
G01*
X158707242Y-97509976D01*
X158839906Y-97580886D01*
X158855078Y-97588996D01*
X158984659Y-97695341D01*
X159091004Y-97824922D01*
X159091005Y-97824924D01*
X159170024Y-97972758D01*
X159218687Y-98133178D01*
X159231000Y-98258197D01*
X159231000Y-99141804D01*
X159218687Y-99266823D01*
X159170024Y-99427242D01*
X159099114Y-99559906D01*
X159091004Y-99575078D01*
X159066385Y-99605076D01*
X158984659Y-99704659D01*
X158855077Y-99811005D01*
X158707241Y-99890024D01*
X158546822Y-99938687D01*
X158380000Y-99955117D01*
X158213177Y-99938687D01*
X158052758Y-99890024D01*
X157904924Y-99811005D01*
X157904922Y-99811004D01*
X157775341Y-99704659D01*
X157668995Y-99575077D01*
X157589976Y-99427241D01*
X157541313Y-99266822D01*
X157529000Y-99141803D01*
X157529000Y-98258197D01*
X157541314Y-98133177D01*
X157589977Y-97972758D01*
X157668996Y-97824924D01*
X157668997Y-97824922D01*
X157775342Y-97695341D01*
X157904923Y-97588996D01*
X157920095Y-97580886D01*
X158052759Y-97509976D01*
X158213178Y-97461313D01*
X158380000Y-97444883D01*
X158546823Y-97461313D01*
G37*
G36*
X150926823Y-97461313D02*
G01*
X151087242Y-97509976D01*
X151219906Y-97580886D01*
X151235078Y-97588996D01*
X151364659Y-97695341D01*
X151471004Y-97824922D01*
X151471005Y-97824924D01*
X151550024Y-97972758D01*
X151598687Y-98133178D01*
X151611000Y-98258197D01*
X151611000Y-99141804D01*
X151598687Y-99266823D01*
X151550024Y-99427242D01*
X151479114Y-99559906D01*
X151471004Y-99575078D01*
X151446385Y-99605076D01*
X151364659Y-99704659D01*
X151235077Y-99811005D01*
X151087241Y-99890024D01*
X150926822Y-99938687D01*
X150760000Y-99955117D01*
X150593177Y-99938687D01*
X150432758Y-99890024D01*
X150284924Y-99811005D01*
X150284922Y-99811004D01*
X150155341Y-99704659D01*
X150048995Y-99575077D01*
X149969976Y-99427241D01*
X149921313Y-99266822D01*
X149909000Y-99141803D01*
X149909000Y-98258197D01*
X149921314Y-98133177D01*
X149969977Y-97972758D01*
X150048996Y-97824924D01*
X150048997Y-97824922D01*
X150155342Y-97695341D01*
X150284923Y-97588996D01*
X150300095Y-97580886D01*
X150432759Y-97509976D01*
X150593178Y-97461313D01*
X150760000Y-97444883D01*
X150926823Y-97461313D01*
G37*
G36*
X163626823Y-97461313D02*
G01*
X163787242Y-97509976D01*
X163919906Y-97580886D01*
X163935078Y-97588996D01*
X164064659Y-97695341D01*
X164171004Y-97824922D01*
X164171005Y-97824924D01*
X164250024Y-97972758D01*
X164298687Y-98133178D01*
X164311000Y-98258197D01*
X164311000Y-99141804D01*
X164298687Y-99266823D01*
X164250024Y-99427242D01*
X164179114Y-99559906D01*
X164171004Y-99575078D01*
X164146385Y-99605076D01*
X164064659Y-99704659D01*
X163935077Y-99811005D01*
X163787241Y-99890024D01*
X163626822Y-99938687D01*
X163460000Y-99955117D01*
X163293177Y-99938687D01*
X163132758Y-99890024D01*
X162984924Y-99811005D01*
X162984922Y-99811004D01*
X162855341Y-99704659D01*
X162748995Y-99575077D01*
X162669976Y-99427241D01*
X162621313Y-99266822D01*
X162609000Y-99141803D01*
X162609000Y-98258197D01*
X162621314Y-98133177D01*
X162669977Y-97972758D01*
X162748996Y-97824924D01*
X162748997Y-97824922D01*
X162855342Y-97695341D01*
X162984923Y-97588996D01*
X163000095Y-97580886D01*
X163132759Y-97509976D01*
X163293178Y-97461313D01*
X163460000Y-97444883D01*
X163626823Y-97461313D01*
G37*
G36*
X161086823Y-97461313D02*
G01*
X161247242Y-97509976D01*
X161379906Y-97580886D01*
X161395078Y-97588996D01*
X161524659Y-97695341D01*
X161631004Y-97824922D01*
X161631005Y-97824924D01*
X161710024Y-97972758D01*
X161758687Y-98133178D01*
X161771000Y-98258197D01*
X161771000Y-99141804D01*
X161758687Y-99266823D01*
X161710024Y-99427242D01*
X161639114Y-99559906D01*
X161631004Y-99575078D01*
X161606385Y-99605076D01*
X161524659Y-99704659D01*
X161395077Y-99811005D01*
X161247241Y-99890024D01*
X161086822Y-99938687D01*
X160920000Y-99955117D01*
X160753177Y-99938687D01*
X160592758Y-99890024D01*
X160444924Y-99811005D01*
X160444922Y-99811004D01*
X160315341Y-99704659D01*
X160208995Y-99575077D01*
X160129976Y-99427241D01*
X160081313Y-99266822D01*
X160069000Y-99141803D01*
X160069000Y-98258197D01*
X160081314Y-98133177D01*
X160129977Y-97972758D01*
X160208996Y-97824924D01*
X160208997Y-97824922D01*
X160315342Y-97695341D01*
X160444923Y-97588996D01*
X160460095Y-97580886D01*
X160592759Y-97509976D01*
X160753178Y-97461313D01*
X160920000Y-97444883D01*
X161086823Y-97461313D01*
G37*
G36*
X166851000Y-99951000D02*
G01*
X165149000Y-99951000D01*
X165149000Y-97449000D01*
X166851000Y-97449000D01*
X166851000Y-99951000D01*
G37*
G36*
X259306564Y-93989389D02*
G01*
X259497833Y-94068615D01*
X259497835Y-94068616D01*
X259669973Y-94183635D01*
X259816365Y-94330027D01*
X259828527Y-94348228D01*
X259931385Y-94502167D01*
X260010611Y-94693436D01*
X260051000Y-94896484D01*
X260051000Y-95103516D01*
X260010611Y-95306564D01*
X259931385Y-95497833D01*
X259931384Y-95497835D01*
X259816365Y-95669973D01*
X259669973Y-95816365D01*
X259497835Y-95931384D01*
X259497834Y-95931385D01*
X259497833Y-95931385D01*
X259306564Y-96010611D01*
X259103516Y-96051000D01*
X258896484Y-96051000D01*
X258693436Y-96010611D01*
X258502167Y-95931385D01*
X258502166Y-95931385D01*
X258502165Y-95931384D01*
X258330027Y-95816365D01*
X258183635Y-95669973D01*
X258068616Y-95497835D01*
X258068615Y-95497833D01*
X257989389Y-95306564D01*
X257949000Y-95103516D01*
X257949000Y-94896484D01*
X257989389Y-94693436D01*
X258068615Y-94502167D01*
X258171474Y-94348228D01*
X258183635Y-94330027D01*
X258330027Y-94183635D01*
X258502165Y-94068616D01*
X258502167Y-94068615D01*
X258693436Y-93989389D01*
X258896484Y-93949000D01*
X259103516Y-93949000D01*
X259306564Y-93989389D01*
G37*
G36*
X204948228Y-93281703D02*
G01*
X205103100Y-93345853D01*
X205242481Y-93438985D01*
X205361015Y-93557519D01*
X205454147Y-93696900D01*
X205518297Y-93851772D01*
X205551000Y-94016184D01*
X205551000Y-94183816D01*
X205518297Y-94348228D01*
X205454147Y-94503100D01*
X205361015Y-94642481D01*
X205242481Y-94761015D01*
X205103100Y-94854147D01*
X204948228Y-94918297D01*
X204783816Y-94951000D01*
X204616184Y-94951000D01*
X204451772Y-94918297D01*
X204296900Y-94854147D01*
X204157519Y-94761015D01*
X204038985Y-94642481D01*
X203945853Y-94503100D01*
X203881703Y-94348228D01*
X203849000Y-94183816D01*
X203849000Y-94016184D01*
X203881703Y-93851772D01*
X203945853Y-93696900D01*
X204038985Y-93557519D01*
X204157519Y-93438985D01*
X204296900Y-93345853D01*
X204451772Y-93281703D01*
X204616184Y-93249000D01*
X204783816Y-93249000D01*
X204948228Y-93281703D01*
G37*
G36*
X202448228Y-93281703D02*
G01*
X202603100Y-93345853D01*
X202742481Y-93438985D01*
X202861015Y-93557519D01*
X202954147Y-93696900D01*
X203018297Y-93851772D01*
X203051000Y-94016184D01*
X203051000Y-94183816D01*
X203018297Y-94348228D01*
X202954147Y-94503100D01*
X202861015Y-94642481D01*
X202742481Y-94761015D01*
X202603100Y-94854147D01*
X202448228Y-94918297D01*
X202283816Y-94951000D01*
X202116184Y-94951000D01*
X201951772Y-94918297D01*
X201796900Y-94854147D01*
X201657519Y-94761015D01*
X201538985Y-94642481D01*
X201445853Y-94503100D01*
X201381703Y-94348228D01*
X201349000Y-94183816D01*
X201349000Y-94016184D01*
X201381703Y-93851772D01*
X201445853Y-93696900D01*
X201538985Y-93557519D01*
X201657519Y-93438985D01*
X201796900Y-93345853D01*
X201951772Y-93281703D01*
X202116184Y-93249000D01*
X202283816Y-93249000D01*
X202448228Y-93281703D01*
G37*
G36*
X212665109Y-93371107D02*
G01*
X212699059Y-93377860D01*
X212835732Y-93434472D01*
X212958735Y-93516660D01*
X213063340Y-93621265D01*
X213145528Y-93744268D01*
X213145529Y-93744270D01*
X213202140Y-93880941D01*
X213231000Y-94026032D01*
X213231000Y-94173968D01*
X213202140Y-94319059D01*
X213145528Y-94455732D01*
X213063340Y-94578735D01*
X212958735Y-94683340D01*
X212835732Y-94765528D01*
X212835731Y-94765529D01*
X212835730Y-94765529D01*
X212699059Y-94822140D01*
X212553968Y-94851000D01*
X212406032Y-94851000D01*
X212260941Y-94822140D01*
X212124270Y-94765529D01*
X212124269Y-94765529D01*
X212124268Y-94765528D01*
X212001265Y-94683340D01*
X211896660Y-94578735D01*
X211814472Y-94455732D01*
X211757860Y-94319059D01*
X211729000Y-94173968D01*
X211729000Y-94026032D01*
X211757860Y-93880941D01*
X211814471Y-93744270D01*
X211814472Y-93744268D01*
X211896660Y-93621265D01*
X212001265Y-93516660D01*
X212124268Y-93434472D01*
X212260941Y-93377860D01*
X212294891Y-93371107D01*
X212406032Y-93349000D01*
X212553968Y-93349000D01*
X212665109Y-93371107D01*
G37*
G36*
X101685109Y-93371107D02*
G01*
X101719059Y-93377860D01*
X101855732Y-93434472D01*
X101978735Y-93516660D01*
X102083340Y-93621265D01*
X102165528Y-93744268D01*
X102165529Y-93744270D01*
X102222140Y-93880941D01*
X102251000Y-94026032D01*
X102251000Y-94173968D01*
X102222140Y-94319059D01*
X102165528Y-94455732D01*
X102083340Y-94578735D01*
X101978735Y-94683340D01*
X101855732Y-94765528D01*
X101855731Y-94765529D01*
X101855730Y-94765529D01*
X101719059Y-94822140D01*
X101573968Y-94851000D01*
X101426032Y-94851000D01*
X101280941Y-94822140D01*
X101144270Y-94765529D01*
X101144269Y-94765529D01*
X101144268Y-94765528D01*
X101021265Y-94683340D01*
X100916660Y-94578735D01*
X100834472Y-94455732D01*
X100777860Y-94319059D01*
X100749000Y-94173968D01*
X100749000Y-94026032D01*
X100777860Y-93880941D01*
X100834471Y-93744270D01*
X100834472Y-93744268D01*
X100916660Y-93621265D01*
X101021265Y-93516660D01*
X101144268Y-93434472D01*
X101280941Y-93377860D01*
X101314891Y-93371107D01*
X101426032Y-93349000D01*
X101573968Y-93349000D01*
X101685109Y-93371107D01*
G37*
G36*
X106765109Y-93371107D02*
G01*
X106799059Y-93377860D01*
X106935732Y-93434472D01*
X107058735Y-93516660D01*
X107163340Y-93621265D01*
X107245528Y-93744268D01*
X107245529Y-93744270D01*
X107302140Y-93880941D01*
X107331000Y-94026032D01*
X107331000Y-94173968D01*
X107302140Y-94319059D01*
X107245528Y-94455732D01*
X107163340Y-94578735D01*
X107058735Y-94683340D01*
X106935732Y-94765528D01*
X106935731Y-94765529D01*
X106935730Y-94765529D01*
X106799059Y-94822140D01*
X106653968Y-94851000D01*
X106506032Y-94851000D01*
X106360941Y-94822140D01*
X106224270Y-94765529D01*
X106224269Y-94765529D01*
X106224268Y-94765528D01*
X106101265Y-94683340D01*
X105996660Y-94578735D01*
X105914472Y-94455732D01*
X105857860Y-94319059D01*
X105829000Y-94173968D01*
X105829000Y-94026032D01*
X105857860Y-93880941D01*
X105914471Y-93744270D01*
X105914472Y-93744268D01*
X105996660Y-93621265D01*
X106101265Y-93516660D01*
X106224268Y-93434472D01*
X106360941Y-93377860D01*
X106394891Y-93371107D01*
X106506032Y-93349000D01*
X106653968Y-93349000D01*
X106765109Y-93371107D01*
G37*
G36*
X207585109Y-93371107D02*
G01*
X207619059Y-93377860D01*
X207755732Y-93434472D01*
X207878735Y-93516660D01*
X207983340Y-93621265D01*
X208065528Y-93744268D01*
X208065529Y-93744270D01*
X208122140Y-93880941D01*
X208151000Y-94026032D01*
X208151000Y-94173968D01*
X208122140Y-94319059D01*
X208065528Y-94455732D01*
X207983340Y-94578735D01*
X207878735Y-94683340D01*
X207755732Y-94765528D01*
X207755731Y-94765529D01*
X207755730Y-94765529D01*
X207619059Y-94822140D01*
X207473968Y-94851000D01*
X207326032Y-94851000D01*
X207180941Y-94822140D01*
X207044270Y-94765529D01*
X207044269Y-94765529D01*
X207044268Y-94765528D01*
X206921265Y-94683340D01*
X206816660Y-94578735D01*
X206734472Y-94455732D01*
X206677860Y-94319059D01*
X206649000Y-94173968D01*
X206649000Y-94026032D01*
X206677860Y-93880941D01*
X206734471Y-93744270D01*
X206734472Y-93744268D01*
X206816660Y-93621265D01*
X206921265Y-93516660D01*
X207044268Y-93434472D01*
X207180941Y-93377860D01*
X207214891Y-93371107D01*
X207326032Y-93349000D01*
X207473968Y-93349000D01*
X207585109Y-93371107D01*
G37*
G36*
X249633642Y-92679781D02*
G01*
X249779414Y-92740162D01*
X249779416Y-92740163D01*
X249910608Y-92827822D01*
X250022178Y-92939392D01*
X250109837Y-93070584D01*
X250109838Y-93070586D01*
X250170219Y-93216358D01*
X250201000Y-93371107D01*
X250201000Y-93528893D01*
X250170219Y-93683642D01*
X250128922Y-93783341D01*
X250109837Y-93829416D01*
X250022178Y-93960608D01*
X249910608Y-94072178D01*
X249779416Y-94159837D01*
X249779415Y-94159838D01*
X249779414Y-94159838D01*
X249633642Y-94220219D01*
X249478893Y-94251000D01*
X249321107Y-94251000D01*
X249166358Y-94220219D01*
X249020586Y-94159838D01*
X249020585Y-94159838D01*
X249020584Y-94159837D01*
X248889392Y-94072178D01*
X248777822Y-93960608D01*
X248690163Y-93829416D01*
X248671078Y-93783341D01*
X248629781Y-93683642D01*
X248599000Y-93528893D01*
X248599000Y-93371107D01*
X248629781Y-93216358D01*
X248690162Y-93070586D01*
X248690163Y-93070584D01*
X248777822Y-92939392D01*
X248889392Y-92827822D01*
X249020584Y-92740163D01*
X249020586Y-92740162D01*
X249166358Y-92679781D01*
X249321107Y-92649000D01*
X249478893Y-92649000D01*
X249633642Y-92679781D01*
G37*
G36*
X251633642Y-92679781D02*
G01*
X251779414Y-92740162D01*
X251779416Y-92740163D01*
X251910608Y-92827822D01*
X252022178Y-92939392D01*
X252109837Y-93070584D01*
X252109838Y-93070586D01*
X252170219Y-93216358D01*
X252201000Y-93371107D01*
X252201000Y-93528893D01*
X252170219Y-93683642D01*
X252128922Y-93783341D01*
X252109837Y-93829416D01*
X252022178Y-93960608D01*
X251910608Y-94072178D01*
X251779416Y-94159837D01*
X251779415Y-94159838D01*
X251779414Y-94159838D01*
X251633642Y-94220219D01*
X251478893Y-94251000D01*
X251321107Y-94251000D01*
X251166358Y-94220219D01*
X251020586Y-94159838D01*
X251020585Y-94159838D01*
X251020584Y-94159837D01*
X250889392Y-94072178D01*
X250777822Y-93960608D01*
X250690163Y-93829416D01*
X250671078Y-93783341D01*
X250629781Y-93683642D01*
X250599000Y-93528893D01*
X250599000Y-93371107D01*
X250629781Y-93216358D01*
X250690162Y-93070586D01*
X250690163Y-93070584D01*
X250777822Y-92939392D01*
X250889392Y-92827822D01*
X251020584Y-92740163D01*
X251020586Y-92740162D01*
X251166358Y-92679781D01*
X251321107Y-92649000D01*
X251478893Y-92649000D01*
X251633642Y-92679781D01*
G37*
G36*
X247633642Y-92679781D02*
G01*
X247779414Y-92740162D01*
X247779416Y-92740163D01*
X247910608Y-92827822D01*
X248022178Y-92939392D01*
X248109837Y-93070584D01*
X248109838Y-93070586D01*
X248170219Y-93216358D01*
X248201000Y-93371107D01*
X248201000Y-93528893D01*
X248170219Y-93683642D01*
X248128922Y-93783341D01*
X248109837Y-93829416D01*
X248022178Y-93960608D01*
X247910608Y-94072178D01*
X247779416Y-94159837D01*
X247779415Y-94159838D01*
X247779414Y-94159838D01*
X247633642Y-94220219D01*
X247478893Y-94251000D01*
X247321107Y-94251000D01*
X247166358Y-94220219D01*
X247020586Y-94159838D01*
X247020585Y-94159838D01*
X247020584Y-94159837D01*
X246889392Y-94072178D01*
X246777822Y-93960608D01*
X246690163Y-93829416D01*
X246671078Y-93783341D01*
X246629781Y-93683642D01*
X246599000Y-93528893D01*
X246599000Y-93371107D01*
X246629781Y-93216358D01*
X246690162Y-93070586D01*
X246690163Y-93070584D01*
X246777822Y-92939392D01*
X246889392Y-92827822D01*
X247020584Y-92740163D01*
X247020586Y-92740162D01*
X247166358Y-92679781D01*
X247321107Y-92649000D01*
X247478893Y-92649000D01*
X247633642Y-92679781D01*
G37*
G36*
X255633642Y-92679781D02*
G01*
X255779414Y-92740162D01*
X255779416Y-92740163D01*
X255910608Y-92827822D01*
X256022178Y-92939392D01*
X256109837Y-93070584D01*
X256109838Y-93070586D01*
X256170219Y-93216358D01*
X256201000Y-93371107D01*
X256201000Y-93528893D01*
X256170219Y-93683642D01*
X256128922Y-93783341D01*
X256109837Y-93829416D01*
X256022178Y-93960608D01*
X255910608Y-94072178D01*
X255779416Y-94159837D01*
X255779415Y-94159838D01*
X255779414Y-94159838D01*
X255633642Y-94220219D01*
X255478893Y-94251000D01*
X255321107Y-94251000D01*
X255166358Y-94220219D01*
X255020586Y-94159838D01*
X255020585Y-94159838D01*
X255020584Y-94159837D01*
X254889392Y-94072178D01*
X254777822Y-93960608D01*
X254690163Y-93829416D01*
X254671078Y-93783341D01*
X254629781Y-93683642D01*
X254599000Y-93528893D01*
X254599000Y-93371107D01*
X254629781Y-93216358D01*
X254690162Y-93070586D01*
X254690163Y-93070584D01*
X254777822Y-92939392D01*
X254889392Y-92827822D01*
X255020584Y-92740163D01*
X255020586Y-92740162D01*
X255166358Y-92679781D01*
X255321107Y-92649000D01*
X255478893Y-92649000D01*
X255633642Y-92679781D01*
G37*
G36*
X257633642Y-92679781D02*
G01*
X257779414Y-92740162D01*
X257779416Y-92740163D01*
X257910608Y-92827822D01*
X258022178Y-92939392D01*
X258109837Y-93070584D01*
X258109838Y-93070586D01*
X258170219Y-93216358D01*
X258201000Y-93371107D01*
X258201000Y-93528893D01*
X258170219Y-93683642D01*
X258128922Y-93783341D01*
X258109837Y-93829416D01*
X258022178Y-93960608D01*
X257910608Y-94072178D01*
X257779416Y-94159837D01*
X257779415Y-94159838D01*
X257779414Y-94159838D01*
X257633642Y-94220219D01*
X257478893Y-94251000D01*
X257321107Y-94251000D01*
X257166358Y-94220219D01*
X257020586Y-94159838D01*
X257020585Y-94159838D01*
X257020584Y-94159837D01*
X256889392Y-94072178D01*
X256777822Y-93960608D01*
X256690163Y-93829416D01*
X256671078Y-93783341D01*
X256629781Y-93683642D01*
X256599000Y-93528893D01*
X256599000Y-93371107D01*
X256629781Y-93216358D01*
X256690162Y-93070586D01*
X256690163Y-93070584D01*
X256777822Y-92939392D01*
X256889392Y-92827822D01*
X257020584Y-92740163D01*
X257020586Y-92740162D01*
X257166358Y-92679781D01*
X257321107Y-92649000D01*
X257478893Y-92649000D01*
X257633642Y-92679781D01*
G37*
G36*
X253633642Y-92679781D02*
G01*
X253779414Y-92740162D01*
X253779416Y-92740163D01*
X253910608Y-92827822D01*
X254022178Y-92939392D01*
X254109837Y-93070584D01*
X254109838Y-93070586D01*
X254170219Y-93216358D01*
X254201000Y-93371107D01*
X254201000Y-93528893D01*
X254170219Y-93683642D01*
X254128922Y-93783341D01*
X254109837Y-93829416D01*
X254022178Y-93960608D01*
X253910608Y-94072178D01*
X253779416Y-94159837D01*
X253779415Y-94159838D01*
X253779414Y-94159838D01*
X253633642Y-94220219D01*
X253478893Y-94251000D01*
X253321107Y-94251000D01*
X253166358Y-94220219D01*
X253020586Y-94159838D01*
X253020585Y-94159838D01*
X253020584Y-94159837D01*
X252889392Y-94072178D01*
X252777822Y-93960608D01*
X252690163Y-93829416D01*
X252671078Y-93783341D01*
X252629781Y-93683642D01*
X252599000Y-93528893D01*
X252599000Y-93371107D01*
X252629781Y-93216358D01*
X252690162Y-93070586D01*
X252690163Y-93070584D01*
X252777822Y-92939392D01*
X252889392Y-92827822D01*
X253020584Y-92740163D01*
X253020586Y-92740162D01*
X253166358Y-92679781D01*
X253321107Y-92649000D01*
X253478893Y-92649000D01*
X253633642Y-92679781D01*
G37*
G36*
X225239059Y-92477860D02*
G01*
X225340804Y-92520004D01*
X225375732Y-92534472D01*
X225498735Y-92616660D01*
X225603340Y-92721265D01*
X225615967Y-92740163D01*
X225685529Y-92844270D01*
X225742140Y-92980941D01*
X225771000Y-93126032D01*
X225771000Y-93273968D01*
X225756701Y-93345853D01*
X225742140Y-93419059D01*
X225685528Y-93555732D01*
X225603340Y-93678735D01*
X225498735Y-93783340D01*
X225375732Y-93865528D01*
X225375731Y-93865529D01*
X225375730Y-93865529D01*
X225239059Y-93922140D01*
X225093968Y-93951000D01*
X224946032Y-93951000D01*
X224800941Y-93922140D01*
X224664270Y-93865529D01*
X224664269Y-93865529D01*
X224664268Y-93865528D01*
X224541265Y-93783340D01*
X224436660Y-93678735D01*
X224354472Y-93555732D01*
X224297860Y-93419059D01*
X224283299Y-93345853D01*
X224269000Y-93273968D01*
X224269000Y-93126032D01*
X224297860Y-92980941D01*
X224354471Y-92844270D01*
X224424033Y-92740163D01*
X224436660Y-92721265D01*
X224541265Y-92616660D01*
X224664268Y-92534472D01*
X224699197Y-92520004D01*
X224800941Y-92477860D01*
X224946032Y-92449000D01*
X225093968Y-92449000D01*
X225239059Y-92477860D01*
G37*
G36*
X230319059Y-92477860D02*
G01*
X230420804Y-92520004D01*
X230455732Y-92534472D01*
X230578735Y-92616660D01*
X230683340Y-92721265D01*
X230695967Y-92740163D01*
X230765529Y-92844270D01*
X230822140Y-92980941D01*
X230851000Y-93126032D01*
X230851000Y-93273968D01*
X230836701Y-93345853D01*
X230822140Y-93419059D01*
X230765528Y-93555732D01*
X230683340Y-93678735D01*
X230578735Y-93783340D01*
X230455732Y-93865528D01*
X230455731Y-93865529D01*
X230455730Y-93865529D01*
X230319059Y-93922140D01*
X230173968Y-93951000D01*
X230026032Y-93951000D01*
X229880941Y-93922140D01*
X229744270Y-93865529D01*
X229744269Y-93865529D01*
X229744268Y-93865528D01*
X229621265Y-93783340D01*
X229516660Y-93678735D01*
X229434472Y-93555732D01*
X229377860Y-93419059D01*
X229363299Y-93345853D01*
X229349000Y-93273968D01*
X229349000Y-93126032D01*
X229377860Y-92980941D01*
X229434471Y-92844270D01*
X229504033Y-92740163D01*
X229516660Y-92721265D01*
X229621265Y-92616660D01*
X229744268Y-92534472D01*
X229779197Y-92520004D01*
X229880941Y-92477860D01*
X230026032Y-92449000D01*
X230173968Y-92449000D01*
X230319059Y-92477860D01*
G37*
G36*
X152151000Y-91314007D02*
G01*
X152153402Y-91338393D01*
X152160515Y-91361842D01*
X152172066Y-91383453D01*
X152187611Y-91402395D01*
X152206553Y-91417940D01*
X152228164Y-91429491D01*
X152251613Y-91436604D01*
X152275999Y-91439006D01*
X152300385Y-91436604D01*
X152323834Y-91429491D01*
X152345445Y-91417940D01*
X152364387Y-91402395D01*
X152379932Y-91383453D01*
X152391483Y-91361842D01*
X152398596Y-91338393D01*
X152422810Y-91216660D01*
X152433232Y-91164266D01*
X152519997Y-90954797D01*
X152645960Y-90766280D01*
X152806280Y-90605960D01*
X152994797Y-90479997D01*
X153204266Y-90393232D01*
X153315451Y-90371116D01*
X153426635Y-90349000D01*
X153653365Y-90349000D01*
X153764549Y-90371116D01*
X153875734Y-90393232D01*
X154085203Y-90479997D01*
X154273720Y-90605960D01*
X154434040Y-90766280D01*
X154560003Y-90954797D01*
X154646768Y-91164266D01*
X154657190Y-91216660D01*
X154687403Y-91368552D01*
X154694516Y-91392001D01*
X154706067Y-91413612D01*
X154721612Y-91432554D01*
X154740554Y-91448099D01*
X154762165Y-91459650D01*
X154785614Y-91466763D01*
X154810000Y-91469165D01*
X154834386Y-91466763D01*
X154857835Y-91459650D01*
X154879446Y-91448099D01*
X154898388Y-91432554D01*
X154913933Y-91413612D01*
X154925484Y-91392001D01*
X154932597Y-91368552D01*
X154962810Y-91216660D01*
X154973232Y-91164266D01*
X155059997Y-90954797D01*
X155185960Y-90766280D01*
X155346280Y-90605960D01*
X155534797Y-90479997D01*
X155744266Y-90393232D01*
X155855451Y-90371116D01*
X155966635Y-90349000D01*
X156193365Y-90349000D01*
X156304549Y-90371116D01*
X156415734Y-90393232D01*
X156625203Y-90479997D01*
X156813720Y-90605960D01*
X156974040Y-90766280D01*
X157100003Y-90954797D01*
X157186768Y-91164266D01*
X157197190Y-91216660D01*
X157227403Y-91368552D01*
X157234516Y-91392001D01*
X157246067Y-91413612D01*
X157261612Y-91432554D01*
X157280554Y-91448099D01*
X157302165Y-91459650D01*
X157325614Y-91466763D01*
X157350000Y-91469165D01*
X157374386Y-91466763D01*
X157397835Y-91459650D01*
X157419446Y-91448099D01*
X157438388Y-91432554D01*
X157453933Y-91413612D01*
X157465484Y-91392001D01*
X157472597Y-91368552D01*
X157502810Y-91216660D01*
X157513232Y-91164266D01*
X157599997Y-90954797D01*
X157725960Y-90766280D01*
X157886280Y-90605960D01*
X158074797Y-90479997D01*
X158284266Y-90393232D01*
X158395451Y-90371116D01*
X158506635Y-90349000D01*
X158733365Y-90349000D01*
X158844549Y-90371116D01*
X158955734Y-90393232D01*
X159165203Y-90479997D01*
X159353720Y-90605960D01*
X159514040Y-90766280D01*
X159640003Y-90954797D01*
X159726768Y-91164266D01*
X159737190Y-91216660D01*
X159767403Y-91368552D01*
X159774516Y-91392001D01*
X159786067Y-91413612D01*
X159801612Y-91432554D01*
X159820554Y-91448099D01*
X159842165Y-91459650D01*
X159865614Y-91466763D01*
X159890000Y-91469165D01*
X159914386Y-91466763D01*
X159937835Y-91459650D01*
X159959446Y-91448099D01*
X159978388Y-91432554D01*
X159993933Y-91413612D01*
X160005484Y-91392001D01*
X160012597Y-91368552D01*
X160042810Y-91216660D01*
X160053232Y-91164266D01*
X160139997Y-90954797D01*
X160265960Y-90766280D01*
X160426280Y-90605960D01*
X160614797Y-90479997D01*
X160824266Y-90393232D01*
X160935451Y-90371116D01*
X161046635Y-90349000D01*
X161273365Y-90349000D01*
X161384549Y-90371116D01*
X161495734Y-90393232D01*
X161705203Y-90479997D01*
X161893720Y-90605960D01*
X162054040Y-90766280D01*
X162180003Y-90954797D01*
X162266768Y-91164266D01*
X162277190Y-91216660D01*
X162307403Y-91368552D01*
X162314516Y-91392001D01*
X162326067Y-91413612D01*
X162341612Y-91432554D01*
X162360554Y-91448099D01*
X162382165Y-91459650D01*
X162405614Y-91466763D01*
X162430000Y-91469165D01*
X162454386Y-91466763D01*
X162477835Y-91459650D01*
X162499446Y-91448099D01*
X162518388Y-91432554D01*
X162533933Y-91413612D01*
X162545484Y-91392001D01*
X162552597Y-91368552D01*
X162582810Y-91216660D01*
X162593232Y-91164266D01*
X162679997Y-90954797D01*
X162805960Y-90766280D01*
X162966280Y-90605960D01*
X163154797Y-90479997D01*
X163364266Y-90393232D01*
X163475451Y-90371116D01*
X163586635Y-90349000D01*
X163813365Y-90349000D01*
X163924549Y-90371116D01*
X164035734Y-90393232D01*
X164245203Y-90479997D01*
X164433720Y-90605960D01*
X164594040Y-90766280D01*
X164720003Y-90954797D01*
X164806768Y-91164266D01*
X164817190Y-91216660D01*
X164847403Y-91368552D01*
X164854516Y-91392001D01*
X164866067Y-91413612D01*
X164881612Y-91432554D01*
X164900554Y-91448099D01*
X164922165Y-91459650D01*
X164945614Y-91466763D01*
X164970000Y-91469165D01*
X164994386Y-91466763D01*
X165017835Y-91459650D01*
X165039446Y-91448099D01*
X165058388Y-91432554D01*
X165073933Y-91413612D01*
X165085484Y-91392001D01*
X165092597Y-91368552D01*
X165122810Y-91216660D01*
X165133232Y-91164266D01*
X165219997Y-90954797D01*
X165345960Y-90766280D01*
X165506280Y-90605960D01*
X165694797Y-90479997D01*
X165904266Y-90393232D01*
X166015451Y-90371116D01*
X166126635Y-90349000D01*
X166353365Y-90349000D01*
X166464549Y-90371116D01*
X166575734Y-90393232D01*
X166785203Y-90479997D01*
X166973720Y-90605960D01*
X167134040Y-90766280D01*
X167260003Y-90954797D01*
X167346768Y-91164266D01*
X167391000Y-91386636D01*
X167391000Y-91613364D01*
X167346768Y-91835734D01*
X167260003Y-92045203D01*
X167134040Y-92233720D01*
X166973720Y-92394040D01*
X166785203Y-92520003D01*
X166575734Y-92606768D01*
X166526008Y-92616659D01*
X166353365Y-92651000D01*
X166126635Y-92651000D01*
X165953992Y-92616659D01*
X165904266Y-92606768D01*
X165694797Y-92520003D01*
X165506280Y-92394040D01*
X165345960Y-92233720D01*
X165219997Y-92045203D01*
X165133232Y-91835734D01*
X165092597Y-91631448D01*
X165085484Y-91607999D01*
X165073933Y-91586388D01*
X165058388Y-91567446D01*
X165039446Y-91551901D01*
X165017835Y-91540350D01*
X164994386Y-91533237D01*
X164970000Y-91530835D01*
X164945614Y-91533237D01*
X164922165Y-91540350D01*
X164900554Y-91551901D01*
X164881612Y-91567446D01*
X164866067Y-91586388D01*
X164854516Y-91607999D01*
X164847403Y-91631448D01*
X164806768Y-91835734D01*
X164720003Y-92045203D01*
X164594040Y-92233720D01*
X164433720Y-92394040D01*
X164245203Y-92520003D01*
X164035734Y-92606768D01*
X163986008Y-92616659D01*
X163813365Y-92651000D01*
X163586635Y-92651000D01*
X163413992Y-92616659D01*
X163364266Y-92606768D01*
X163154797Y-92520003D01*
X162966280Y-92394040D01*
X162805960Y-92233720D01*
X162679997Y-92045203D01*
X162593232Y-91835734D01*
X162552597Y-91631448D01*
X162545484Y-91607999D01*
X162533933Y-91586388D01*
X162518388Y-91567446D01*
X162499446Y-91551901D01*
X162477835Y-91540350D01*
X162454386Y-91533237D01*
X162430000Y-91530835D01*
X162405614Y-91533237D01*
X162382165Y-91540350D01*
X162360554Y-91551901D01*
X162341612Y-91567446D01*
X162326067Y-91586388D01*
X162314516Y-91607999D01*
X162307403Y-91631448D01*
X162266768Y-91835734D01*
X162180003Y-92045203D01*
X162054040Y-92233720D01*
X161893720Y-92394040D01*
X161705203Y-92520003D01*
X161495734Y-92606768D01*
X161446008Y-92616659D01*
X161273365Y-92651000D01*
X161046635Y-92651000D01*
X160873992Y-92616659D01*
X160824266Y-92606768D01*
X160614797Y-92520003D01*
X160426280Y-92394040D01*
X160265960Y-92233720D01*
X160139997Y-92045203D01*
X160053232Y-91835734D01*
X160012597Y-91631448D01*
X160005484Y-91607999D01*
X159993933Y-91586388D01*
X159978388Y-91567446D01*
X159959446Y-91551901D01*
X159937835Y-91540350D01*
X159914386Y-91533237D01*
X159890000Y-91530835D01*
X159865614Y-91533237D01*
X159842165Y-91540350D01*
X159820554Y-91551901D01*
X159801612Y-91567446D01*
X159786067Y-91586388D01*
X159774516Y-91607999D01*
X159767403Y-91631448D01*
X159726768Y-91835734D01*
X159640003Y-92045203D01*
X159514040Y-92233720D01*
X159353720Y-92394040D01*
X159165203Y-92520003D01*
X158955734Y-92606768D01*
X158906008Y-92616659D01*
X158733365Y-92651000D01*
X158506635Y-92651000D01*
X158333992Y-92616659D01*
X158284266Y-92606768D01*
X158074797Y-92520003D01*
X157886280Y-92394040D01*
X157725960Y-92233720D01*
X157599997Y-92045203D01*
X157513232Y-91835734D01*
X157472597Y-91631448D01*
X157465484Y-91607999D01*
X157453933Y-91586388D01*
X157438388Y-91567446D01*
X157419446Y-91551901D01*
X157397835Y-91540350D01*
X157374386Y-91533237D01*
X157350000Y-91530835D01*
X157325614Y-91533237D01*
X157302165Y-91540350D01*
X157280554Y-91551901D01*
X157261612Y-91567446D01*
X157246067Y-91586388D01*
X157234516Y-91607999D01*
X157227403Y-91631448D01*
X157186768Y-91835734D01*
X157100003Y-92045203D01*
X156974040Y-92233720D01*
X156813720Y-92394040D01*
X156625203Y-92520003D01*
X156415734Y-92606768D01*
X156366008Y-92616659D01*
X156193365Y-92651000D01*
X155966635Y-92651000D01*
X155793992Y-92616659D01*
X155744266Y-92606768D01*
X155534797Y-92520003D01*
X155346280Y-92394040D01*
X155185960Y-92233720D01*
X155059997Y-92045203D01*
X154973232Y-91835734D01*
X154932597Y-91631448D01*
X154925484Y-91607999D01*
X154913933Y-91586388D01*
X154898388Y-91567446D01*
X154879446Y-91551901D01*
X154857835Y-91540350D01*
X154834386Y-91533237D01*
X154810000Y-91530835D01*
X154785614Y-91533237D01*
X154762165Y-91540350D01*
X154740554Y-91551901D01*
X154721612Y-91567446D01*
X154706067Y-91586388D01*
X154694516Y-91607999D01*
X154687403Y-91631448D01*
X154646768Y-91835734D01*
X154560003Y-92045203D01*
X154434040Y-92233720D01*
X154273720Y-92394040D01*
X154085203Y-92520003D01*
X153875734Y-92606768D01*
X153826008Y-92616659D01*
X153653365Y-92651000D01*
X153426635Y-92651000D01*
X153253992Y-92616659D01*
X153204266Y-92606768D01*
X152994797Y-92520003D01*
X152806280Y-92394040D01*
X152645960Y-92233720D01*
X152519997Y-92045203D01*
X152433232Y-91835734D01*
X152398596Y-91661607D01*
X152391483Y-91638158D01*
X152379932Y-91616547D01*
X152364387Y-91597605D01*
X152345445Y-91582060D01*
X152323834Y-91570509D01*
X152300385Y-91563396D01*
X152275999Y-91560994D01*
X152251613Y-91563396D01*
X152228164Y-91570509D01*
X152206553Y-91582060D01*
X152187611Y-91597605D01*
X152172066Y-91616547D01*
X152160515Y-91638158D01*
X152153402Y-91661607D01*
X152151000Y-91685993D01*
X152151000Y-92651000D01*
X149849000Y-92651000D01*
X149849000Y-90349000D01*
X152151000Y-90349000D01*
X152151000Y-91314007D01*
G37*
G36*
X211350716Y-91164266D02*
G01*
X211419059Y-91177860D01*
X211555732Y-91234472D01*
X211678735Y-91316660D01*
X211783340Y-91421265D01*
X211856552Y-91530835D01*
X211865529Y-91544270D01*
X211922140Y-91680941D01*
X211951000Y-91826032D01*
X211951000Y-91973968D01*
X211922140Y-92119059D01*
X211906950Y-92155732D01*
X211865528Y-92255732D01*
X211783340Y-92378735D01*
X211678735Y-92483340D01*
X211555732Y-92565528D01*
X211555731Y-92565529D01*
X211555730Y-92565529D01*
X211419059Y-92622140D01*
X211273968Y-92651000D01*
X211126032Y-92651000D01*
X210980941Y-92622140D01*
X210844270Y-92565529D01*
X210844269Y-92565529D01*
X210844268Y-92565528D01*
X210721265Y-92483340D01*
X210616660Y-92378735D01*
X210534472Y-92255732D01*
X210493051Y-92155732D01*
X210477860Y-92119059D01*
X210449000Y-91973968D01*
X210449000Y-91826032D01*
X210477860Y-91680941D01*
X210534471Y-91544270D01*
X210543448Y-91530835D01*
X210616660Y-91421265D01*
X210721265Y-91316660D01*
X210844268Y-91234472D01*
X210980941Y-91177860D01*
X211049284Y-91164266D01*
X211126032Y-91149000D01*
X211273968Y-91149000D01*
X211350716Y-91164266D01*
G37*
G36*
X216430716Y-91164266D02*
G01*
X216499059Y-91177860D01*
X216635732Y-91234472D01*
X216758735Y-91316660D01*
X216863340Y-91421265D01*
X216936552Y-91530835D01*
X216945529Y-91544270D01*
X217002140Y-91680941D01*
X217031000Y-91826032D01*
X217031000Y-91973968D01*
X217002140Y-92119059D01*
X216986950Y-92155732D01*
X216945528Y-92255732D01*
X216863340Y-92378735D01*
X216758735Y-92483340D01*
X216635732Y-92565528D01*
X216635731Y-92565529D01*
X216635730Y-92565529D01*
X216499059Y-92622140D01*
X216353968Y-92651000D01*
X216206032Y-92651000D01*
X216060941Y-92622140D01*
X215924270Y-92565529D01*
X215924269Y-92565529D01*
X215924268Y-92565528D01*
X215801265Y-92483340D01*
X215696660Y-92378735D01*
X215614472Y-92255732D01*
X215573051Y-92155732D01*
X215557860Y-92119059D01*
X215529000Y-91973968D01*
X215529000Y-91826032D01*
X215557860Y-91680941D01*
X215614471Y-91544270D01*
X215623448Y-91530835D01*
X215696660Y-91421265D01*
X215801265Y-91316660D01*
X215924268Y-91234472D01*
X216060941Y-91177860D01*
X216129284Y-91164266D01*
X216206032Y-91149000D01*
X216353968Y-91149000D01*
X216430716Y-91164266D01*
G37*
G36*
X115999059Y-91077860D02*
G01*
X116135732Y-91134472D01*
X116258735Y-91216660D01*
X116363340Y-91321265D01*
X116410604Y-91392001D01*
X116445529Y-91444270D01*
X116502140Y-91580941D01*
X116529844Y-91720218D01*
X116531000Y-91726033D01*
X116531000Y-91873967D01*
X116502140Y-92019059D01*
X116445528Y-92155732D01*
X116363340Y-92278735D01*
X116258735Y-92383340D01*
X116135732Y-92465528D01*
X116135731Y-92465529D01*
X116135730Y-92465529D01*
X115999059Y-92522140D01*
X115853968Y-92551000D01*
X115706032Y-92551000D01*
X115560941Y-92522140D01*
X115424270Y-92465529D01*
X115424269Y-92465529D01*
X115424268Y-92465528D01*
X115301265Y-92383340D01*
X115196660Y-92278735D01*
X115114472Y-92155732D01*
X115057860Y-92019059D01*
X115029000Y-91873967D01*
X115029000Y-91726033D01*
X115030157Y-91720218D01*
X115057860Y-91580941D01*
X115114471Y-91444270D01*
X115149396Y-91392001D01*
X115196660Y-91321265D01*
X115301265Y-91216660D01*
X115424268Y-91134472D01*
X115560941Y-91077860D01*
X115706032Y-91049000D01*
X115853968Y-91049000D01*
X115999059Y-91077860D01*
G37*
G36*
X110919059Y-91077860D02*
G01*
X111055732Y-91134472D01*
X111178735Y-91216660D01*
X111283340Y-91321265D01*
X111330604Y-91392001D01*
X111365529Y-91444270D01*
X111422140Y-91580941D01*
X111449844Y-91720218D01*
X111451000Y-91726033D01*
X111451000Y-91873967D01*
X111422140Y-92019059D01*
X111365528Y-92155732D01*
X111283340Y-92278735D01*
X111178735Y-92383340D01*
X111055732Y-92465528D01*
X111055731Y-92465529D01*
X111055730Y-92465529D01*
X110919059Y-92522140D01*
X110773968Y-92551000D01*
X110626032Y-92551000D01*
X110480941Y-92522140D01*
X110344270Y-92465529D01*
X110344269Y-92465529D01*
X110344268Y-92465528D01*
X110221265Y-92383340D01*
X110116660Y-92278735D01*
X110034472Y-92155732D01*
X109977860Y-92019059D01*
X109949000Y-91873967D01*
X109949000Y-91726033D01*
X109950157Y-91720218D01*
X109977860Y-91580941D01*
X110034471Y-91444270D01*
X110069396Y-91392001D01*
X110116660Y-91321265D01*
X110221265Y-91216660D01*
X110344268Y-91134472D01*
X110480941Y-91077860D01*
X110626032Y-91049000D01*
X110773968Y-91049000D01*
X110919059Y-91077860D01*
G37*
G36*
X103319059Y-91077860D02*
G01*
X103455732Y-91134472D01*
X103578735Y-91216660D01*
X103683340Y-91321265D01*
X103730604Y-91392001D01*
X103765529Y-91444270D01*
X103822140Y-91580941D01*
X103849844Y-91720218D01*
X103851000Y-91726033D01*
X103851000Y-91873967D01*
X103822140Y-92019059D01*
X103765528Y-92155732D01*
X103683340Y-92278735D01*
X103578735Y-92383340D01*
X103455732Y-92465528D01*
X103455731Y-92465529D01*
X103455730Y-92465529D01*
X103319059Y-92522140D01*
X103173968Y-92551000D01*
X103026032Y-92551000D01*
X102880941Y-92522140D01*
X102744270Y-92465529D01*
X102744269Y-92465529D01*
X102744268Y-92465528D01*
X102621265Y-92383340D01*
X102516660Y-92278735D01*
X102434472Y-92155732D01*
X102377860Y-92019059D01*
X102349000Y-91873967D01*
X102349000Y-91726033D01*
X102350157Y-91720218D01*
X102377860Y-91580941D01*
X102434471Y-91444270D01*
X102469396Y-91392001D01*
X102516660Y-91321265D01*
X102621265Y-91216660D01*
X102744268Y-91134472D01*
X102880941Y-91077860D01*
X103026032Y-91049000D01*
X103173968Y-91049000D01*
X103319059Y-91077860D01*
G37*
G36*
X108399059Y-91077860D02*
G01*
X108535732Y-91134472D01*
X108658735Y-91216660D01*
X108763340Y-91321265D01*
X108810604Y-91392001D01*
X108845529Y-91444270D01*
X108902140Y-91580941D01*
X108929844Y-91720218D01*
X108931000Y-91726033D01*
X108931000Y-91873967D01*
X108902140Y-92019059D01*
X108845528Y-92155732D01*
X108763340Y-92278735D01*
X108658735Y-92383340D01*
X108535732Y-92465528D01*
X108535731Y-92465529D01*
X108535730Y-92465529D01*
X108399059Y-92522140D01*
X108253968Y-92551000D01*
X108106032Y-92551000D01*
X107960941Y-92522140D01*
X107824270Y-92465529D01*
X107824269Y-92465529D01*
X107824268Y-92465528D01*
X107701265Y-92383340D01*
X107596660Y-92278735D01*
X107514472Y-92155732D01*
X107457860Y-92019059D01*
X107429000Y-91873967D01*
X107429000Y-91726033D01*
X107430157Y-91720218D01*
X107457860Y-91580941D01*
X107514471Y-91444270D01*
X107549396Y-91392001D01*
X107596660Y-91321265D01*
X107701265Y-91216660D01*
X107824268Y-91134472D01*
X107960941Y-91077860D01*
X108106032Y-91049000D01*
X108253968Y-91049000D01*
X108399059Y-91077860D01*
G37*
G36*
X255633642Y-90179781D02*
G01*
X255779414Y-90240162D01*
X255779416Y-90240163D01*
X255910608Y-90327822D01*
X256022178Y-90439392D01*
X256049309Y-90479997D01*
X256109838Y-90570586D01*
X256170219Y-90716358D01*
X256201000Y-90871107D01*
X256201000Y-91028893D01*
X256170219Y-91183642D01*
X256109838Y-91329414D01*
X256109837Y-91329416D01*
X256022178Y-91460608D01*
X255910608Y-91572178D01*
X255779416Y-91659837D01*
X255779415Y-91659838D01*
X255779414Y-91659838D01*
X255633642Y-91720219D01*
X255478893Y-91751000D01*
X255321107Y-91751000D01*
X255166358Y-91720219D01*
X255020586Y-91659838D01*
X255020585Y-91659838D01*
X255020584Y-91659837D01*
X254889392Y-91572178D01*
X254777822Y-91460608D01*
X254690163Y-91329416D01*
X254690162Y-91329414D01*
X254629781Y-91183642D01*
X254599000Y-91028893D01*
X254599000Y-90871107D01*
X254629781Y-90716358D01*
X254690162Y-90570586D01*
X254750691Y-90479997D01*
X254777822Y-90439392D01*
X254889392Y-90327822D01*
X255020584Y-90240163D01*
X255020586Y-90240162D01*
X255166358Y-90179781D01*
X255321107Y-90149000D01*
X255478893Y-90149000D01*
X255633642Y-90179781D01*
G37*
G36*
X253633642Y-90179781D02*
G01*
X253779414Y-90240162D01*
X253779416Y-90240163D01*
X253910608Y-90327822D01*
X254022178Y-90439392D01*
X254049309Y-90479997D01*
X254109838Y-90570586D01*
X254170219Y-90716358D01*
X254201000Y-90871107D01*
X254201000Y-91028893D01*
X254170219Y-91183642D01*
X254109838Y-91329414D01*
X254109837Y-91329416D01*
X254022178Y-91460608D01*
X253910608Y-91572178D01*
X253779416Y-91659837D01*
X253779415Y-91659838D01*
X253779414Y-91659838D01*
X253633642Y-91720219D01*
X253478893Y-91751000D01*
X253321107Y-91751000D01*
X253166358Y-91720219D01*
X253020586Y-91659838D01*
X253020585Y-91659838D01*
X253020584Y-91659837D01*
X252889392Y-91572178D01*
X252777822Y-91460608D01*
X252690163Y-91329416D01*
X252690162Y-91329414D01*
X252629781Y-91183642D01*
X252599000Y-91028893D01*
X252599000Y-90871107D01*
X252629781Y-90716358D01*
X252690162Y-90570586D01*
X252750691Y-90479997D01*
X252777822Y-90439392D01*
X252889392Y-90327822D01*
X253020584Y-90240163D01*
X253020586Y-90240162D01*
X253166358Y-90179781D01*
X253321107Y-90149000D01*
X253478893Y-90149000D01*
X253633642Y-90179781D01*
G37*
G36*
X249633642Y-90179781D02*
G01*
X249779414Y-90240162D01*
X249779416Y-90240163D01*
X249910608Y-90327822D01*
X250022178Y-90439392D01*
X250049309Y-90479997D01*
X250109838Y-90570586D01*
X250170219Y-90716358D01*
X250201000Y-90871107D01*
X250201000Y-91028893D01*
X250170219Y-91183642D01*
X250109838Y-91329414D01*
X250109837Y-91329416D01*
X250022178Y-91460608D01*
X249910608Y-91572178D01*
X249779416Y-91659837D01*
X249779415Y-91659838D01*
X249779414Y-91659838D01*
X249633642Y-91720219D01*
X249478893Y-91751000D01*
X249321107Y-91751000D01*
X249166358Y-91720219D01*
X249020586Y-91659838D01*
X249020585Y-91659838D01*
X249020584Y-91659837D01*
X248889392Y-91572178D01*
X248777822Y-91460608D01*
X248690163Y-91329416D01*
X248690162Y-91329414D01*
X248629781Y-91183642D01*
X248599000Y-91028893D01*
X248599000Y-90871107D01*
X248629781Y-90716358D01*
X248690162Y-90570586D01*
X248750691Y-90479997D01*
X248777822Y-90439392D01*
X248889392Y-90327822D01*
X249020584Y-90240163D01*
X249020586Y-90240162D01*
X249166358Y-90179781D01*
X249321107Y-90149000D01*
X249478893Y-90149000D01*
X249633642Y-90179781D01*
G37*
G36*
X251633642Y-90179781D02*
G01*
X251779414Y-90240162D01*
X251779416Y-90240163D01*
X251910608Y-90327822D01*
X252022178Y-90439392D01*
X252049309Y-90479997D01*
X252109838Y-90570586D01*
X252170219Y-90716358D01*
X252201000Y-90871107D01*
X252201000Y-91028893D01*
X252170219Y-91183642D01*
X252109838Y-91329414D01*
X252109837Y-91329416D01*
X252022178Y-91460608D01*
X251910608Y-91572178D01*
X251779416Y-91659837D01*
X251779415Y-91659838D01*
X251779414Y-91659838D01*
X251633642Y-91720219D01*
X251478893Y-91751000D01*
X251321107Y-91751000D01*
X251166358Y-91720219D01*
X251020586Y-91659838D01*
X251020585Y-91659838D01*
X251020584Y-91659837D01*
X250889392Y-91572178D01*
X250777822Y-91460608D01*
X250690163Y-91329416D01*
X250690162Y-91329414D01*
X250629781Y-91183642D01*
X250599000Y-91028893D01*
X250599000Y-90871107D01*
X250629781Y-90716358D01*
X250690162Y-90570586D01*
X250750691Y-90479997D01*
X250777822Y-90439392D01*
X250889392Y-90327822D01*
X251020584Y-90240163D01*
X251020586Y-90240162D01*
X251166358Y-90179781D01*
X251321107Y-90149000D01*
X251478893Y-90149000D01*
X251633642Y-90179781D01*
G37*
G36*
X247633642Y-90179781D02*
G01*
X247779414Y-90240162D01*
X247779416Y-90240163D01*
X247910608Y-90327822D01*
X248022178Y-90439392D01*
X248049309Y-90479997D01*
X248109838Y-90570586D01*
X248170219Y-90716358D01*
X248201000Y-90871107D01*
X248201000Y-91028893D01*
X248170219Y-91183642D01*
X248109838Y-91329414D01*
X248109837Y-91329416D01*
X248022178Y-91460608D01*
X247910608Y-91572178D01*
X247779416Y-91659837D01*
X247779415Y-91659838D01*
X247779414Y-91659838D01*
X247633642Y-91720219D01*
X247478893Y-91751000D01*
X247321107Y-91751000D01*
X247166358Y-91720219D01*
X247020586Y-91659838D01*
X247020585Y-91659838D01*
X247020584Y-91659837D01*
X246889392Y-91572178D01*
X246777822Y-91460608D01*
X246690163Y-91329416D01*
X246690162Y-91329414D01*
X246629781Y-91183642D01*
X246599000Y-91028893D01*
X246599000Y-90871107D01*
X246629781Y-90716358D01*
X246690162Y-90570586D01*
X246750691Y-90479997D01*
X246777822Y-90439392D01*
X246889392Y-90327822D01*
X247020584Y-90240163D01*
X247020586Y-90240162D01*
X247166358Y-90179781D01*
X247321107Y-90149000D01*
X247478893Y-90149000D01*
X247633642Y-90179781D01*
G37*
G36*
X257633642Y-90179781D02*
G01*
X257779414Y-90240162D01*
X257779416Y-90240163D01*
X257910608Y-90327822D01*
X258022178Y-90439392D01*
X258049309Y-90479997D01*
X258109838Y-90570586D01*
X258170219Y-90716358D01*
X258201000Y-90871107D01*
X258201000Y-91028893D01*
X258170219Y-91183642D01*
X258109838Y-91329414D01*
X258109837Y-91329416D01*
X258022178Y-91460608D01*
X257910608Y-91572178D01*
X257779416Y-91659837D01*
X257779415Y-91659838D01*
X257779414Y-91659838D01*
X257633642Y-91720219D01*
X257478893Y-91751000D01*
X257321107Y-91751000D01*
X257166358Y-91720219D01*
X257020586Y-91659838D01*
X257020585Y-91659838D01*
X257020584Y-91659837D01*
X256889392Y-91572178D01*
X256777822Y-91460608D01*
X256690163Y-91329416D01*
X256690162Y-91329414D01*
X256629781Y-91183642D01*
X256599000Y-91028893D01*
X256599000Y-90871107D01*
X256629781Y-90716358D01*
X256690162Y-90570586D01*
X256750691Y-90479997D01*
X256777822Y-90439392D01*
X256889392Y-90327822D01*
X257020584Y-90240163D01*
X257020586Y-90240162D01*
X257166358Y-90179781D01*
X257321107Y-90149000D01*
X257478893Y-90149000D01*
X257633642Y-90179781D01*
G37*
G36*
X246106564Y-88389389D02*
G01*
X246297833Y-88468615D01*
X246297835Y-88468616D01*
X246469973Y-88583635D01*
X246616365Y-88730027D01*
X246731385Y-88902167D01*
X246810611Y-89093436D01*
X246851000Y-89296484D01*
X246851000Y-89503516D01*
X246810611Y-89706564D01*
X246731385Y-89897833D01*
X246731384Y-89897835D01*
X246616365Y-90069973D01*
X246469973Y-90216365D01*
X246297835Y-90331384D01*
X246297834Y-90331385D01*
X246297833Y-90331385D01*
X246106564Y-90410611D01*
X245903516Y-90451000D01*
X245696484Y-90451000D01*
X245493436Y-90410611D01*
X245302167Y-90331385D01*
X245302166Y-90331385D01*
X245302165Y-90331384D01*
X245130027Y-90216365D01*
X244983635Y-90069973D01*
X244868616Y-89897835D01*
X244868615Y-89897833D01*
X244789389Y-89706564D01*
X244749000Y-89503516D01*
X244749000Y-89296484D01*
X244789389Y-89093436D01*
X244868615Y-88902167D01*
X244983635Y-88730027D01*
X245130027Y-88583635D01*
X245302165Y-88468616D01*
X245302167Y-88468615D01*
X245493436Y-88389389D01*
X245696484Y-88349000D01*
X245903516Y-88349000D01*
X246106564Y-88389389D01*
G37*
M02*
