G04 #@! TF.GenerationSoftware,KiCad,Pcbnew,(5.1.5)-3*
G04 #@! TF.CreationDate,2020-05-22T16:17:05-04:00*
G04 #@! TF.ProjectId,os_multitap,6f735f6d-756c-4746-9974-61702e6b6963,rev?*
G04 #@! TF.SameCoordinates,Original*
G04 #@! TF.FileFunction,Profile,NP*
%FSLAX46Y46*%
G04 Gerber Fmt 4.6, Leading zero omitted, Abs format (unit mm)*
G04 Created by KiCad (PCBNEW (5.1.5)-3) date 2020-05-22 16:17:05*
%MOMM*%
%LPD*%
G04 APERTURE LIST*
%ADD10C,0.100000*%
G04 APERTURE END LIST*
D10*
X43455786Y-88175786D02*
X43405706Y-88227696D01*
X43405706Y-88227696D02*
X43357563Y-88281343D01*
X43357563Y-88281343D02*
X43311760Y-88336229D01*
X43311760Y-88336229D02*
X43267483Y-88393339D01*
X43267483Y-88393339D02*
X43224082Y-88453771D01*
X43224082Y-88453771D02*
X43183858Y-88514368D01*
X43183858Y-88514368D02*
X43144954Y-88577937D01*
X43144954Y-88577937D02*
X43107409Y-88644850D01*
X43107409Y-88644850D02*
X43073321Y-88711377D01*
X43073321Y-88711377D02*
X43041145Y-88780489D01*
X43041145Y-88780489D02*
X43010503Y-88853593D01*
X43010503Y-88853593D02*
X42982527Y-88928585D01*
X42982527Y-88928585D02*
X42957670Y-89004312D01*
X42957670Y-89004312D02*
X42935395Y-89082699D01*
X42935395Y-89082699D02*
X42915903Y-89163905D01*
X42915903Y-89163905D02*
X42899498Y-89247701D01*
X42899498Y-89247701D02*
X42886312Y-89334982D01*
X42886312Y-89334982D02*
X42876749Y-89425708D01*
X42876749Y-89425708D02*
X42871187Y-89520976D01*
X42871187Y-89520976D02*
X42870000Y-89590000D01*
X262284215Y-88175785D02*
X262232298Y-88125705D01*
X262232298Y-88125705D02*
X262179378Y-88078195D01*
X262179378Y-88078195D02*
X262123612Y-88031638D01*
X262123612Y-88031638D02*
X262065424Y-87986564D01*
X262065424Y-87986564D02*
X262007006Y-87944623D01*
X262007006Y-87944623D02*
X261946591Y-87904473D01*
X261946591Y-87904473D02*
X261883041Y-87865533D01*
X261883041Y-87865533D02*
X261817831Y-87828851D01*
X261817831Y-87828851D02*
X261750668Y-87794326D01*
X261750668Y-87794326D02*
X261682465Y-87762454D01*
X261682465Y-87762454D02*
X261612066Y-87732756D01*
X261612066Y-87732756D02*
X261537878Y-87704806D01*
X261537878Y-87704806D02*
X261461879Y-87679579D01*
X261461879Y-87679579D02*
X261382648Y-87656807D01*
X261382648Y-87656807D02*
X261299451Y-87636639D01*
X261299451Y-87636639D02*
X261215691Y-87620089D01*
X261215691Y-87620089D02*
X261128057Y-87606705D01*
X261128057Y-87606705D02*
X261035434Y-87596844D01*
X261035434Y-87596844D02*
X260940566Y-87591239D01*
X260940566Y-87591239D02*
X260870000Y-87589999D01*
X262870002Y-89590000D02*
X262867580Y-89491595D01*
X262867580Y-89491595D02*
X262860717Y-89397495D01*
X262860717Y-89397495D02*
X262849965Y-89307572D01*
X262849965Y-89307572D02*
X262835730Y-89221305D01*
X262835730Y-89221305D02*
X262817862Y-89136297D01*
X262817862Y-89136297D02*
X262797388Y-89055970D01*
X262797388Y-89055970D02*
X262774214Y-88978470D01*
X262774214Y-88978470D02*
X262748212Y-88902744D01*
X262748212Y-88902744D02*
X262719794Y-88829562D01*
X262719794Y-88829562D02*
X262689473Y-88759629D01*
X262689473Y-88759629D02*
X262656503Y-88690881D01*
X262656503Y-88690881D02*
X262620911Y-88623395D01*
X262620911Y-88623395D02*
X262584310Y-88559870D01*
X262584310Y-88559870D02*
X262545352Y-88497648D01*
X262545352Y-88497648D02*
X262503624Y-88436174D01*
X262503624Y-88436174D02*
X262460479Y-88377395D01*
X262460479Y-88377395D02*
X262414625Y-88319503D01*
X262414625Y-88319503D02*
X262368064Y-88264926D01*
X262368064Y-88264926D02*
X262319427Y-88211896D01*
X262319427Y-88211896D02*
X262284215Y-88175785D01*
X44870000Y-127590001D02*
X260870000Y-127590001D01*
X260870000Y-87589999D02*
X44870000Y-87589999D01*
X262870002Y-125589999D02*
X262870002Y-109340000D01*
X44870000Y-87589999D02*
X44771595Y-87592417D01*
X44771595Y-87592417D02*
X44677687Y-87599258D01*
X44677687Y-87599258D02*
X44587952Y-87609974D01*
X44587952Y-87609974D02*
X44500552Y-87624407D01*
X44500552Y-87624407D02*
X44414435Y-87642562D01*
X44414435Y-87642562D02*
X44333764Y-87663218D01*
X44333764Y-87663218D02*
X44254115Y-87687181D01*
X44254115Y-87687181D02*
X44177735Y-87713621D01*
X44177735Y-87713621D02*
X44105335Y-87741946D01*
X44105335Y-87741946D02*
X44033393Y-87773377D01*
X44033393Y-87773377D02*
X43965435Y-87806240D01*
X43965435Y-87806240D02*
X43898054Y-87842037D01*
X43898054Y-87842037D02*
X43828755Y-87882409D01*
X43828755Y-87882409D02*
X43767412Y-87921360D01*
X43767412Y-87921360D02*
X43706798Y-87963031D01*
X43706798Y-87963031D02*
X43647640Y-88006998D01*
X43647640Y-88006998D02*
X43591191Y-88052244D01*
X43591191Y-88052244D02*
X43537419Y-88098605D01*
X43537419Y-88098605D02*
X43484328Y-88147799D01*
X43484328Y-88147799D02*
X43455786Y-88175786D01*
X42870000Y-109340000D02*
X42870000Y-125589999D01*
X43455786Y-127004214D02*
X43507696Y-127054285D01*
X43507696Y-127054285D02*
X43560614Y-127101795D01*
X43560614Y-127101795D02*
X43618329Y-127149918D01*
X43618329Y-127149918D02*
X43675493Y-127194116D01*
X43675493Y-127194116D02*
X43733771Y-127235910D01*
X43733771Y-127235910D02*
X43797916Y-127278391D01*
X43797916Y-127278391D02*
X43862224Y-127317543D01*
X43862224Y-127317543D02*
X43927543Y-127354026D01*
X43927543Y-127354026D02*
X43994118Y-127388008D01*
X43994118Y-127388008D02*
X44063278Y-127420081D01*
X44063278Y-127420081D02*
X44135009Y-127450049D01*
X44135009Y-127450049D02*
X44210744Y-127478220D01*
X44210744Y-127478220D02*
X44286318Y-127502934D01*
X44286318Y-127502934D02*
X44365471Y-127525318D01*
X44365471Y-127525318D02*
X44448765Y-127545141D01*
X44448765Y-127545141D02*
X44532989Y-127561408D01*
X44532989Y-127561408D02*
X44620703Y-127574407D01*
X44620703Y-127574407D02*
X44713012Y-127583831D01*
X44713012Y-127583831D02*
X44808717Y-127589060D01*
X44808717Y-127589060D02*
X44870000Y-127590001D01*
X42870000Y-125589999D02*
X42872418Y-125688399D01*
X42872418Y-125688399D02*
X42879408Y-125783838D01*
X42879408Y-125783838D02*
X42890356Y-125874698D01*
X42890356Y-125874698D02*
X42904976Y-125962453D01*
X42904976Y-125962453D02*
X42923262Y-126048533D01*
X42923262Y-126048533D02*
X42944141Y-126129537D01*
X42944141Y-126129537D02*
X42967652Y-126207328D01*
X42967652Y-126207328D02*
X42993490Y-126281896D01*
X42993490Y-126281896D02*
X43021947Y-126354661D01*
X43021947Y-126354661D02*
X43052900Y-126425559D01*
X43052900Y-126425559D02*
X43086241Y-126494554D01*
X43086241Y-126494554D02*
X43120927Y-126559934D01*
X43120927Y-126559934D02*
X43157850Y-126623720D01*
X43157850Y-126623720D02*
X43197993Y-126687466D01*
X43197993Y-126687466D02*
X43239472Y-126748197D01*
X43239472Y-126748197D02*
X43282311Y-126806257D01*
X43282311Y-126806257D02*
X43327083Y-126862571D01*
X43327083Y-126862571D02*
X43373466Y-126916800D01*
X43373466Y-126916800D02*
X43421638Y-126969222D01*
X43421638Y-126969222D02*
X43455786Y-127004214D01*
X257870001Y-105840000D02*
X257766978Y-105843022D01*
X257766978Y-105843022D02*
X257673791Y-105851004D01*
X257673791Y-105851004D02*
X257585669Y-105863211D01*
X257585669Y-105863211D02*
X257499333Y-105879659D01*
X257499333Y-105879659D02*
X257417699Y-105899416D01*
X257417699Y-105899416D02*
X257339039Y-105922451D01*
X257339039Y-105922451D02*
X257263394Y-105948467D01*
X257263394Y-105948467D02*
X257189554Y-105977684D01*
X257189554Y-105977684D02*
X257114809Y-106011322D01*
X257114809Y-106011322D02*
X257046852Y-106045674D01*
X257046852Y-106045674D02*
X256978949Y-106083831D01*
X256978949Y-106083831D02*
X256915768Y-106123041D01*
X256915768Y-106123041D02*
X256855721Y-106163889D01*
X256855721Y-106163889D02*
X256797194Y-106207368D01*
X256797194Y-106207368D02*
X256740798Y-106253024D01*
X256740798Y-106253024D02*
X256687398Y-106300004D01*
X256687398Y-106300004D02*
X256634903Y-106350169D01*
X256634903Y-106350169D02*
X256585014Y-106401948D01*
X256585014Y-106401948D02*
X256536286Y-106456924D01*
X256536286Y-106456924D02*
X256491139Y-106512331D01*
X256491139Y-106512331D02*
X256447602Y-106570504D01*
X256447602Y-106570504D02*
X256406836Y-106629949D01*
X256406836Y-106629949D02*
X256367892Y-106692120D01*
X256367892Y-106692120D02*
X256354456Y-106715000D01*
X262284215Y-127004214D02*
X262334286Y-126952297D01*
X262334286Y-126952297D02*
X262381921Y-126899230D01*
X262381921Y-126899230D02*
X262428232Y-126843762D01*
X262428232Y-126843762D02*
X262472510Y-126786654D01*
X262472510Y-126786654D02*
X262515475Y-126726849D01*
X262515475Y-126726849D02*
X262556546Y-126664978D01*
X262556546Y-126664978D02*
X262594649Y-126602710D01*
X262594649Y-126602710D02*
X262630959Y-126538165D01*
X262630959Y-126538165D02*
X262665665Y-126470667D01*
X262665665Y-126470667D02*
X262697768Y-126401942D01*
X262697768Y-126401942D02*
X262727802Y-126330648D01*
X262727802Y-126330648D02*
X262755311Y-126257517D01*
X262755311Y-126257517D02*
X262780638Y-126181149D01*
X262780638Y-126181149D02*
X262803184Y-126102647D01*
X262803184Y-126102647D02*
X262823353Y-126019450D01*
X262823353Y-126019450D02*
X262840103Y-125934558D01*
X262840103Y-125934558D02*
X262853386Y-125847294D01*
X262853386Y-125847294D02*
X262863084Y-125756201D01*
X262863084Y-125756201D02*
X262868808Y-125659018D01*
X262868808Y-125659018D02*
X262870002Y-125589999D01*
X47870000Y-109340000D02*
X42870000Y-109340000D01*
X42870000Y-105839999D02*
X47870000Y-105839999D01*
X42870000Y-89590000D02*
X42870000Y-105839999D01*
X49385545Y-106715000D02*
X49345508Y-106649046D01*
X49345508Y-106649046D02*
X49304936Y-106588241D01*
X49304936Y-106588241D02*
X49262752Y-106530356D01*
X49262752Y-106530356D02*
X49217845Y-106473780D01*
X49217845Y-106473780D02*
X49169463Y-106417807D01*
X49169463Y-106417807D02*
X49117984Y-106363145D01*
X49117984Y-106363145D02*
X49064682Y-106311189D01*
X49064682Y-106311189D02*
X49011368Y-106263398D01*
X49011368Y-106263398D02*
X48955196Y-106217078D01*
X48955196Y-106217078D02*
X48897227Y-106173193D01*
X48897227Y-106173193D02*
X48838100Y-106132159D01*
X48838100Y-106132159D02*
X48776614Y-106093151D01*
X48776614Y-106093151D02*
X48711827Y-106055780D01*
X48711827Y-106055780D02*
X48645493Y-106021202D01*
X48645493Y-106021202D02*
X48575265Y-105988393D01*
X48575265Y-105988393D02*
X48503163Y-105958534D01*
X48503163Y-105958534D02*
X48429686Y-105931880D01*
X48429686Y-105931880D02*
X48352798Y-105907875D01*
X48352798Y-105907875D02*
X48272502Y-105886871D01*
X48272502Y-105886871D02*
X48189705Y-105869407D01*
X48189705Y-105869407D02*
X48102694Y-105855508D01*
X48102694Y-105855508D02*
X48011042Y-105845673D01*
X48011042Y-105845673D02*
X47914788Y-105840568D01*
X47914788Y-105840568D02*
X47870000Y-105840000D01*
X260870000Y-127590001D02*
X260968400Y-127587579D01*
X260968400Y-127587579D02*
X261062305Y-127580736D01*
X261062305Y-127580736D02*
X261152419Y-127569964D01*
X261152419Y-127569964D02*
X261240195Y-127555446D01*
X261240195Y-127555446D02*
X261326300Y-127537253D01*
X261326300Y-127537253D02*
X261406597Y-127516671D01*
X261406597Y-127516671D02*
X261485153Y-127493044D01*
X261485153Y-127493044D02*
X261560109Y-127467161D01*
X261560109Y-127467161D02*
X261633253Y-127438631D01*
X261633253Y-127438631D02*
X261703136Y-127408205D01*
X261703136Y-127408205D02*
X261771493Y-127375299D01*
X261771493Y-127375299D02*
X261844605Y-127336465D01*
X261844605Y-127336465D02*
X261910583Y-127297979D01*
X261910583Y-127297979D02*
X261972262Y-127258842D01*
X261972262Y-127258842D02*
X262031947Y-127217850D01*
X262031947Y-127217850D02*
X262089917Y-127174870D01*
X262089917Y-127174870D02*
X262146430Y-127129717D01*
X262146430Y-127129717D02*
X262200266Y-127083446D01*
X262200266Y-127083446D02*
X262254266Y-127033537D01*
X262254266Y-127033537D02*
X262284215Y-127004214D01*
X257870001Y-105839999D02*
X262870002Y-105839999D01*
X256354456Y-108465000D02*
X256393752Y-108529794D01*
X256393752Y-108529794D02*
X256435057Y-108591750D01*
X256435057Y-108591750D02*
X256478746Y-108651611D01*
X256478746Y-108651611D02*
X256524731Y-108709323D01*
X256524731Y-108709323D02*
X256571730Y-108763516D01*
X256571730Y-108763516D02*
X256621695Y-108816529D01*
X256621695Y-108816529D02*
X256673035Y-108866675D01*
X256673035Y-108866675D02*
X256726268Y-108914566D01*
X256726268Y-108914566D02*
X256783406Y-108961815D01*
X256783406Y-108961815D02*
X256841330Y-109005759D01*
X256841330Y-109005759D02*
X256900971Y-109047222D01*
X256900971Y-109047222D02*
X256962242Y-109086151D01*
X256962242Y-109086151D02*
X257028164Y-109124211D01*
X257028164Y-109124211D02*
X257094501Y-109158793D01*
X257094501Y-109158793D02*
X257163306Y-109190972D01*
X257163306Y-109190972D02*
X257234759Y-109220654D01*
X257234759Y-109220654D02*
X257310305Y-109248113D01*
X257310305Y-109248113D02*
X257387195Y-109272117D01*
X257387195Y-109272117D02*
X257467491Y-109293121D01*
X257467491Y-109293121D02*
X257550287Y-109310584D01*
X257550287Y-109310584D02*
X257637302Y-109324488D01*
X257637302Y-109324488D02*
X257728952Y-109334319D01*
X257728952Y-109334319D02*
X257825206Y-109339426D01*
X257825206Y-109339426D02*
X257870001Y-109340000D01*
X49385545Y-108465000D02*
X49421375Y-108399773D01*
X49421375Y-108399773D02*
X49455777Y-108330171D01*
X49455777Y-108330171D02*
X49486393Y-108260719D01*
X49486393Y-108260719D02*
X49514466Y-108188619D01*
X49514466Y-108188619D02*
X49540705Y-108110933D01*
X49540705Y-108110933D02*
X49563426Y-108031513D01*
X49563426Y-108031513D02*
X49582593Y-107950027D01*
X49582593Y-107950027D02*
X49598371Y-107864402D01*
X49598371Y-107864402D02*
X49610230Y-107774729D01*
X49610230Y-107774729D02*
X49617625Y-107681137D01*
X49617625Y-107681137D02*
X49619980Y-107582032D01*
X49619980Y-107582032D02*
X49616750Y-107483385D01*
X49616750Y-107483385D02*
X49608475Y-107389405D01*
X49608475Y-107389405D02*
X49596087Y-107301569D01*
X49596087Y-107301569D02*
X49579941Y-107217566D01*
X49579941Y-107217566D02*
X49560233Y-107136407D01*
X49560233Y-107136407D02*
X49534876Y-107050720D01*
X49534876Y-107050720D02*
X49508706Y-106975783D01*
X49508706Y-106975783D02*
X49480097Y-106904306D01*
X49480097Y-106904306D02*
X49448022Y-106833437D01*
X49448022Y-106833437D02*
X49414362Y-106766924D01*
X49414362Y-106766924D02*
X49385545Y-106715000D01*
X262870002Y-105839999D02*
X262870002Y-89590000D01*
X256354456Y-106715000D02*
X256318828Y-106779815D01*
X256318828Y-106779815D02*
X256285560Y-106846948D01*
X256285560Y-106846948D02*
X256254293Y-106917610D01*
X256254293Y-106917610D02*
X256226143Y-106989684D01*
X256226143Y-106989684D02*
X256200223Y-107066069D01*
X256200223Y-107066069D02*
X256177473Y-107145030D01*
X256177473Y-107145030D02*
X256157353Y-107230181D01*
X256157353Y-107230181D02*
X256140797Y-107320849D01*
X256140797Y-107320849D02*
X256129211Y-107410551D01*
X256129211Y-107410551D02*
X256122102Y-107504162D01*
X256122102Y-107504162D02*
X256120063Y-107605045D01*
X256120063Y-107605045D02*
X256123605Y-107702354D01*
X256123605Y-107702354D02*
X256132082Y-107795430D01*
X256132082Y-107795430D02*
X256144791Y-107883676D01*
X256144791Y-107883676D02*
X256161147Y-107967421D01*
X256161147Y-107967421D02*
X256181626Y-108050477D01*
X256181626Y-108050477D02*
X256204566Y-108127568D01*
X256204566Y-108127568D02*
X256230972Y-108203368D01*
X256230972Y-108203368D02*
X256260604Y-108277345D01*
X256260604Y-108277345D02*
X256291971Y-108346554D01*
X256291971Y-108346554D02*
X256325634Y-108413071D01*
X256325634Y-108413071D02*
X256354456Y-108465000D01*
X262870002Y-109340000D02*
X257870001Y-109340000D01*
X47870000Y-109340000D02*
X47967571Y-109337284D01*
X47967571Y-109337284D02*
X48062833Y-109329362D01*
X48062833Y-109329362D02*
X48154323Y-109316780D01*
X48154323Y-109316780D02*
X48238909Y-109300711D01*
X48238909Y-109300711D02*
X48322295Y-109280578D01*
X48322295Y-109280578D02*
X48400527Y-109257673D01*
X48400527Y-109257673D02*
X48476598Y-109231527D01*
X48476598Y-109231527D02*
X48549213Y-109202825D01*
X48549213Y-109202825D02*
X48618383Y-109171906D01*
X48618383Y-109171906D02*
X48685318Y-109138463D01*
X48685318Y-109138463D02*
X48749974Y-109102656D01*
X48749974Y-109102656D02*
X48813810Y-109063674D01*
X48813810Y-109063674D02*
X48874136Y-109023254D01*
X48874136Y-109023254D02*
X48932431Y-108980603D01*
X48932431Y-108980603D02*
X48989666Y-108934958D01*
X48989666Y-108934958D02*
X49043382Y-108888373D01*
X49043382Y-108888373D02*
X49095260Y-108839543D01*
X49095260Y-108839543D02*
X49145225Y-108788513D01*
X49145225Y-108788513D02*
X49193196Y-108735328D01*
X49193196Y-108735328D02*
X49239937Y-108678976D01*
X49239937Y-108678976D02*
X49283916Y-108621215D01*
X49283916Y-108621215D02*
X49325388Y-108561788D01*
X49325388Y-108561788D02*
X49365502Y-108498826D01*
X49365502Y-108498826D02*
X49385545Y-108465000D01*
M02*
