M48
; DRILL file {KiCad (5.1.5)-3} date 5/22/2020 4:17:07 PM
; FORMAT={-:-/ absolute / inch / decimal}
; #@! TF.CreationDate,2020-05-22T16:17:07-04:00
; #@! TF.GenerationSoftware,Kicad,Pcbnew,(5.1.5)-3
FMAT,2
INCH
T1C0.0157
T2C0.0276
T3C0.0315
T4C0.0354
T5C0.0433
T6C0.0492
T7C0.0591
%
G90
G05
T1
X3.2953Y-4.4646
X3.2953Y-4.6299
X3.4528Y-4.4685
X3.4685Y-4.7008
X3.4803Y-4.6339
X3.6693Y-4.2559
X3.6732Y-4.0866
X3.7677Y-4.0591
X3.7717Y-4.1614
X3.8307Y-4.0551
X3.9134Y-4.3976
X3.9567Y-4.252
X4.0551Y-4.248
X4.0591Y-4.3543
X4.063Y-3.7559
X4.1535Y-4.1024
X4.2126Y-4.0551
X4.248Y-4.122
X4.3622Y-4.8425
X4.3701Y-3.6693
X4.3898Y-4.0787
X4.4094Y-4.7559
X4.5Y-3.6063
X6.189Y-4.0906
X6.378Y-4.0984
X6.4173Y-3.7008
X6.4606Y-3.7795
X6.4843Y-4.122
X6.5906Y-4.2835
X6.5945Y-4.1969
X6.5984Y-3.8543
X6.6457Y-4.2559
X6.6654Y-3.9882
X6.6693Y-4.1181
X6.6969Y-4.5039
X6.8504Y-4.5039
X7.0Y-4.5
X7.0236Y-4.4055
X7.1102Y-4.5
X7.1299Y-4.3661
X7.4213Y-4.5197
X7.8307Y-3.8543
X7.9488Y-3.5079
X7.9685Y-3.9803
X8.3701Y-3.6142
X8.4213Y-3.8071
X8.4606Y-3.6142
X8.5157Y-4.0315
X8.5945Y-4.1102
X8.6339Y-3.7953
X8.6732Y-3.7205
X8.7087Y-3.626
X8.752Y-4.0394
X8.8937Y-3.9724
X9.0039Y-4.0866
X9.3858Y-4.4488
X9.4016Y-4.6457
X9.5433Y-4.4528
X9.5433Y-4.6299
T2
X9.1543Y-4.3543
X9.3543Y-4.3543
X8.8591Y-3.6693
X9.0591Y-3.6693
X8.315Y-3.6181
X8.515Y-3.6181
X4.3583Y-3.6142
X4.5583Y-3.6142
X3.9961Y-3.7047
X4.1961Y-3.7047
X8.1654Y-3.7047
X8.3654Y-3.7047
X1.9496Y-4.8504
X2.1496Y-4.8504
X4.0591Y-3.6142
X4.2591Y-3.6142
X7.1858Y-4.3858
X7.3858Y-4.3858
T3
X9.7402Y-3.5807
X9.7402Y-3.6791
X9.8189Y-3.5807
X9.8189Y-3.6791
X9.8976Y-3.5807
X9.8976Y-3.6791
X9.9764Y-3.5807
X9.9764Y-3.6791
X10.0551Y-3.5807
X10.0551Y-3.6791
X10.1339Y-3.5807
X10.1339Y-3.6791
X7.9606Y-3.7047
X8.0591Y-3.7047
X7.8543Y-4.5551
X7.9528Y-4.5551
X8.0591Y-3.887
X8.0591Y-4.187
X8.1591Y-3.887
X8.1591Y-4.187
X8.2591Y-3.887
X8.2591Y-4.187
X8.3591Y-3.887
X8.3591Y-4.187
X8.4591Y-3.887
X8.4591Y-4.187
X8.5591Y-3.887
X8.5591Y-4.187
X8.6591Y-3.887
X8.6591Y-4.187
X8.7591Y-3.887
X8.7591Y-4.187
X8.8591Y-3.887
X8.8591Y-4.187
X8.9591Y-3.887
X8.9591Y-4.187
X3.9252Y-4.5551
X4.0236Y-4.5551
X5.8898Y-4.5551
X5.9882Y-4.5551
X3.8976Y-3.887
X3.8976Y-4.187
X3.9976Y-3.887
X3.9976Y-4.187
X4.0976Y-3.887
X4.0976Y-4.187
X4.1976Y-3.887
X4.1976Y-4.187
X4.2976Y-3.887
X4.2976Y-4.187
X4.3976Y-3.887
X4.3976Y-4.187
X4.4976Y-3.887
X4.4976Y-4.187
X4.5976Y-3.887
X4.5976Y-4.187
X9.8189Y-4.5551
X9.9173Y-4.5551
X5.9354Y-3.8858
X5.9354Y-4.1858
X6.0354Y-3.8858
X6.0354Y-4.1858
X6.1354Y-3.8858
X6.1354Y-4.1858
X6.2354Y-3.8858
X6.2354Y-4.1858
X6.3354Y-3.8858
X6.3354Y-4.1858
X6.4354Y-3.8858
X6.4354Y-4.1858
X6.5354Y-3.8858
X6.5354Y-4.1858
T4
X1.9961Y-4.9524
X2.0961Y-4.9524
T5
X5.9449Y-3.6024
X6.0449Y-3.6024
X6.1449Y-3.6024
X6.2449Y-3.6024
X6.3449Y-3.6024
X6.4449Y-3.6024
X6.5449Y-3.6024
T6
X9.6772Y-3.5197
X10.1969Y-3.7402
T7
X6.6122Y-4.5508
X6.7697Y-4.5508
X6.9272Y-4.5508
X7.1831Y-4.5508
X7.3406Y-4.5508
X7.498Y-4.5508
X7.6555Y-4.5508
X4.6437Y-4.5508
X4.8012Y-4.5508
X4.9587Y-4.5508
X5.2146Y-4.5508
X5.372Y-4.5508
X5.5295Y-4.5508
X5.687Y-4.5508
X8.5807Y-4.5508
X8.7382Y-4.5508
X8.8957Y-4.5508
X9.1516Y-4.5508
X9.3091Y-4.5508
X9.4665Y-4.5508
X9.624Y-4.5508
X2.6752Y-4.5508
X2.8327Y-4.5508
X2.9902Y-4.5508
X3.2461Y-4.5508
X3.4035Y-4.5508
X3.561Y-4.5508
X3.7185Y-4.5508
T0
M30
